G04 #@! TF.GenerationSoftware,KiCad,Pcbnew,5.1.5+dfsg1-2build2*
G04 #@! TF.CreationDate,2021-06-14T22:52:35+02:00*
G04 #@! TF.ProjectId,board,626f6172-642e-46b6-9963-61645f706362,rev?*
G04 #@! TF.SameCoordinates,Original*
G04 #@! TF.FileFunction,Legend,Bot*
G04 #@! TF.FilePolarity,Positive*
%FSLAX46Y46*%
G04 Gerber Fmt 4.6, Leading zero omitted, Abs format (unit mm)*
G04 Created by KiCad (PCBNEW 5.1.5+dfsg1-2build2) date 2021-06-14 22:52:35*
%MOMM*%
%LPD*%
G04 APERTURE LIST*
%ADD10C,0.120000*%
%ADD11C,0.150000*%
%ADD12C,0.100000*%
%ADD13C,0.050000*%
G04 APERTURE END LIST*
D10*
X-2115000Y-3547936D02*
X-2115000Y-4752064D01*
X-3935000Y-3547936D02*
X-3935000Y-4752064D01*
X19852064Y-19410000D02*
X18647936Y-19410000D01*
X19852064Y-17590000D02*
X18647936Y-17590000D01*
X-32790000Y-8303922D02*
X-32790000Y-8821078D01*
X-34210000Y-8303922D02*
X-34210000Y-8821078D01*
X-31315000Y-20460000D02*
X-34000000Y-20460000D01*
X-31315000Y-18540000D02*
X-31315000Y-20460000D01*
X-34000000Y-18540000D02*
X-31315000Y-18540000D01*
X12798578Y-2590000D02*
X12281422Y-2590000D01*
X12798578Y-1170000D02*
X12281422Y-1170000D01*
X12688578Y-7330000D02*
X12171422Y-7330000D01*
X12688578Y-5910000D02*
X12171422Y-5910000D01*
X19530000Y-7921422D02*
X19530000Y-8438578D01*
X18110000Y-7921422D02*
X18110000Y-8438578D01*
X16870000Y-7921422D02*
X16870000Y-8438578D01*
X15450000Y-7921422D02*
X15450000Y-8438578D01*
X3250000Y-16583922D02*
X3250000Y-17101078D01*
X1830000Y-16583922D02*
X1830000Y-17101078D01*
X43910000Y-6641422D02*
X43910000Y-7158578D01*
X42490000Y-6641422D02*
X42490000Y-7158578D01*
X-43890000Y6231422D02*
X-43890000Y6748578D01*
X-42470000Y6231422D02*
X-42470000Y6748578D01*
X12808578Y-285000D02*
X12291422Y-285000D01*
X12808578Y1135000D02*
X12291422Y1135000D01*
X22135000Y-7866422D02*
X22135000Y-8383578D01*
X20715000Y-7866422D02*
X20715000Y-8383578D01*
X17340000Y8216422D02*
X17340000Y8733578D01*
X18760000Y8216422D02*
X18760000Y8733578D01*
X5821078Y15790000D02*
X5303922Y15790000D01*
X5821078Y17210000D02*
X5303922Y17210000D01*
X5758578Y7290000D02*
X5241422Y7290000D01*
X5758578Y8710000D02*
X5241422Y8710000D01*
X-10570000Y13530000D02*
X-14470000Y13530000D01*
X-10570000Y11530000D02*
X-14470000Y11530000D01*
X-10570000Y13530000D02*
X-10570000Y11530000D01*
X-14540000Y-15010000D02*
X-10640000Y-15010000D01*
X-14540000Y-13010000D02*
X-10640000Y-13010000D01*
X-14540000Y-15010000D02*
X-14540000Y-13010000D01*
D11*
X17600000Y3625000D02*
X17600000Y5050000D01*
X17375000Y-3625000D02*
X17375000Y-3300000D01*
X24625000Y-3625000D02*
X24625000Y-3300000D01*
X24625000Y3625000D02*
X24625000Y3300000D01*
X17375000Y3625000D02*
X17375000Y3300000D01*
X24625000Y3625000D02*
X24300000Y3625000D01*
X24625000Y-3625000D02*
X24300000Y-3625000D01*
X17375000Y-3625000D02*
X17700000Y-3625000D01*
X17375000Y3625000D02*
X17600000Y3625000D01*
D10*
X-32002064Y-12090000D02*
X-30797936Y-12090000D01*
X-32002064Y-13910000D02*
X-30797936Y-13910000D01*
X-797936Y-15260000D02*
X-2002064Y-15260000D01*
X-797936Y-13440000D02*
X-2002064Y-13440000D01*
X36890000Y-7662064D02*
X36890000Y-6457936D01*
X38710000Y-7662064D02*
X38710000Y-6457936D01*
X-36970000Y8652064D02*
X-36970000Y7447936D01*
X-38790000Y8652064D02*
X-38790000Y7447936D01*
X25825000Y6825000D02*
X21825000Y6825000D01*
X25825000Y10125000D02*
X25825000Y6825000D01*
X7160000Y13300000D02*
X7160000Y10850000D01*
X3940000Y11500000D02*
X3940000Y13300000D01*
X28841422Y4085000D02*
X29358578Y4085000D01*
X28841422Y2665000D02*
X29358578Y2665000D01*
X36590000Y7997936D02*
X36590000Y9202064D01*
X38410000Y7997936D02*
X38410000Y9202064D01*
X10997936Y17110000D02*
X12202064Y17110000D01*
X10997936Y15290000D02*
X12202064Y15290000D01*
X11783578Y6090000D02*
X11266422Y6090000D01*
X11783578Y7510000D02*
X11266422Y7510000D01*
X-17438748Y11870000D02*
X-17961252Y11870000D01*
X-17438748Y13290000D02*
X-17961252Y13290000D01*
X16768578Y-15950000D02*
X16251422Y-15950000D01*
X16768578Y-14530000D02*
X16251422Y-14530000D01*
X21848578Y-15950000D02*
X21331422Y-15950000D01*
X21848578Y-14530000D02*
X21331422Y-14530000D01*
X-33958578Y15710000D02*
X-33441422Y15710000D01*
X-33958578Y14290000D02*
X-33441422Y14290000D01*
X29877936Y-16870000D02*
X31082064Y-16870000D01*
X29877936Y-18690000D02*
X31082064Y-18690000D01*
X29877936Y-13060000D02*
X31082064Y-13060000D01*
X29877936Y-14880000D02*
X31082064Y-14880000D01*
X258578Y15390000D02*
X-258578Y15390000D01*
X258578Y16810000D02*
X-258578Y16810000D01*
X9148578Y-14680000D02*
X8631422Y-14680000D01*
X9148578Y-13260000D02*
X8631422Y-13260000D01*
X39346252Y3340000D02*
X38823748Y3340000D01*
X39346252Y4760000D02*
X38823748Y4760000D01*
X8631422Y-10290000D02*
X9148578Y-10290000D01*
X8631422Y-11710000D02*
X9148578Y-11710000D01*
X-7651252Y-13430000D02*
X-7128748Y-13430000D01*
X-7651252Y-14850000D02*
X-7128748Y-14850000D01*
X32741422Y16710000D02*
X33258578Y16710000D01*
X32741422Y15290000D02*
X33258578Y15290000D01*
X34610000Y8680000D02*
X33150000Y8680000D01*
X34610000Y5520000D02*
X32450000Y5520000D01*
X34610000Y5520000D02*
X34610000Y6450000D01*
X34610000Y8680000D02*
X34610000Y7750000D01*
X12260000Y12830000D02*
X10800000Y12830000D01*
X12260000Y9670000D02*
X10100000Y9670000D01*
X12260000Y9670000D02*
X12260000Y10600000D01*
X12260000Y12830000D02*
X12260000Y11900000D01*
X47000000Y4000000D02*
X47000000Y-4000000D01*
D12*
X42500000Y3900000D02*
X42500000Y3400000D01*
X42500000Y3900000D02*
X43000000Y3900000D01*
X42500000Y-3900000D02*
X42500000Y-3400000D01*
X42500000Y-3900000D02*
X42900000Y-3900000D01*
X47700000Y-3900000D02*
X47200000Y-3900000D01*
X47700000Y-3900000D02*
X47700000Y-3400000D01*
X47700000Y3900000D02*
X47700000Y3400000D01*
X47700000Y3900000D02*
X47200000Y3900000D01*
D10*
X31082064Y-11070000D02*
X29877936Y-11070000D01*
X31082064Y-9250000D02*
X29877936Y-9250000D01*
X-43735000Y-2285000D02*
X-43735000Y1600000D01*
X-41465000Y-2285000D02*
X-43735000Y-2285000D01*
X-41465000Y1600000D02*
X-41465000Y-2285000D01*
X-35285000Y19560000D02*
X-32600000Y19560000D01*
X-35285000Y17640000D02*
X-35285000Y19560000D01*
X-32600000Y17640000D02*
X-35285000Y17640000D01*
X18250000Y16250000D02*
X23950000Y16250000D01*
X18250000Y20550000D02*
X23950000Y20550000D01*
X18250000Y16250000D02*
X18250000Y20550000D01*
X-1685000Y19960000D02*
X1000000Y19960000D01*
X-1685000Y18040000D02*
X-1685000Y19960000D01*
X1000000Y18040000D02*
X-1685000Y18040000D01*
X34685000Y17640000D02*
X32000000Y17640000D01*
X34685000Y19560000D02*
X34685000Y17640000D01*
X32000000Y19560000D02*
X34685000Y19560000D01*
X6640000Y-18780000D02*
X10540000Y-18780000D01*
X6640000Y-16780000D02*
X10540000Y-16780000D01*
X6640000Y-18780000D02*
X6640000Y-16780000D01*
X6400000Y-14850000D02*
X6400000Y-10950000D01*
X4400000Y-14850000D02*
X4400000Y-10950000D01*
X6400000Y-14850000D02*
X4400000Y-14850000D01*
X19690000Y8338748D02*
X19690000Y8861252D01*
X21110000Y8338748D02*
X21110000Y8861252D01*
X26915000Y8163748D02*
X26915000Y8686252D01*
X28335000Y8163748D02*
X28335000Y8686252D01*
X-38410000Y-9452064D02*
X-38410000Y-8247936D01*
X-36590000Y-9452064D02*
X-36590000Y-8247936D01*
D11*
X-4487857Y-3507142D02*
X-4440238Y-3459523D01*
X-4392619Y-3316666D01*
X-4392619Y-3221428D01*
X-4440238Y-3078571D01*
X-4535476Y-2983333D01*
X-4630714Y-2935714D01*
X-4821190Y-2888095D01*
X-4964047Y-2888095D01*
X-5154523Y-2935714D01*
X-5249761Y-2983333D01*
X-5345000Y-3078571D01*
X-5392619Y-3221428D01*
X-5392619Y-3316666D01*
X-5345000Y-3459523D01*
X-5297380Y-3507142D01*
X-5297380Y-3888095D02*
X-5345000Y-3935714D01*
X-5392619Y-4030952D01*
X-5392619Y-4269047D01*
X-5345000Y-4364285D01*
X-5297380Y-4411904D01*
X-5202142Y-4459523D01*
X-5106904Y-4459523D01*
X-4964047Y-4411904D01*
X-4392619Y-3840476D01*
X-4392619Y-4459523D01*
X-5392619Y-5316666D02*
X-5392619Y-5126190D01*
X-5345000Y-5030952D01*
X-5297380Y-4983333D01*
X-5154523Y-4888095D01*
X-4964047Y-4840476D01*
X-4583095Y-4840476D01*
X-4487857Y-4888095D01*
X-4440238Y-4935714D01*
X-4392619Y-5030952D01*
X-4392619Y-5221428D01*
X-4440238Y-5316666D01*
X-4487857Y-5364285D01*
X-4583095Y-5411904D01*
X-4821190Y-5411904D01*
X-4916428Y-5364285D01*
X-4964047Y-5316666D01*
X-5011666Y-5221428D01*
X-5011666Y-5030952D01*
X-4964047Y-4935714D01*
X-4916428Y-4888095D01*
X-4821190Y-4840476D01*
X19416666Y-17037142D02*
X19464285Y-17084761D01*
X19607142Y-17132380D01*
X19702380Y-17132380D01*
X19845238Y-17084761D01*
X19940476Y-16989523D01*
X19988095Y-16894285D01*
X20035714Y-16703809D01*
X20035714Y-16560952D01*
X19988095Y-16370476D01*
X19940476Y-16275238D01*
X19845238Y-16180000D01*
X19702380Y-16132380D01*
X19607142Y-16132380D01*
X19464285Y-16180000D01*
X19416666Y-16227619D01*
X18559523Y-16132380D02*
X18750000Y-16132380D01*
X18845238Y-16180000D01*
X18892857Y-16227619D01*
X18988095Y-16370476D01*
X19035714Y-16560952D01*
X19035714Y-16941904D01*
X18988095Y-17037142D01*
X18940476Y-17084761D01*
X18845238Y-17132380D01*
X18654761Y-17132380D01*
X18559523Y-17084761D01*
X18511904Y-17037142D01*
X18464285Y-16941904D01*
X18464285Y-16703809D01*
X18511904Y-16608571D01*
X18559523Y-16560952D01*
X18654761Y-16513333D01*
X18845238Y-16513333D01*
X18940476Y-16560952D01*
X18988095Y-16608571D01*
X19035714Y-16703809D01*
X-31047619Y-8333333D02*
X-31523809Y-8000000D01*
X-31047619Y-7761904D02*
X-32047619Y-7761904D01*
X-32047619Y-8142857D01*
X-32000000Y-8238095D01*
X-31952380Y-8285714D01*
X-31857142Y-8333333D01*
X-31714285Y-8333333D01*
X-31619047Y-8285714D01*
X-31571428Y-8238095D01*
X-31523809Y-8142857D01*
X-31523809Y-7761904D01*
X-32047619Y-9190476D02*
X-32047619Y-9000000D01*
X-32000000Y-8904761D01*
X-31952380Y-8857142D01*
X-31809523Y-8761904D01*
X-31619047Y-8714285D01*
X-31238095Y-8714285D01*
X-31142857Y-8761904D01*
X-31095238Y-8809523D01*
X-31047619Y-8904761D01*
X-31047619Y-9095238D01*
X-31095238Y-9190476D01*
X-31142857Y-9238095D01*
X-31238095Y-9285714D01*
X-31476190Y-9285714D01*
X-31571428Y-9238095D01*
X-31619047Y-9190476D01*
X-31666666Y-9095238D01*
X-31666666Y-8904761D01*
X-31619047Y-8809523D01*
X-31571428Y-8761904D01*
X-31476190Y-8714285D01*
X-32261904Y-18302380D02*
X-32261904Y-17302380D01*
X-32500000Y-17302380D01*
X-32642857Y-17350000D01*
X-32738095Y-17445238D01*
X-32785714Y-17540476D01*
X-32833333Y-17730952D01*
X-32833333Y-17873809D01*
X-32785714Y-18064285D01*
X-32738095Y-18159523D01*
X-32642857Y-18254761D01*
X-32500000Y-18302380D01*
X-32261904Y-18302380D01*
X-33690476Y-17302380D02*
X-33500000Y-17302380D01*
X-33404761Y-17350000D01*
X-33357142Y-17397619D01*
X-33261904Y-17540476D01*
X-33214285Y-17730952D01*
X-33214285Y-18111904D01*
X-33261904Y-18207142D01*
X-33309523Y-18254761D01*
X-33404761Y-18302380D01*
X-33595238Y-18302380D01*
X-33690476Y-18254761D01*
X-33738095Y-18207142D01*
X-33785714Y-18111904D01*
X-33785714Y-17873809D01*
X-33738095Y-17778571D01*
X-33690476Y-17730952D01*
X-33595238Y-17683333D01*
X-33404761Y-17683333D01*
X-33309523Y-17730952D01*
X-33261904Y-17778571D01*
X-33214285Y-17873809D01*
X9766666Y-2457142D02*
X9814285Y-2504761D01*
X9957142Y-2552380D01*
X10052380Y-2552380D01*
X10195238Y-2504761D01*
X10290476Y-2409523D01*
X10338095Y-2314285D01*
X10385714Y-2123809D01*
X10385714Y-1980952D01*
X10338095Y-1790476D01*
X10290476Y-1695238D01*
X10195238Y-1600000D01*
X10052380Y-1552380D01*
X9957142Y-1552380D01*
X9814285Y-1600000D01*
X9766666Y-1647619D01*
X8909523Y-1885714D02*
X8909523Y-2552380D01*
X9147619Y-1504761D02*
X9385714Y-2219047D01*
X8766666Y-2219047D01*
X11166666Y-4957142D02*
X11214285Y-5004761D01*
X11357142Y-5052380D01*
X11452380Y-5052380D01*
X11595238Y-5004761D01*
X11690476Y-4909523D01*
X11738095Y-4814285D01*
X11785714Y-4623809D01*
X11785714Y-4480952D01*
X11738095Y-4290476D01*
X11690476Y-4195238D01*
X11595238Y-4100000D01*
X11452380Y-4052380D01*
X11357142Y-4052380D01*
X11214285Y-4100000D01*
X11166666Y-4147619D01*
X10833333Y-4052380D02*
X10214285Y-4052380D01*
X10547619Y-4433333D01*
X10404761Y-4433333D01*
X10309523Y-4480952D01*
X10261904Y-4528571D01*
X10214285Y-4623809D01*
X10214285Y-4861904D01*
X10261904Y-4957142D01*
X10309523Y-5004761D01*
X10404761Y-5052380D01*
X10690476Y-5052380D01*
X10785714Y-5004761D01*
X10833333Y-4957142D01*
X19257142Y-11057142D02*
X19304761Y-11009523D01*
X19352380Y-10866666D01*
X19352380Y-10771428D01*
X19304761Y-10628571D01*
X19209523Y-10533333D01*
X19114285Y-10485714D01*
X18923809Y-10438095D01*
X18780952Y-10438095D01*
X18590476Y-10485714D01*
X18495238Y-10533333D01*
X18400000Y-10628571D01*
X18352380Y-10771428D01*
X18352380Y-10866666D01*
X18400000Y-11009523D01*
X18447619Y-11057142D01*
X19352380Y-12009523D02*
X19352380Y-11438095D01*
X19352380Y-11723809D02*
X18352380Y-11723809D01*
X18495238Y-11628571D01*
X18590476Y-11533333D01*
X18638095Y-11438095D01*
X18780952Y-12580952D02*
X18733333Y-12485714D01*
X18685714Y-12438095D01*
X18590476Y-12390476D01*
X18542857Y-12390476D01*
X18447619Y-12438095D01*
X18400000Y-12485714D01*
X18352380Y-12580952D01*
X18352380Y-12771428D01*
X18400000Y-12866666D01*
X18447619Y-12914285D01*
X18542857Y-12961904D01*
X18590476Y-12961904D01*
X18685714Y-12914285D01*
X18733333Y-12866666D01*
X18780952Y-12771428D01*
X18780952Y-12580952D01*
X18828571Y-12485714D01*
X18876190Y-12438095D01*
X18971428Y-12390476D01*
X19161904Y-12390476D01*
X19257142Y-12438095D01*
X19304761Y-12485714D01*
X19352380Y-12580952D01*
X19352380Y-12771428D01*
X19304761Y-12866666D01*
X19257142Y-12914285D01*
X19161904Y-12961904D01*
X18971428Y-12961904D01*
X18876190Y-12914285D01*
X18828571Y-12866666D01*
X18780952Y-12771428D01*
X14757142Y-9233333D02*
X14804761Y-9185714D01*
X14852380Y-9042857D01*
X14852380Y-8947619D01*
X14804761Y-8804761D01*
X14709523Y-8709523D01*
X14614285Y-8661904D01*
X14423809Y-8614285D01*
X14280952Y-8614285D01*
X14090476Y-8661904D01*
X13995238Y-8709523D01*
X13900000Y-8804761D01*
X13852380Y-8947619D01*
X13852380Y-9042857D01*
X13900000Y-9185714D01*
X13947619Y-9233333D01*
X13852380Y-10138095D02*
X13852380Y-9661904D01*
X14328571Y-9614285D01*
X14280952Y-9661904D01*
X14233333Y-9757142D01*
X14233333Y-9995238D01*
X14280952Y-10090476D01*
X14328571Y-10138095D01*
X14423809Y-10185714D01*
X14661904Y-10185714D01*
X14757142Y-10138095D01*
X14804761Y-10090476D01*
X14852380Y-9995238D01*
X14852380Y-9757142D01*
X14804761Y-9661904D01*
X14757142Y-9614285D01*
X2757142Y-19557142D02*
X2804761Y-19509523D01*
X2852380Y-19366666D01*
X2852380Y-19271428D01*
X2804761Y-19128571D01*
X2709523Y-19033333D01*
X2614285Y-18985714D01*
X2423809Y-18938095D01*
X2280952Y-18938095D01*
X2090476Y-18985714D01*
X1995238Y-19033333D01*
X1900000Y-19128571D01*
X1852380Y-19271428D01*
X1852380Y-19366666D01*
X1900000Y-19509523D01*
X1947619Y-19557142D01*
X1852380Y-19890476D02*
X1852380Y-20509523D01*
X2233333Y-20176190D01*
X2233333Y-20319047D01*
X2280952Y-20414285D01*
X2328571Y-20461904D01*
X2423809Y-20509523D01*
X2661904Y-20509523D01*
X2757142Y-20461904D01*
X2804761Y-20414285D01*
X2852380Y-20319047D01*
X2852380Y-20033333D01*
X2804761Y-19938095D01*
X2757142Y-19890476D01*
X1947619Y-20890476D02*
X1900000Y-20938095D01*
X1852380Y-21033333D01*
X1852380Y-21271428D01*
X1900000Y-21366666D01*
X1947619Y-21414285D01*
X2042857Y-21461904D01*
X2138095Y-21461904D01*
X2280952Y-21414285D01*
X2852380Y-20842857D01*
X2852380Y-21461904D01*
X45857142Y-6457142D02*
X45904761Y-6409523D01*
X45952380Y-6266666D01*
X45952380Y-6171428D01*
X45904761Y-6028571D01*
X45809523Y-5933333D01*
X45714285Y-5885714D01*
X45523809Y-5838095D01*
X45380952Y-5838095D01*
X45190476Y-5885714D01*
X45095238Y-5933333D01*
X45000000Y-6028571D01*
X44952380Y-6171428D01*
X44952380Y-6266666D01*
X45000000Y-6409523D01*
X45047619Y-6457142D01*
X44952380Y-6790476D02*
X44952380Y-7409523D01*
X45333333Y-7076190D01*
X45333333Y-7219047D01*
X45380952Y-7314285D01*
X45428571Y-7361904D01*
X45523809Y-7409523D01*
X45761904Y-7409523D01*
X45857142Y-7361904D01*
X45904761Y-7314285D01*
X45952380Y-7219047D01*
X45952380Y-6933333D01*
X45904761Y-6838095D01*
X45857142Y-6790476D01*
X45952380Y-8361904D02*
X45952380Y-7790476D01*
X45952380Y-8076190D02*
X44952380Y-8076190D01*
X45095238Y-7980952D01*
X45190476Y-7885714D01*
X45238095Y-7790476D01*
X-44642857Y7142857D02*
X-44595238Y7190476D01*
X-44547619Y7333333D01*
X-44547619Y7428571D01*
X-44595238Y7571428D01*
X-44690476Y7666666D01*
X-44785714Y7714285D01*
X-44976190Y7761904D01*
X-45119047Y7761904D01*
X-45309523Y7714285D01*
X-45404761Y7666666D01*
X-45500000Y7571428D01*
X-45547619Y7428571D01*
X-45547619Y7333333D01*
X-45500000Y7190476D01*
X-45452380Y7142857D01*
X-45547619Y6809523D02*
X-45547619Y6190476D01*
X-45166666Y6523809D01*
X-45166666Y6380952D01*
X-45119047Y6285714D01*
X-45071428Y6238095D01*
X-44976190Y6190476D01*
X-44738095Y6190476D01*
X-44642857Y6238095D01*
X-44595238Y6285714D01*
X-44547619Y6380952D01*
X-44547619Y6666666D01*
X-44595238Y6761904D01*
X-44642857Y6809523D01*
X-45547619Y5571428D02*
X-45547619Y5476190D01*
X-45500000Y5380952D01*
X-45452380Y5333333D01*
X-45357142Y5285714D01*
X-45166666Y5238095D01*
X-44928571Y5238095D01*
X-44738095Y5285714D01*
X-44642857Y5333333D01*
X-44595238Y5380952D01*
X-44547619Y5476190D01*
X-44547619Y5571428D01*
X-44595238Y5666666D01*
X-44642857Y5714285D01*
X-44738095Y5761904D01*
X-44928571Y5809523D01*
X-45166666Y5809523D01*
X-45357142Y5761904D01*
X-45452380Y5714285D01*
X-45500000Y5666666D01*
X-45547619Y5571428D01*
X12142857Y1842857D02*
X12190476Y1795238D01*
X12333333Y1747619D01*
X12428571Y1747619D01*
X12571428Y1795238D01*
X12666666Y1890476D01*
X12714285Y1985714D01*
X12761904Y2176190D01*
X12761904Y2319047D01*
X12714285Y2509523D01*
X12666666Y2604761D01*
X12571428Y2700000D01*
X12428571Y2747619D01*
X12333333Y2747619D01*
X12190476Y2700000D01*
X12142857Y2652380D01*
X11761904Y2652380D02*
X11714285Y2700000D01*
X11619047Y2747619D01*
X11380952Y2747619D01*
X11285714Y2700000D01*
X11238095Y2652380D01*
X11190476Y2557142D01*
X11190476Y2461904D01*
X11238095Y2319047D01*
X11809523Y1747619D01*
X11190476Y1747619D01*
X10714285Y1747619D02*
X10523809Y1747619D01*
X10428571Y1795238D01*
X10380952Y1842857D01*
X10285714Y1985714D01*
X10238095Y2176190D01*
X10238095Y2557142D01*
X10285714Y2652380D01*
X10333333Y2700000D01*
X10428571Y2747619D01*
X10619047Y2747619D01*
X10714285Y2700000D01*
X10761904Y2652380D01*
X10809523Y2557142D01*
X10809523Y2319047D01*
X10761904Y2223809D01*
X10714285Y2176190D01*
X10619047Y2128571D01*
X10428571Y2128571D01*
X10333333Y2176190D01*
X10285714Y2223809D01*
X10238095Y2319047D01*
X23957142Y-7557142D02*
X24004761Y-7509523D01*
X24052380Y-7366666D01*
X24052380Y-7271428D01*
X24004761Y-7128571D01*
X23909523Y-7033333D01*
X23814285Y-6985714D01*
X23623809Y-6938095D01*
X23480952Y-6938095D01*
X23290476Y-6985714D01*
X23195238Y-7033333D01*
X23100000Y-7128571D01*
X23052380Y-7271428D01*
X23052380Y-7366666D01*
X23100000Y-7509523D01*
X23147619Y-7557142D01*
X23147619Y-7938095D02*
X23100000Y-7985714D01*
X23052380Y-8080952D01*
X23052380Y-8319047D01*
X23100000Y-8414285D01*
X23147619Y-8461904D01*
X23242857Y-8509523D01*
X23338095Y-8509523D01*
X23480952Y-8461904D01*
X24052380Y-7890476D01*
X24052380Y-8509523D01*
X24052380Y-9461904D02*
X24052380Y-8890476D01*
X24052380Y-9176190D02*
X23052380Y-9176190D01*
X23195238Y-9080952D01*
X23290476Y-8985714D01*
X23338095Y-8890476D01*
X18357142Y12642857D02*
X18404761Y12690476D01*
X18452380Y12833333D01*
X18452380Y12928571D01*
X18404761Y13071428D01*
X18309523Y13166666D01*
X18214285Y13214285D01*
X18023809Y13261904D01*
X17880952Y13261904D01*
X17690476Y13214285D01*
X17595238Y13166666D01*
X17500000Y13071428D01*
X17452380Y12928571D01*
X17452380Y12833333D01*
X17500000Y12690476D01*
X17547619Y12642857D01*
X17547619Y12261904D02*
X17500000Y12214285D01*
X17452380Y12119047D01*
X17452380Y11880952D01*
X17500000Y11785714D01*
X17547619Y11738095D01*
X17642857Y11690476D01*
X17738095Y11690476D01*
X17880952Y11738095D01*
X18452380Y12309523D01*
X18452380Y11690476D01*
X17452380Y11071428D02*
X17452380Y10976190D01*
X17500000Y10880952D01*
X17547619Y10833333D01*
X17642857Y10785714D01*
X17833333Y10738095D01*
X18071428Y10738095D01*
X18261904Y10785714D01*
X18357142Y10833333D01*
X18404761Y10880952D01*
X18452380Y10976190D01*
X18452380Y11071428D01*
X18404761Y11166666D01*
X18357142Y11214285D01*
X18261904Y11261904D01*
X18071428Y11309523D01*
X17833333Y11309523D01*
X17642857Y11261904D01*
X17547619Y11214285D01*
X17500000Y11166666D01*
X17452380Y11071428D01*
X6205357Y17792857D02*
X6252976Y17745238D01*
X6395833Y17697619D01*
X6491071Y17697619D01*
X6633928Y17745238D01*
X6729166Y17840476D01*
X6776785Y17935714D01*
X6824404Y18126190D01*
X6824404Y18269047D01*
X6776785Y18459523D01*
X6729166Y18554761D01*
X6633928Y18650000D01*
X6491071Y18697619D01*
X6395833Y18697619D01*
X6252976Y18650000D01*
X6205357Y18602380D01*
X5252976Y17697619D02*
X5824404Y17697619D01*
X5538690Y17697619D02*
X5538690Y18697619D01*
X5633928Y18554761D01*
X5729166Y18459523D01*
X5824404Y18411904D01*
X4300595Y17697619D02*
X4872023Y17697619D01*
X4586309Y17697619D02*
X4586309Y18697619D01*
X4681547Y18554761D01*
X4776785Y18459523D01*
X4872023Y18411904D01*
X7042857Y5842857D02*
X7090476Y5795238D01*
X7233333Y5747619D01*
X7328571Y5747619D01*
X7471428Y5795238D01*
X7566666Y5890476D01*
X7614285Y5985714D01*
X7661904Y6176190D01*
X7661904Y6319047D01*
X7614285Y6509523D01*
X7566666Y6604761D01*
X7471428Y6700000D01*
X7328571Y6747619D01*
X7233333Y6747619D01*
X7090476Y6700000D01*
X7042857Y6652380D01*
X6090476Y5747619D02*
X6661904Y5747619D01*
X6376190Y5747619D02*
X6376190Y6747619D01*
X6471428Y6604761D01*
X6566666Y6509523D01*
X6661904Y6461904D01*
X5471428Y6747619D02*
X5376190Y6747619D01*
X5280952Y6700000D01*
X5233333Y6652380D01*
X5185714Y6557142D01*
X5138095Y6366666D01*
X5138095Y6128571D01*
X5185714Y5938095D01*
X5233333Y5842857D01*
X5280952Y5795238D01*
X5376190Y5747619D01*
X5471428Y5747619D01*
X5566666Y5795238D01*
X5614285Y5842857D01*
X5661904Y5938095D01*
X5709523Y6128571D01*
X5709523Y6366666D01*
X5661904Y6557142D01*
X5614285Y6652380D01*
X5566666Y6700000D01*
X5471428Y6747619D01*
X-12081904Y9847619D02*
X-12081904Y10847619D01*
X-12320000Y10847619D01*
X-12462857Y10800000D01*
X-12558095Y10704761D01*
X-12605714Y10609523D01*
X-12653333Y10419047D01*
X-12653333Y10276190D01*
X-12605714Y10085714D01*
X-12558095Y9990476D01*
X-12462857Y9895238D01*
X-12320000Y9847619D01*
X-12081904Y9847619D01*
X-13510476Y10514285D02*
X-13510476Y9847619D01*
X-13272380Y10895238D02*
X-13034285Y10180952D01*
X-13653333Y10180952D01*
X-11461904Y-12052380D02*
X-11461904Y-11052380D01*
X-11700000Y-11052380D01*
X-11842857Y-11100000D01*
X-11938095Y-11195238D01*
X-11985714Y-11290476D01*
X-12033333Y-11480952D01*
X-12033333Y-11623809D01*
X-11985714Y-11814285D01*
X-11938095Y-11909523D01*
X-11842857Y-12004761D01*
X-11700000Y-12052380D01*
X-11461904Y-12052380D01*
X-12366666Y-11052380D02*
X-12985714Y-11052380D01*
X-12652380Y-11433333D01*
X-12795238Y-11433333D01*
X-12890476Y-11480952D01*
X-12938095Y-11528571D01*
X-12985714Y-11623809D01*
X-12985714Y-11861904D01*
X-12938095Y-11957142D01*
X-12890476Y-12004761D01*
X-12795238Y-12052380D01*
X-12509523Y-12052380D01*
X-12414285Y-12004761D01*
X-12366666Y-11957142D01*
X27452380Y-2661904D02*
X28261904Y-2661904D01*
X28357142Y-2709523D01*
X28404761Y-2757142D01*
X28452380Y-2852380D01*
X28452380Y-3042857D01*
X28404761Y-3138095D01*
X28357142Y-3185714D01*
X28261904Y-3233333D01*
X27452380Y-3233333D01*
X27547619Y-3661904D02*
X27500000Y-3709523D01*
X27452380Y-3804761D01*
X27452380Y-4042857D01*
X27500000Y-4138095D01*
X27547619Y-4185714D01*
X27642857Y-4233333D01*
X27738095Y-4233333D01*
X27880952Y-4185714D01*
X28452380Y-3614285D01*
X28452380Y-4233333D01*
X27452380Y-4852380D02*
X27452380Y-4947619D01*
X27500000Y-5042857D01*
X27547619Y-5090476D01*
X27642857Y-5138095D01*
X27833333Y-5185714D01*
X28071428Y-5185714D01*
X28261904Y-5138095D01*
X28357142Y-5090476D01*
X28404761Y-5042857D01*
X28452380Y-4947619D01*
X28452380Y-4852380D01*
X28404761Y-4757142D01*
X28357142Y-4709523D01*
X28261904Y-4661904D01*
X28071428Y-4614285D01*
X27833333Y-4614285D01*
X27642857Y-4661904D01*
X27547619Y-4709523D01*
X27500000Y-4757142D01*
X27452380Y-4852380D01*
X-30190476Y-10928571D02*
X-29857142Y-10928571D01*
X-29857142Y-11452380D02*
X-29857142Y-10452380D01*
X-30333333Y-10452380D01*
X-31238095Y-11452380D02*
X-30666666Y-11452380D01*
X-30952380Y-11452380D02*
X-30952380Y-10452380D01*
X-30857142Y-10595238D01*
X-30761904Y-10690476D01*
X-30666666Y-10738095D01*
X-31619047Y-10547619D02*
X-31666666Y-10500000D01*
X-31761904Y-10452380D01*
X-32000000Y-10452380D01*
X-32095238Y-10500000D01*
X-32142857Y-10547619D01*
X-32190476Y-10642857D01*
X-32190476Y-10738095D01*
X-32142857Y-10880952D01*
X-31571428Y-11452380D01*
X-32190476Y-11452380D01*
X-957142Y-12852380D02*
X-623809Y-12376190D01*
X-385714Y-12852380D02*
X-385714Y-11852380D01*
X-766666Y-11852380D01*
X-861904Y-11900000D01*
X-909523Y-11947619D01*
X-957142Y-12042857D01*
X-957142Y-12185714D01*
X-909523Y-12280952D01*
X-861904Y-12328571D01*
X-766666Y-12376190D01*
X-385714Y-12376190D01*
X-1290476Y-11852380D02*
X-1909523Y-11852380D01*
X-1576190Y-12233333D01*
X-1719047Y-12233333D01*
X-1814285Y-12280952D01*
X-1861904Y-12328571D01*
X-1909523Y-12423809D01*
X-1909523Y-12661904D01*
X-1861904Y-12757142D01*
X-1814285Y-12804761D01*
X-1719047Y-12852380D01*
X-1433333Y-12852380D01*
X-1338095Y-12804761D01*
X-1290476Y-12757142D01*
X-2290476Y-11947619D02*
X-2338095Y-11900000D01*
X-2433333Y-11852380D01*
X-2671428Y-11852380D01*
X-2766666Y-11900000D01*
X-2814285Y-11947619D01*
X-2861904Y-12042857D01*
X-2861904Y-12138095D01*
X-2814285Y-12280952D01*
X-2242857Y-12852380D01*
X-2861904Y-12852380D01*
X36252380Y-6857142D02*
X35776190Y-6523809D01*
X36252380Y-6285714D02*
X35252380Y-6285714D01*
X35252380Y-6666666D01*
X35300000Y-6761904D01*
X35347619Y-6809523D01*
X35442857Y-6857142D01*
X35585714Y-6857142D01*
X35680952Y-6809523D01*
X35728571Y-6761904D01*
X35776190Y-6666666D01*
X35776190Y-6285714D01*
X35252380Y-7190476D02*
X35252380Y-7809523D01*
X35633333Y-7476190D01*
X35633333Y-7619047D01*
X35680952Y-7714285D01*
X35728571Y-7761904D01*
X35823809Y-7809523D01*
X36061904Y-7809523D01*
X36157142Y-7761904D01*
X36204761Y-7714285D01*
X36252380Y-7619047D01*
X36252380Y-7333333D01*
X36204761Y-7238095D01*
X36157142Y-7190476D01*
X36252380Y-8761904D02*
X36252380Y-8190476D01*
X36252380Y-8476190D02*
X35252380Y-8476190D01*
X35395238Y-8380952D01*
X35490476Y-8285714D01*
X35538095Y-8190476D01*
X-35347619Y8442857D02*
X-35823809Y8776190D01*
X-35347619Y9014285D02*
X-36347619Y9014285D01*
X-36347619Y8633333D01*
X-36300000Y8538095D01*
X-36252380Y8490476D01*
X-36157142Y8442857D01*
X-36014285Y8442857D01*
X-35919047Y8490476D01*
X-35871428Y8538095D01*
X-35823809Y8633333D01*
X-35823809Y9014285D01*
X-36347619Y8109523D02*
X-36347619Y7490476D01*
X-35966666Y7823809D01*
X-35966666Y7680952D01*
X-35919047Y7585714D01*
X-35871428Y7538095D01*
X-35776190Y7490476D01*
X-35538095Y7490476D01*
X-35442857Y7538095D01*
X-35395238Y7585714D01*
X-35347619Y7680952D01*
X-35347619Y7966666D01*
X-35395238Y8061904D01*
X-35442857Y8109523D01*
X-36347619Y6871428D02*
X-36347619Y6776190D01*
X-36300000Y6680952D01*
X-36252380Y6633333D01*
X-36157142Y6585714D01*
X-35966666Y6538095D01*
X-35728571Y6538095D01*
X-35538095Y6585714D01*
X-35442857Y6633333D01*
X-35395238Y6680952D01*
X-35347619Y6776190D01*
X-35347619Y6871428D01*
X-35395238Y6966666D01*
X-35442857Y7014285D01*
X-35538095Y7061904D01*
X-35728571Y7109523D01*
X-35966666Y7109523D01*
X-36157142Y7061904D01*
X-36252380Y7014285D01*
X-36300000Y6966666D01*
X-36347619Y6871428D01*
X24777380Y10948809D02*
X24777380Y10472619D01*
X25110714Y11472619D02*
X24777380Y10948809D01*
X24444047Y11472619D01*
X24158333Y11377380D02*
X24110714Y11425000D01*
X24015476Y11472619D01*
X23777380Y11472619D01*
X23682142Y11425000D01*
X23634523Y11377380D01*
X23586904Y11282142D01*
X23586904Y11186904D01*
X23634523Y11044047D01*
X24205952Y10472619D01*
X23586904Y10472619D01*
X22634523Y10472619D02*
X23205952Y10472619D01*
X22920238Y10472619D02*
X22920238Y11472619D01*
X23015476Y11329761D01*
X23110714Y11234523D01*
X23205952Y11186904D01*
X7902380Y13638095D02*
X8711904Y13638095D01*
X8807142Y13590476D01*
X8854761Y13542857D01*
X8902380Y13447619D01*
X8902380Y13257142D01*
X8854761Y13161904D01*
X8807142Y13114285D01*
X8711904Y13066666D01*
X7902380Y13066666D01*
X8902380Y12066666D02*
X8902380Y12638095D01*
X8902380Y12352380D02*
X7902380Y12352380D01*
X8045238Y12447619D01*
X8140476Y12542857D01*
X8188095Y12638095D01*
X7902380Y11447619D02*
X7902380Y11352380D01*
X7950000Y11257142D01*
X7997619Y11209523D01*
X8092857Y11161904D01*
X8283333Y11114285D01*
X8521428Y11114285D01*
X8711904Y11161904D01*
X8807142Y11209523D01*
X8854761Y11257142D01*
X8902380Y11352380D01*
X8902380Y11447619D01*
X8854761Y11542857D01*
X8807142Y11590476D01*
X8711904Y11638095D01*
X8521428Y11685714D01*
X8283333Y11685714D01*
X8092857Y11638095D01*
X7997619Y11590476D01*
X7950000Y11542857D01*
X7902380Y11447619D01*
X29742857Y1272619D02*
X30076190Y1748809D01*
X30314285Y1272619D02*
X30314285Y2272619D01*
X29933333Y2272619D01*
X29838095Y2225000D01*
X29790476Y2177380D01*
X29742857Y2082142D01*
X29742857Y1939285D01*
X29790476Y1844047D01*
X29838095Y1796428D01*
X29933333Y1748809D01*
X30314285Y1748809D01*
X29409523Y2272619D02*
X28742857Y2272619D01*
X29171428Y1272619D01*
X28314285Y1272619D02*
X28123809Y1272619D01*
X28028571Y1320238D01*
X27980952Y1367857D01*
X27885714Y1510714D01*
X27838095Y1701190D01*
X27838095Y2082142D01*
X27885714Y2177380D01*
X27933333Y2225000D01*
X28028571Y2272619D01*
X28219047Y2272619D01*
X28314285Y2225000D01*
X28361904Y2177380D01*
X28409523Y2082142D01*
X28409523Y1844047D01*
X28361904Y1748809D01*
X28314285Y1701190D01*
X28219047Y1653571D01*
X28028571Y1653571D01*
X27933333Y1701190D01*
X27885714Y1748809D01*
X27838095Y1844047D01*
X35952380Y12742857D02*
X35476190Y13076190D01*
X35952380Y13314285D02*
X34952380Y13314285D01*
X34952380Y12933333D01*
X35000000Y12838095D01*
X35047619Y12790476D01*
X35142857Y12742857D01*
X35285714Y12742857D01*
X35380952Y12790476D01*
X35428571Y12838095D01*
X35476190Y12933333D01*
X35476190Y13314285D01*
X34952380Y12409523D02*
X34952380Y11742857D01*
X35952380Y12171428D01*
X35047619Y11409523D02*
X35000000Y11361904D01*
X34952380Y11266666D01*
X34952380Y11028571D01*
X35000000Y10933333D01*
X35047619Y10885714D01*
X35142857Y10838095D01*
X35238095Y10838095D01*
X35380952Y10885714D01*
X35952380Y11457142D01*
X35952380Y10838095D01*
X12642857Y17947619D02*
X12976190Y18423809D01*
X13214285Y17947619D02*
X13214285Y18947619D01*
X12833333Y18947619D01*
X12738095Y18900000D01*
X12690476Y18852380D01*
X12642857Y18757142D01*
X12642857Y18614285D01*
X12690476Y18519047D01*
X12738095Y18471428D01*
X12833333Y18423809D01*
X13214285Y18423809D01*
X11738095Y18947619D02*
X12214285Y18947619D01*
X12261904Y18471428D01*
X12214285Y18519047D01*
X12119047Y18566666D01*
X11880952Y18566666D01*
X11785714Y18519047D01*
X11738095Y18471428D01*
X11690476Y18376190D01*
X11690476Y18138095D01*
X11738095Y18042857D01*
X11785714Y17995238D01*
X11880952Y17947619D01*
X12119047Y17947619D01*
X12214285Y17995238D01*
X12261904Y18042857D01*
X11309523Y18852380D02*
X11261904Y18900000D01*
X11166666Y18947619D01*
X10928571Y18947619D01*
X10833333Y18900000D01*
X10785714Y18852380D01*
X10738095Y18757142D01*
X10738095Y18661904D01*
X10785714Y18519047D01*
X11357142Y17947619D01*
X10738095Y17947619D01*
X11942857Y4547619D02*
X12276190Y5023809D01*
X12514285Y4547619D02*
X12514285Y5547619D01*
X12133333Y5547619D01*
X12038095Y5500000D01*
X11990476Y5452380D01*
X11942857Y5357142D01*
X11942857Y5214285D01*
X11990476Y5119047D01*
X12038095Y5071428D01*
X12133333Y5023809D01*
X12514285Y5023809D01*
X11038095Y5547619D02*
X11514285Y5547619D01*
X11561904Y5071428D01*
X11514285Y5119047D01*
X11419047Y5166666D01*
X11180952Y5166666D01*
X11085714Y5119047D01*
X11038095Y5071428D01*
X10990476Y4976190D01*
X10990476Y4738095D01*
X11038095Y4642857D01*
X11085714Y4595238D01*
X11180952Y4547619D01*
X11419047Y4547619D01*
X11514285Y4595238D01*
X11561904Y4642857D01*
X10038095Y4547619D02*
X10609523Y4547619D01*
X10323809Y4547619D02*
X10323809Y5547619D01*
X10419047Y5404761D01*
X10514285Y5309523D01*
X10609523Y5261904D01*
X-16857142Y9847619D02*
X-16523809Y10323809D01*
X-16285714Y9847619D02*
X-16285714Y10847619D01*
X-16666666Y10847619D01*
X-16761904Y10800000D01*
X-16809523Y10752380D01*
X-16857142Y10657142D01*
X-16857142Y10514285D01*
X-16809523Y10419047D01*
X-16761904Y10371428D01*
X-16666666Y10323809D01*
X-16285714Y10323809D01*
X-17714285Y10514285D02*
X-17714285Y9847619D01*
X-17476190Y10895238D02*
X-17238095Y10180952D01*
X-17857142Y10180952D01*
X-18190476Y10752380D02*
X-18238095Y10800000D01*
X-18333333Y10847619D01*
X-18571428Y10847619D01*
X-18666666Y10800000D01*
X-18714285Y10752380D01*
X-18761904Y10657142D01*
X-18761904Y10561904D01*
X-18714285Y10419047D01*
X-18142857Y9847619D01*
X-18761904Y9847619D01*
X17152857Y-14042380D02*
X17486190Y-13566190D01*
X17724285Y-14042380D02*
X17724285Y-13042380D01*
X17343333Y-13042380D01*
X17248095Y-13090000D01*
X17200476Y-13137619D01*
X17152857Y-13232857D01*
X17152857Y-13375714D01*
X17200476Y-13470952D01*
X17248095Y-13518571D01*
X17343333Y-13566190D01*
X17724285Y-13566190D01*
X16200476Y-14042380D02*
X16771904Y-14042380D01*
X16486190Y-14042380D02*
X16486190Y-13042380D01*
X16581428Y-13185238D01*
X16676666Y-13280476D01*
X16771904Y-13328095D01*
X15724285Y-14042380D02*
X15533809Y-14042380D01*
X15438571Y-13994761D01*
X15390952Y-13947142D01*
X15295714Y-13804285D01*
X15248095Y-13613809D01*
X15248095Y-13232857D01*
X15295714Y-13137619D01*
X15343333Y-13090000D01*
X15438571Y-13042380D01*
X15629047Y-13042380D01*
X15724285Y-13090000D01*
X15771904Y-13137619D01*
X15819523Y-13232857D01*
X15819523Y-13470952D01*
X15771904Y-13566190D01*
X15724285Y-13613809D01*
X15629047Y-13661428D01*
X15438571Y-13661428D01*
X15343333Y-13613809D01*
X15295714Y-13566190D01*
X15248095Y-13470952D01*
X22232857Y-14042380D02*
X22566190Y-13566190D01*
X22804285Y-14042380D02*
X22804285Y-13042380D01*
X22423333Y-13042380D01*
X22328095Y-13090000D01*
X22280476Y-13137619D01*
X22232857Y-13232857D01*
X22232857Y-13375714D01*
X22280476Y-13470952D01*
X22328095Y-13518571D01*
X22423333Y-13566190D01*
X22804285Y-13566190D01*
X21280476Y-14042380D02*
X21851904Y-14042380D01*
X21566190Y-14042380D02*
X21566190Y-13042380D01*
X21661428Y-13185238D01*
X21756666Y-13280476D01*
X21851904Y-13328095D01*
X20709047Y-13470952D02*
X20804285Y-13423333D01*
X20851904Y-13375714D01*
X20899523Y-13280476D01*
X20899523Y-13232857D01*
X20851904Y-13137619D01*
X20804285Y-13090000D01*
X20709047Y-13042380D01*
X20518571Y-13042380D01*
X20423333Y-13090000D01*
X20375714Y-13137619D01*
X20328095Y-13232857D01*
X20328095Y-13280476D01*
X20375714Y-13375714D01*
X20423333Y-13423333D01*
X20518571Y-13470952D01*
X20709047Y-13470952D01*
X20804285Y-13518571D01*
X20851904Y-13566190D01*
X20899523Y-13661428D01*
X20899523Y-13851904D01*
X20851904Y-13947142D01*
X20804285Y-13994761D01*
X20709047Y-14042380D01*
X20518571Y-14042380D01*
X20423333Y-13994761D01*
X20375714Y-13947142D01*
X20328095Y-13851904D01*
X20328095Y-13661428D01*
X20375714Y-13566190D01*
X20423333Y-13518571D01*
X20518571Y-13470952D01*
X-33057142Y12897619D02*
X-32723809Y13373809D01*
X-32485714Y12897619D02*
X-32485714Y13897619D01*
X-32866666Y13897619D01*
X-32961904Y13850000D01*
X-33009523Y13802380D01*
X-33057142Y13707142D01*
X-33057142Y13564285D01*
X-33009523Y13469047D01*
X-32961904Y13421428D01*
X-32866666Y13373809D01*
X-32485714Y13373809D01*
X-34009523Y12897619D02*
X-33438095Y12897619D01*
X-33723809Y12897619D02*
X-33723809Y13897619D01*
X-33628571Y13754761D01*
X-33533333Y13659523D01*
X-33438095Y13611904D01*
X-34390476Y13802380D02*
X-34438095Y13850000D01*
X-34533333Y13897619D01*
X-34771428Y13897619D01*
X-34866666Y13850000D01*
X-34914285Y13802380D01*
X-34961904Y13707142D01*
X-34961904Y13611904D01*
X-34914285Y13469047D01*
X-34342857Y12897619D01*
X-34961904Y12897619D01*
X27142857Y-18252380D02*
X27476190Y-17776190D01*
X27714285Y-18252380D02*
X27714285Y-17252380D01*
X27333333Y-17252380D01*
X27238095Y-17300000D01*
X27190476Y-17347619D01*
X27142857Y-17442857D01*
X27142857Y-17585714D01*
X27190476Y-17680952D01*
X27238095Y-17728571D01*
X27333333Y-17776190D01*
X27714285Y-17776190D01*
X26190476Y-18252380D02*
X26761904Y-18252380D01*
X26476190Y-18252380D02*
X26476190Y-17252380D01*
X26571428Y-17395238D01*
X26666666Y-17490476D01*
X26761904Y-17538095D01*
X25238095Y-18252380D02*
X25809523Y-18252380D01*
X25523809Y-18252380D02*
X25523809Y-17252380D01*
X25619047Y-17395238D01*
X25714285Y-17490476D01*
X25809523Y-17538095D01*
X27142857Y-14752380D02*
X27476190Y-14276190D01*
X27714285Y-14752380D02*
X27714285Y-13752380D01*
X27333333Y-13752380D01*
X27238095Y-13800000D01*
X27190476Y-13847619D01*
X27142857Y-13942857D01*
X27142857Y-14085714D01*
X27190476Y-14180952D01*
X27238095Y-14228571D01*
X27333333Y-14276190D01*
X27714285Y-14276190D01*
X26190476Y-14752380D02*
X26761904Y-14752380D01*
X26476190Y-14752380D02*
X26476190Y-13752380D01*
X26571428Y-13895238D01*
X26666666Y-13990476D01*
X26761904Y-14038095D01*
X25571428Y-13752380D02*
X25476190Y-13752380D01*
X25380952Y-13800000D01*
X25333333Y-13847619D01*
X25285714Y-13942857D01*
X25238095Y-14133333D01*
X25238095Y-14371428D01*
X25285714Y-14561904D01*
X25333333Y-14657142D01*
X25380952Y-14704761D01*
X25476190Y-14752380D01*
X25571428Y-14752380D01*
X25666666Y-14704761D01*
X25714285Y-14657142D01*
X25761904Y-14561904D01*
X25809523Y-14371428D01*
X25809523Y-14133333D01*
X25761904Y-13942857D01*
X25714285Y-13847619D01*
X25666666Y-13800000D01*
X25571428Y-13752380D01*
X1766666Y13447619D02*
X2100000Y13923809D01*
X2338095Y13447619D02*
X2338095Y14447619D01*
X1957142Y14447619D01*
X1861904Y14400000D01*
X1814285Y14352380D01*
X1766666Y14257142D01*
X1766666Y14114285D01*
X1814285Y14019047D01*
X1861904Y13971428D01*
X1957142Y13923809D01*
X2338095Y13923809D01*
X1433333Y14447619D02*
X766666Y14447619D01*
X1195238Y13447619D01*
X11866666Y-14752380D02*
X12200000Y-14276190D01*
X12438095Y-14752380D02*
X12438095Y-13752380D01*
X12057142Y-13752380D01*
X11961904Y-13800000D01*
X11914285Y-13847619D01*
X11866666Y-13942857D01*
X11866666Y-14085714D01*
X11914285Y-14180952D01*
X11961904Y-14228571D01*
X12057142Y-14276190D01*
X12438095Y-14276190D01*
X10961904Y-13752380D02*
X11438095Y-13752380D01*
X11485714Y-14228571D01*
X11438095Y-14180952D01*
X11342857Y-14133333D01*
X11104761Y-14133333D01*
X11009523Y-14180952D01*
X10961904Y-14228571D01*
X10914285Y-14323809D01*
X10914285Y-14561904D01*
X10961904Y-14657142D01*
X11009523Y-14704761D01*
X11104761Y-14752380D01*
X11342857Y-14752380D01*
X11438095Y-14704761D01*
X11485714Y-14657142D01*
X36366666Y3347619D02*
X36700000Y3823809D01*
X36938095Y3347619D02*
X36938095Y4347619D01*
X36557142Y4347619D01*
X36461904Y4300000D01*
X36414285Y4252380D01*
X36366666Y4157142D01*
X36366666Y4014285D01*
X36414285Y3919047D01*
X36461904Y3871428D01*
X36557142Y3823809D01*
X36938095Y3823809D01*
X35509523Y4014285D02*
X35509523Y3347619D01*
X35747619Y4395238D02*
X35985714Y3680952D01*
X35366666Y3680952D01*
X8266666Y-9492380D02*
X8600000Y-9016190D01*
X8838095Y-9492380D02*
X8838095Y-8492380D01*
X8457142Y-8492380D01*
X8361904Y-8540000D01*
X8314285Y-8587619D01*
X8266666Y-8682857D01*
X8266666Y-8825714D01*
X8314285Y-8920952D01*
X8361904Y-8968571D01*
X8457142Y-9016190D01*
X8838095Y-9016190D01*
X7933333Y-8492380D02*
X7314285Y-8492380D01*
X7647619Y-8873333D01*
X7504761Y-8873333D01*
X7409523Y-8920952D01*
X7361904Y-8968571D01*
X7314285Y-9063809D01*
X7314285Y-9301904D01*
X7361904Y-9397142D01*
X7409523Y-9444761D01*
X7504761Y-9492380D01*
X7790476Y-9492380D01*
X7885714Y-9444761D01*
X7933333Y-9397142D01*
X-7433333Y-12552380D02*
X-7100000Y-12076190D01*
X-6861904Y-12552380D02*
X-6861904Y-11552380D01*
X-7242857Y-11552380D01*
X-7338095Y-11600000D01*
X-7385714Y-11647619D01*
X-7433333Y-11742857D01*
X-7433333Y-11885714D01*
X-7385714Y-11980952D01*
X-7338095Y-12028571D01*
X-7242857Y-12076190D01*
X-6861904Y-12076190D01*
X-7814285Y-11647619D02*
X-7861904Y-11600000D01*
X-7957142Y-11552380D01*
X-8195238Y-11552380D01*
X-8290476Y-11600000D01*
X-8338095Y-11647619D01*
X-8385714Y-11742857D01*
X-8385714Y-11838095D01*
X-8338095Y-11980952D01*
X-7766666Y-12552380D01*
X-8385714Y-12552380D01*
X35966666Y15547619D02*
X36300000Y16023809D01*
X36538095Y15547619D02*
X36538095Y16547619D01*
X36157142Y16547619D01*
X36061904Y16500000D01*
X36014285Y16452380D01*
X35966666Y16357142D01*
X35966666Y16214285D01*
X36014285Y16119047D01*
X36061904Y16071428D01*
X36157142Y16023809D01*
X36538095Y16023809D01*
X35014285Y15547619D02*
X35585714Y15547619D01*
X35300000Y15547619D02*
X35300000Y16547619D01*
X35395238Y16404761D01*
X35490476Y16309523D01*
X35585714Y16261904D01*
X33171428Y9552380D02*
X33266666Y9600000D01*
X33361904Y9695238D01*
X33504761Y9838095D01*
X33600000Y9885714D01*
X33695238Y9885714D01*
X33647619Y9647619D02*
X33742857Y9695238D01*
X33838095Y9790476D01*
X33885714Y9980952D01*
X33885714Y10314285D01*
X33838095Y10504761D01*
X33742857Y10600000D01*
X33647619Y10647619D01*
X33457142Y10647619D01*
X33361904Y10600000D01*
X33266666Y10504761D01*
X33219047Y10314285D01*
X33219047Y9980952D01*
X33266666Y9790476D01*
X33361904Y9695238D01*
X33457142Y9647619D01*
X33647619Y9647619D01*
X32885714Y10647619D02*
X32219047Y10647619D01*
X32647619Y9647619D01*
X31314285Y9647619D02*
X31885714Y9647619D01*
X31600000Y9647619D02*
X31600000Y10647619D01*
X31695238Y10504761D01*
X31790476Y10409523D01*
X31885714Y10361904D01*
X12171428Y13652380D02*
X12266666Y13700000D01*
X12361904Y13795238D01*
X12504761Y13938095D01*
X12600000Y13985714D01*
X12695238Y13985714D01*
X12647619Y13747619D02*
X12742857Y13795238D01*
X12838095Y13890476D01*
X12885714Y14080952D01*
X12885714Y14414285D01*
X12838095Y14604761D01*
X12742857Y14700000D01*
X12647619Y14747619D01*
X12457142Y14747619D01*
X12361904Y14700000D01*
X12266666Y14604761D01*
X12219047Y14414285D01*
X12219047Y14080952D01*
X12266666Y13890476D01*
X12361904Y13795238D01*
X12457142Y13747619D01*
X12647619Y13747619D01*
X11314285Y14747619D02*
X11790476Y14747619D01*
X11838095Y14271428D01*
X11790476Y14319047D01*
X11695238Y14366666D01*
X11457142Y14366666D01*
X11361904Y14319047D01*
X11314285Y14271428D01*
X11266666Y14176190D01*
X11266666Y13938095D01*
X11314285Y13842857D01*
X11361904Y13795238D01*
X11457142Y13747619D01*
X11695238Y13747619D01*
X11790476Y13795238D01*
X11838095Y13842857D01*
X10314285Y13747619D02*
X10885714Y13747619D01*
X10600000Y13747619D02*
X10600000Y14747619D01*
X10695238Y14604761D01*
X10790476Y14509523D01*
X10885714Y14461904D01*
X44352380Y6609523D02*
X45066666Y6609523D01*
X45209523Y6657142D01*
X45304761Y6752380D01*
X45352380Y6895238D01*
X45352380Y6990476D01*
X45352380Y5609523D02*
X45352380Y6180952D01*
X45352380Y5895238D02*
X44352380Y5895238D01*
X44495238Y5990476D01*
X44590476Y6085714D01*
X44638095Y6180952D01*
X45352380Y5133333D02*
X45352380Y4942857D01*
X45304761Y4847619D01*
X45257142Y4800000D01*
X45114285Y4704761D01*
X44923809Y4657142D01*
X44542857Y4657142D01*
X44447619Y4704761D01*
X44400000Y4752380D01*
X44352380Y4847619D01*
X44352380Y5038095D01*
X44400000Y5133333D01*
X44447619Y5180952D01*
X44542857Y5228571D01*
X44780952Y5228571D01*
X44876190Y5180952D01*
X44923809Y5133333D01*
X44971428Y5038095D01*
X44971428Y4847619D01*
X44923809Y4752380D01*
X44876190Y4704761D01*
X44780952Y4657142D01*
D13*
X46926190Y1652380D02*
X46426190Y1652380D01*
X46426190Y1461904D01*
X46450000Y1414285D01*
X46473809Y1390476D01*
X46521428Y1366666D01*
X46592857Y1366666D01*
X46640476Y1390476D01*
X46664285Y1414285D01*
X46688095Y1461904D01*
X46688095Y1652380D01*
X46878571Y866666D02*
X46902380Y890476D01*
X46926190Y961904D01*
X46926190Y1009523D01*
X46902380Y1080952D01*
X46854761Y1128571D01*
X46807142Y1152380D01*
X46711904Y1176190D01*
X46640476Y1176190D01*
X46545238Y1152380D01*
X46497619Y1128571D01*
X46450000Y1080952D01*
X46426190Y1009523D01*
X46426190Y961904D01*
X46450000Y890476D01*
X46473809Y866666D01*
X46664285Y485714D02*
X46688095Y414285D01*
X46711904Y390476D01*
X46759523Y366666D01*
X46830952Y366666D01*
X46878571Y390476D01*
X46902380Y414285D01*
X46926190Y461904D01*
X46926190Y652380D01*
X46426190Y652380D01*
X46426190Y485714D01*
X46450000Y438095D01*
X46473809Y414285D01*
X46521428Y390476D01*
X46569047Y390476D01*
X46616666Y414285D01*
X46640476Y438095D01*
X46664285Y485714D01*
X46664285Y652380D01*
X46902380Y-419047D02*
X46926190Y-371428D01*
X46926190Y-276190D01*
X46902380Y-228571D01*
X46854761Y-204761D01*
X46664285Y-204761D01*
X46616666Y-228571D01*
X46592857Y-276190D01*
X46592857Y-371428D01*
X46616666Y-419047D01*
X46664285Y-442857D01*
X46711904Y-442857D01*
X46759523Y-204761D01*
X46926190Y-871428D02*
X46426190Y-871428D01*
X46902380Y-871428D02*
X46926190Y-823809D01*
X46926190Y-728571D01*
X46902380Y-680952D01*
X46878571Y-657142D01*
X46830952Y-633333D01*
X46688095Y-633333D01*
X46640476Y-657142D01*
X46616666Y-680952D01*
X46592857Y-728571D01*
X46592857Y-823809D01*
X46616666Y-871428D01*
X46592857Y-1323809D02*
X46997619Y-1323809D01*
X47045238Y-1300000D01*
X47069047Y-1276190D01*
X47092857Y-1228571D01*
X47092857Y-1157142D01*
X47069047Y-1109523D01*
X46902380Y-1323809D02*
X46926190Y-1276190D01*
X46926190Y-1180952D01*
X46902380Y-1133333D01*
X46878571Y-1109523D01*
X46830952Y-1085714D01*
X46688095Y-1085714D01*
X46640476Y-1109523D01*
X46616666Y-1133333D01*
X46592857Y-1180952D01*
X46592857Y-1276190D01*
X46616666Y-1323809D01*
X46902380Y-1752380D02*
X46926190Y-1704761D01*
X46926190Y-1609523D01*
X46902380Y-1561904D01*
X46854761Y-1538095D01*
X46664285Y-1538095D01*
X46616666Y-1561904D01*
X46592857Y-1609523D01*
X46592857Y-1704761D01*
X46616666Y-1752380D01*
X46664285Y-1776190D01*
X46711904Y-1776190D01*
X46759523Y-1538095D01*
D11*
X31209523Y-7928571D02*
X31542857Y-7928571D01*
X31542857Y-8452380D02*
X31542857Y-7452380D01*
X31066666Y-7452380D01*
X30161904Y-8452380D02*
X30733333Y-8452380D01*
X30447619Y-8452380D02*
X30447619Y-7452380D01*
X30542857Y-7595238D01*
X30638095Y-7690476D01*
X30733333Y-7738095D01*
X29209523Y-8452380D02*
X29780952Y-8452380D01*
X29495238Y-8452380D02*
X29495238Y-7452380D01*
X29590476Y-7595238D01*
X29685714Y-7690476D01*
X29780952Y-7738095D01*
X-42147619Y-2785714D02*
X-43147619Y-2785714D01*
X-43147619Y-3023809D01*
X-43100000Y-3166666D01*
X-43004761Y-3261904D01*
X-42909523Y-3309523D01*
X-42719047Y-3357142D01*
X-42576190Y-3357142D01*
X-42385714Y-3309523D01*
X-42290476Y-3261904D01*
X-42195238Y-3166666D01*
X-42147619Y-3023809D01*
X-42147619Y-2785714D01*
X-43147619Y-4261904D02*
X-43147619Y-3785714D01*
X-42671428Y-3738095D01*
X-42719047Y-3785714D01*
X-42766666Y-3880952D01*
X-42766666Y-4119047D01*
X-42719047Y-4214285D01*
X-42671428Y-4261904D01*
X-42576190Y-4309523D01*
X-42338095Y-4309523D01*
X-42242857Y-4261904D01*
X-42195238Y-4214285D01*
X-42147619Y-4119047D01*
X-42147619Y-3880952D01*
X-42195238Y-3785714D01*
X-42242857Y-3738095D01*
X-42147619Y-5261904D02*
X-42147619Y-4690476D01*
X-42147619Y-4976190D02*
X-43147619Y-4976190D01*
X-43004761Y-4880952D01*
X-42909523Y-4785714D01*
X-42861904Y-4690476D01*
X-32385714Y16497619D02*
X-32385714Y17497619D01*
X-32623809Y17497619D01*
X-32766666Y17450000D01*
X-32861904Y17354761D01*
X-32909523Y17259523D01*
X-32957142Y17069047D01*
X-32957142Y16926190D01*
X-32909523Y16735714D01*
X-32861904Y16640476D01*
X-32766666Y16545238D01*
X-32623809Y16497619D01*
X-32385714Y16497619D01*
X-33909523Y16497619D02*
X-33338095Y16497619D01*
X-33623809Y16497619D02*
X-33623809Y17497619D01*
X-33528571Y17354761D01*
X-33433333Y17259523D01*
X-33338095Y17211904D01*
X-34290476Y17402380D02*
X-34338095Y17450000D01*
X-34433333Y17497619D01*
X-34671428Y17497619D01*
X-34766666Y17450000D01*
X-34814285Y17402380D01*
X-34861904Y17307142D01*
X-34861904Y17211904D01*
X-34814285Y17069047D01*
X-34242857Y16497619D01*
X-34861904Y16497619D01*
X23014285Y14947619D02*
X23014285Y15947619D01*
X22776190Y15947619D01*
X22633333Y15900000D01*
X22538095Y15804761D01*
X22490476Y15709523D01*
X22442857Y15519047D01*
X22442857Y15376190D01*
X22490476Y15185714D01*
X22538095Y15090476D01*
X22633333Y14995238D01*
X22776190Y14947619D01*
X23014285Y14947619D01*
X21490476Y14947619D02*
X22061904Y14947619D01*
X21776190Y14947619D02*
X21776190Y15947619D01*
X21871428Y15804761D01*
X21966666Y15709523D01*
X22061904Y15661904D01*
X20871428Y15947619D02*
X20776190Y15947619D01*
X20680952Y15900000D01*
X20633333Y15852380D01*
X20585714Y15757142D01*
X20538095Y15566666D01*
X20538095Y15328571D01*
X20585714Y15138095D01*
X20633333Y15042857D01*
X20680952Y14995238D01*
X20776190Y14947619D01*
X20871428Y14947619D01*
X20966666Y14995238D01*
X21014285Y15042857D01*
X21061904Y15138095D01*
X21109523Y15328571D01*
X21109523Y15566666D01*
X21061904Y15757142D01*
X21014285Y15852380D01*
X20966666Y15900000D01*
X20871428Y15947619D01*
X3638095Y18947619D02*
X3638095Y19947619D01*
X3400000Y19947619D01*
X3257142Y19900000D01*
X3161904Y19804761D01*
X3114285Y19709523D01*
X3066666Y19519047D01*
X3066666Y19376190D01*
X3114285Y19185714D01*
X3161904Y19090476D01*
X3257142Y18995238D01*
X3400000Y18947619D01*
X3638095Y18947619D01*
X2733333Y19947619D02*
X2066666Y19947619D01*
X2495238Y18947619D01*
X36538095Y18247619D02*
X36538095Y19247619D01*
X36300000Y19247619D01*
X36157142Y19200000D01*
X36061904Y19104761D01*
X36014285Y19009523D01*
X35966666Y18819047D01*
X35966666Y18676190D01*
X36014285Y18485714D01*
X36061904Y18390476D01*
X36157142Y18295238D01*
X36300000Y18247619D01*
X36538095Y18247619D01*
X35061904Y19247619D02*
X35538095Y19247619D01*
X35585714Y18771428D01*
X35538095Y18819047D01*
X35442857Y18866666D01*
X35204761Y18866666D01*
X35109523Y18819047D01*
X35061904Y18771428D01*
X35014285Y18676190D01*
X35014285Y18438095D01*
X35061904Y18342857D01*
X35109523Y18295238D01*
X35204761Y18247619D01*
X35442857Y18247619D01*
X35538095Y18295238D01*
X35585714Y18342857D01*
X9628095Y-20232380D02*
X9628095Y-19232380D01*
X9390000Y-19232380D01*
X9247142Y-19280000D01*
X9151904Y-19375238D01*
X9104285Y-19470476D01*
X9056666Y-19660952D01*
X9056666Y-19803809D01*
X9104285Y-19994285D01*
X9151904Y-20089523D01*
X9247142Y-20184761D01*
X9390000Y-20232380D01*
X9628095Y-20232380D01*
X8675714Y-19327619D02*
X8628095Y-19280000D01*
X8532857Y-19232380D01*
X8294761Y-19232380D01*
X8199523Y-19280000D01*
X8151904Y-19327619D01*
X8104285Y-19422857D01*
X8104285Y-19518095D01*
X8151904Y-19660952D01*
X8723333Y-20232380D01*
X8104285Y-20232380D01*
X4972380Y-7541904D02*
X3972380Y-7541904D01*
X3972380Y-7780000D01*
X4020000Y-7922857D01*
X4115238Y-8018095D01*
X4210476Y-8065714D01*
X4400952Y-8113333D01*
X4543809Y-8113333D01*
X4734285Y-8065714D01*
X4829523Y-8018095D01*
X4924761Y-7922857D01*
X4972380Y-7780000D01*
X4972380Y-7541904D01*
X4972380Y-9065714D02*
X4972380Y-8494285D01*
X4972380Y-8780000D02*
X3972380Y-8780000D01*
X4115238Y-8684761D01*
X4210476Y-8589523D01*
X4258095Y-8494285D01*
X20857142Y11966666D02*
X20904761Y12014285D01*
X20952380Y12157142D01*
X20952380Y12252380D01*
X20904761Y12395238D01*
X20809523Y12490476D01*
X20714285Y12538095D01*
X20523809Y12585714D01*
X20380952Y12585714D01*
X20190476Y12538095D01*
X20095238Y12490476D01*
X20000000Y12395238D01*
X19952380Y12252380D01*
X19952380Y12157142D01*
X20000000Y12014285D01*
X20047619Y11966666D01*
X20047619Y11585714D02*
X20000000Y11538095D01*
X19952380Y11442857D01*
X19952380Y11204761D01*
X20000000Y11109523D01*
X20047619Y11061904D01*
X20142857Y11014285D01*
X20238095Y11014285D01*
X20380952Y11061904D01*
X20952380Y11633333D01*
X20952380Y11014285D01*
X27757142Y12066666D02*
X27804761Y12114285D01*
X27852380Y12257142D01*
X27852380Y12352380D01*
X27804761Y12495238D01*
X27709523Y12590476D01*
X27614285Y12638095D01*
X27423809Y12685714D01*
X27280952Y12685714D01*
X27090476Y12638095D01*
X26995238Y12590476D01*
X26900000Y12495238D01*
X26852380Y12352380D01*
X26852380Y12257142D01*
X26900000Y12114285D01*
X26947619Y12066666D01*
X27852380Y11114285D02*
X27852380Y11685714D01*
X27852380Y11400000D02*
X26852380Y11400000D01*
X26995238Y11495238D01*
X27090476Y11590476D01*
X27138095Y11685714D01*
X-35227619Y-10357142D02*
X-35703809Y-10023809D01*
X-35227619Y-9785714D02*
X-36227619Y-9785714D01*
X-36227619Y-10166666D01*
X-36180000Y-10261904D01*
X-36132380Y-10309523D01*
X-36037142Y-10357142D01*
X-35894285Y-10357142D01*
X-35799047Y-10309523D01*
X-35751428Y-10261904D01*
X-35703809Y-10166666D01*
X-35703809Y-9785714D01*
X-36227619Y-10690476D02*
X-36227619Y-11357142D01*
X-35227619Y-10928571D01*
X-35227619Y-12261904D02*
X-35227619Y-11690476D01*
X-35227619Y-11976190D02*
X-36227619Y-11976190D01*
X-36084761Y-11880952D01*
X-35989523Y-11785714D01*
X-35941904Y-11690476D01*
M02*
