G04 #@! TF.GenerationSoftware,KiCad,Pcbnew,5.1.5+dfsg1-2build2*
G04 #@! TF.CreationDate,2021-05-27T17:25:40+02:00*
G04 #@! TF.ProjectId,board,626f6172-642e-46b6-9963-61645f706362,rev?*
G04 #@! TF.SameCoordinates,Original*
G04 #@! TF.FileFunction,Soldermask,Top*
G04 #@! TF.FilePolarity,Negative*
%FSLAX46Y46*%
G04 Gerber Fmt 4.6, Leading zero omitted, Abs format (unit mm)*
G04 Created by KiCad (PCBNEW 5.1.5+dfsg1-2build2) date 2021-05-27 17:25:40*
%MOMM*%
%LPD*%
G04 APERTURE LIST*
%ADD10C,0.100000*%
G04 APERTURE END LIST*
D10*
G36*
X161297382Y-149616266D02*
G01*
X161329527Y-149626018D01*
X161359155Y-149641854D01*
X161389897Y-149667083D01*
X161449537Y-149726723D01*
X161449548Y-149726732D01*
X162423268Y-150700452D01*
X162423277Y-150700463D01*
X162482917Y-150760103D01*
X162508146Y-150790845D01*
X162523982Y-150820473D01*
X162533734Y-150852618D01*
X162537026Y-150886051D01*
X162533734Y-150919484D01*
X162523982Y-150951629D01*
X162508146Y-150981257D01*
X162482917Y-151011999D01*
X162423277Y-151071639D01*
X162423268Y-151071650D01*
X161449548Y-152045370D01*
X161449537Y-152045379D01*
X161389897Y-152105019D01*
X161359155Y-152130248D01*
X161329527Y-152146084D01*
X161297382Y-152155836D01*
X161263949Y-152159128D01*
X161230516Y-152155836D01*
X161198371Y-152146084D01*
X161168743Y-152130248D01*
X161138001Y-152105019D01*
X161078361Y-152045379D01*
X161078350Y-152045370D01*
X160104630Y-151071650D01*
X160104621Y-151071639D01*
X160044981Y-151011999D01*
X160019752Y-150981257D01*
X160003916Y-150951629D01*
X159994164Y-150919484D01*
X159990872Y-150886051D01*
X159994164Y-150852618D01*
X160003916Y-150820473D01*
X160019752Y-150790845D01*
X160044981Y-150760103D01*
X160104621Y-150700463D01*
X160104630Y-150700452D01*
X161078350Y-149726732D01*
X161078361Y-149726723D01*
X161138001Y-149667083D01*
X161168743Y-149641854D01*
X161198371Y-149626018D01*
X161230516Y-149616266D01*
X161263949Y-149612974D01*
X161297382Y-149616266D01*
G37*
G36*
X93233446Y-149971597D02*
G01*
X93406517Y-150043285D01*
X93406518Y-150043286D01*
X93562278Y-150147361D01*
X93694741Y-150279824D01*
X93694742Y-150279826D01*
X93798817Y-150435585D01*
X93870505Y-150608656D01*
X93907051Y-150792384D01*
X93907051Y-150979718D01*
X93870505Y-151163446D01*
X93798817Y-151336517D01*
X93798816Y-151336518D01*
X93694741Y-151492278D01*
X93562278Y-151624741D01*
X93483869Y-151677132D01*
X93406517Y-151728817D01*
X93233446Y-151800505D01*
X93049718Y-151837051D01*
X92862384Y-151837051D01*
X92678656Y-151800505D01*
X92505585Y-151728817D01*
X92428233Y-151677132D01*
X92349824Y-151624741D01*
X92217361Y-151492278D01*
X92113286Y-151336518D01*
X92113285Y-151336517D01*
X92041597Y-151163446D01*
X92005051Y-150979718D01*
X92005051Y-150792384D01*
X92041597Y-150608656D01*
X92113285Y-150435585D01*
X92217360Y-150279826D01*
X92217361Y-150279824D01*
X92349824Y-150147361D01*
X92505584Y-150043286D01*
X92505585Y-150043285D01*
X92678656Y-149971597D01*
X92862384Y-149935051D01*
X93049718Y-149935051D01*
X93233446Y-149971597D01*
G37*
G36*
X148770547Y-148722326D02*
G01*
X148944156Y-148774990D01*
X148944158Y-148774991D01*
X149104155Y-148860511D01*
X149244397Y-148975603D01*
X149323729Y-149072271D01*
X149359489Y-149115844D01*
X149445010Y-149275843D01*
X149497674Y-149449452D01*
X149511000Y-149584756D01*
X149511000Y-150135243D01*
X149497674Y-150270548D01*
X149445010Y-150444157D01*
X149359489Y-150604156D01*
X149323729Y-150647729D01*
X149244397Y-150744397D01*
X149163240Y-150811000D01*
X149104156Y-150859489D01*
X148944157Y-150945010D01*
X148770548Y-150997674D01*
X148590000Y-151015456D01*
X148409453Y-150997674D01*
X148235844Y-150945010D01*
X148075845Y-150859489D01*
X148016761Y-150811000D01*
X147935604Y-150744397D01*
X147820513Y-150604157D01*
X147820512Y-150604155D01*
X147734990Y-150444157D01*
X147682326Y-150270548D01*
X147669000Y-150135244D01*
X147669000Y-149584757D01*
X147682326Y-149449453D01*
X147734990Y-149275844D01*
X147820511Y-149115845D01*
X147820513Y-149115843D01*
X147935603Y-148975603D01*
X148061388Y-148872375D01*
X148075844Y-148860511D01*
X148235843Y-148774990D01*
X148409452Y-148722326D01*
X148590000Y-148704544D01*
X148770547Y-148722326D01*
G37*
G36*
X119560548Y-148722326D02*
G01*
X119734157Y-148774990D01*
X119894156Y-148860511D01*
X119908612Y-148872375D01*
X120034397Y-148975603D01*
X120113729Y-149072271D01*
X120149489Y-149115844D01*
X120235010Y-149275843D01*
X120287674Y-149449452D01*
X120301000Y-149584757D01*
X120301000Y-150135244D01*
X120287674Y-150270548D01*
X120235010Y-150444157D01*
X120149489Y-150604156D01*
X120113729Y-150647729D01*
X120034397Y-150744397D01*
X119902527Y-150852618D01*
X119894155Y-150859489D01*
X119734156Y-150945010D01*
X119560547Y-150997674D01*
X119380000Y-151015456D01*
X119199452Y-150997674D01*
X119025843Y-150945010D01*
X118865844Y-150859489D01*
X118806760Y-150811000D01*
X118725603Y-150744397D01*
X118610511Y-150604155D01*
X118524991Y-150444158D01*
X118484436Y-150310467D01*
X118472326Y-150270547D01*
X118459000Y-150135243D01*
X118459000Y-149584756D01*
X118472326Y-149449452D01*
X118524990Y-149275843D01*
X118610512Y-149115844D01*
X118620832Y-149103269D01*
X118725604Y-148975603D01*
X118851389Y-148872375D01*
X118865845Y-148860511D01*
X119025844Y-148774990D01*
X119199453Y-148722326D01*
X119380000Y-148704544D01*
X119560548Y-148722326D01*
G37*
G36*
X133260548Y-148722326D02*
G01*
X133434157Y-148774990D01*
X133594156Y-148860511D01*
X133608612Y-148872375D01*
X133734397Y-148975603D01*
X133813729Y-149072271D01*
X133849489Y-149115844D01*
X133935010Y-149275843D01*
X133987674Y-149449452D01*
X134001000Y-149584757D01*
X134001000Y-150135244D01*
X133987674Y-150270548D01*
X133935010Y-150444157D01*
X133849489Y-150604156D01*
X133813729Y-150647729D01*
X133734397Y-150744397D01*
X133602527Y-150852618D01*
X133594155Y-150859489D01*
X133434156Y-150945010D01*
X133260547Y-150997674D01*
X133080000Y-151015456D01*
X132899452Y-150997674D01*
X132725843Y-150945010D01*
X132565844Y-150859489D01*
X132506760Y-150811000D01*
X132425603Y-150744397D01*
X132310511Y-150604155D01*
X132224991Y-150444158D01*
X132184436Y-150310467D01*
X132172326Y-150270547D01*
X132159000Y-150135243D01*
X132159000Y-149584756D01*
X132172326Y-149449452D01*
X132224990Y-149275843D01*
X132310512Y-149115844D01*
X132320832Y-149103269D01*
X132425604Y-148975603D01*
X132551389Y-148872375D01*
X132565845Y-148860511D01*
X132725844Y-148774990D01*
X132899453Y-148722326D01*
X133080000Y-148704544D01*
X133260548Y-148722326D01*
G37*
G36*
X105320548Y-148722326D02*
G01*
X105494157Y-148774990D01*
X105654156Y-148860511D01*
X105668612Y-148872375D01*
X105794397Y-148975603D01*
X105873729Y-149072271D01*
X105909489Y-149115844D01*
X105995010Y-149275843D01*
X106047674Y-149449452D01*
X106061000Y-149584757D01*
X106061000Y-150135244D01*
X106047674Y-150270548D01*
X105995010Y-150444157D01*
X105909489Y-150604156D01*
X105873729Y-150647729D01*
X105794397Y-150744397D01*
X105662527Y-150852618D01*
X105654155Y-150859489D01*
X105494156Y-150945010D01*
X105320547Y-150997674D01*
X105140000Y-151015456D01*
X104959452Y-150997674D01*
X104785843Y-150945010D01*
X104625844Y-150859489D01*
X104566760Y-150811000D01*
X104485603Y-150744397D01*
X104370511Y-150604155D01*
X104284991Y-150444158D01*
X104244436Y-150310467D01*
X104232326Y-150270547D01*
X104219000Y-150135243D01*
X104219000Y-149584756D01*
X104232326Y-149449452D01*
X104284990Y-149275843D01*
X104370512Y-149115844D01*
X104380832Y-149103269D01*
X104485604Y-148975603D01*
X104611389Y-148872375D01*
X104625845Y-148860511D01*
X104785844Y-148774990D01*
X104959453Y-148722326D01*
X105140000Y-148704544D01*
X105320548Y-148722326D01*
G37*
G36*
X117020548Y-148722326D02*
G01*
X117194157Y-148774990D01*
X117354156Y-148860511D01*
X117368612Y-148872375D01*
X117494397Y-148975603D01*
X117573729Y-149072271D01*
X117609489Y-149115844D01*
X117695010Y-149275843D01*
X117747674Y-149449452D01*
X117761000Y-149584757D01*
X117761000Y-150135244D01*
X117747674Y-150270548D01*
X117695010Y-150444157D01*
X117609489Y-150604156D01*
X117573729Y-150647729D01*
X117494397Y-150744397D01*
X117362527Y-150852618D01*
X117354155Y-150859489D01*
X117194156Y-150945010D01*
X117020547Y-150997674D01*
X116840000Y-151015456D01*
X116659452Y-150997674D01*
X116485843Y-150945010D01*
X116325844Y-150859489D01*
X116266760Y-150811000D01*
X116185603Y-150744397D01*
X116070511Y-150604155D01*
X115984991Y-150444158D01*
X115944436Y-150310467D01*
X115932326Y-150270547D01*
X115919000Y-150135243D01*
X115919000Y-149584756D01*
X115932326Y-149449452D01*
X115984990Y-149275843D01*
X116070512Y-149115844D01*
X116080832Y-149103269D01*
X116185604Y-148975603D01*
X116311389Y-148872375D01*
X116325845Y-148860511D01*
X116485844Y-148774990D01*
X116659453Y-148722326D01*
X116840000Y-148704544D01*
X117020548Y-148722326D01*
G37*
G36*
X143690547Y-148722326D02*
G01*
X143864156Y-148774990D01*
X143864158Y-148774991D01*
X144024155Y-148860511D01*
X144164397Y-148975603D01*
X144243729Y-149072271D01*
X144279489Y-149115844D01*
X144365010Y-149275843D01*
X144417674Y-149449452D01*
X144431000Y-149584756D01*
X144431000Y-150135243D01*
X144417674Y-150270548D01*
X144365010Y-150444157D01*
X144279489Y-150604156D01*
X144243729Y-150647729D01*
X144164397Y-150744397D01*
X144083240Y-150811000D01*
X144024156Y-150859489D01*
X143864157Y-150945010D01*
X143690548Y-150997674D01*
X143510000Y-151015456D01*
X143329453Y-150997674D01*
X143155844Y-150945010D01*
X142995845Y-150859489D01*
X142936761Y-150811000D01*
X142855604Y-150744397D01*
X142740513Y-150604157D01*
X142740512Y-150604155D01*
X142654990Y-150444157D01*
X142602326Y-150270548D01*
X142589000Y-150135244D01*
X142589000Y-149584757D01*
X142602326Y-149449453D01*
X142654990Y-149275844D01*
X142740511Y-149115845D01*
X142740513Y-149115843D01*
X142855603Y-148975603D01*
X142981388Y-148872375D01*
X142995844Y-148860511D01*
X143155843Y-148774990D01*
X143329452Y-148722326D01*
X143510000Y-148704544D01*
X143690547Y-148722326D01*
G37*
G36*
X146230547Y-148722326D02*
G01*
X146404156Y-148774990D01*
X146404158Y-148774991D01*
X146564155Y-148860511D01*
X146704397Y-148975603D01*
X146783729Y-149072271D01*
X146819489Y-149115844D01*
X146905010Y-149275843D01*
X146957674Y-149449452D01*
X146971000Y-149584756D01*
X146971000Y-150135243D01*
X146957674Y-150270548D01*
X146905010Y-150444157D01*
X146819489Y-150604156D01*
X146783729Y-150647729D01*
X146704397Y-150744397D01*
X146623240Y-150811000D01*
X146564156Y-150859489D01*
X146404157Y-150945010D01*
X146230548Y-150997674D01*
X146050000Y-151015456D01*
X145869453Y-150997674D01*
X145695844Y-150945010D01*
X145535845Y-150859489D01*
X145476761Y-150811000D01*
X145395604Y-150744397D01*
X145280513Y-150604157D01*
X145280512Y-150604155D01*
X145194990Y-150444157D01*
X145142326Y-150270548D01*
X145129000Y-150135244D01*
X145129000Y-149584757D01*
X145142326Y-149449453D01*
X145194990Y-149275844D01*
X145280511Y-149115845D01*
X145280513Y-149115843D01*
X145395603Y-148975603D01*
X145521388Y-148872375D01*
X145535844Y-148860511D01*
X145695843Y-148774990D01*
X145869452Y-148722326D01*
X146050000Y-148704544D01*
X146230547Y-148722326D01*
G37*
G36*
X114480548Y-148722326D02*
G01*
X114654157Y-148774990D01*
X114814156Y-148860511D01*
X114828612Y-148872375D01*
X114954397Y-148975603D01*
X115033729Y-149072271D01*
X115069489Y-149115844D01*
X115155010Y-149275843D01*
X115207674Y-149449452D01*
X115221000Y-149584757D01*
X115221000Y-150135244D01*
X115207674Y-150270548D01*
X115155010Y-150444157D01*
X115069489Y-150604156D01*
X115033729Y-150647729D01*
X114954397Y-150744397D01*
X114822527Y-150852618D01*
X114814155Y-150859489D01*
X114654156Y-150945010D01*
X114480547Y-150997674D01*
X114300000Y-151015456D01*
X114119452Y-150997674D01*
X113945843Y-150945010D01*
X113785844Y-150859489D01*
X113726760Y-150811000D01*
X113645603Y-150744397D01*
X113530511Y-150604155D01*
X113444991Y-150444158D01*
X113404436Y-150310467D01*
X113392326Y-150270547D01*
X113379000Y-150135243D01*
X113379000Y-149584756D01*
X113392326Y-149449452D01*
X113444990Y-149275843D01*
X113530512Y-149115844D01*
X113540832Y-149103269D01*
X113645604Y-148975603D01*
X113771389Y-148872375D01*
X113785845Y-148860511D01*
X113945844Y-148774990D01*
X114119453Y-148722326D01*
X114300000Y-148704544D01*
X114480548Y-148722326D01*
G37*
G36*
X108459561Y-148712966D02*
G01*
X108492383Y-148722923D01*
X108522632Y-148739092D01*
X108549148Y-148760852D01*
X108570908Y-148787368D01*
X108587077Y-148817617D01*
X108597034Y-148850439D01*
X108601000Y-148890713D01*
X108601000Y-150829287D01*
X108597034Y-150869561D01*
X108587077Y-150902383D01*
X108570908Y-150932632D01*
X108549148Y-150959148D01*
X108522632Y-150980908D01*
X108492383Y-150997077D01*
X108459561Y-151007034D01*
X108419287Y-151011000D01*
X106940713Y-151011000D01*
X106900439Y-151007034D01*
X106867617Y-150997077D01*
X106837368Y-150980908D01*
X106810852Y-150959148D01*
X106789092Y-150932632D01*
X106772923Y-150902383D01*
X106762966Y-150869561D01*
X106759000Y-150829287D01*
X106759000Y-148890713D01*
X106762966Y-148850439D01*
X106772923Y-148817617D01*
X106789092Y-148787368D01*
X106810852Y-148760852D01*
X106837368Y-148739092D01*
X106867617Y-148722923D01*
X106900439Y-148712966D01*
X106940713Y-148709000D01*
X108419287Y-148709000D01*
X108459561Y-148712966D01*
G37*
G36*
X122699561Y-148712966D02*
G01*
X122732383Y-148722923D01*
X122762632Y-148739092D01*
X122789148Y-148760852D01*
X122810908Y-148787368D01*
X122827077Y-148817617D01*
X122837034Y-148850439D01*
X122841000Y-148890713D01*
X122841000Y-150829287D01*
X122837034Y-150869561D01*
X122827077Y-150902383D01*
X122810908Y-150932632D01*
X122789148Y-150959148D01*
X122762632Y-150980908D01*
X122732383Y-150997077D01*
X122699561Y-151007034D01*
X122659287Y-151011000D01*
X121180713Y-151011000D01*
X121140439Y-151007034D01*
X121107617Y-150997077D01*
X121077368Y-150980908D01*
X121050852Y-150959148D01*
X121029092Y-150932632D01*
X121012923Y-150902383D01*
X121002966Y-150869561D01*
X120999000Y-150829287D01*
X120999000Y-148890713D01*
X121002966Y-148850439D01*
X121012923Y-148817617D01*
X121029092Y-148787368D01*
X121050852Y-148760852D01*
X121077368Y-148739092D01*
X121107617Y-148722923D01*
X121140439Y-148712966D01*
X121180713Y-148709000D01*
X122659287Y-148709000D01*
X122699561Y-148712966D01*
G37*
G36*
X136399561Y-148712966D02*
G01*
X136432383Y-148722923D01*
X136462632Y-148739092D01*
X136489148Y-148760852D01*
X136510908Y-148787368D01*
X136527077Y-148817617D01*
X136537034Y-148850439D01*
X136541000Y-148890713D01*
X136541000Y-150829287D01*
X136537034Y-150869561D01*
X136527077Y-150902383D01*
X136510908Y-150932632D01*
X136489148Y-150959148D01*
X136462632Y-150980908D01*
X136432383Y-150997077D01*
X136399561Y-151007034D01*
X136359287Y-151011000D01*
X134880713Y-151011000D01*
X134840439Y-151007034D01*
X134807617Y-150997077D01*
X134777368Y-150980908D01*
X134750852Y-150959148D01*
X134729092Y-150932632D01*
X134712923Y-150902383D01*
X134702966Y-150869561D01*
X134699000Y-150829287D01*
X134699000Y-148890713D01*
X134702966Y-148850439D01*
X134712923Y-148817617D01*
X134729092Y-148787368D01*
X134750852Y-148760852D01*
X134777368Y-148739092D01*
X134807617Y-148722923D01*
X134840439Y-148712966D01*
X134880713Y-148709000D01*
X136359287Y-148709000D01*
X136399561Y-148712966D01*
G37*
G36*
X141749561Y-148712966D02*
G01*
X141782383Y-148722923D01*
X141812632Y-148739092D01*
X141839148Y-148760852D01*
X141860908Y-148787368D01*
X141877077Y-148817617D01*
X141887034Y-148850439D01*
X141891000Y-148890713D01*
X141891000Y-150829287D01*
X141887034Y-150869561D01*
X141877077Y-150902383D01*
X141860908Y-150932632D01*
X141839148Y-150959148D01*
X141812632Y-150980908D01*
X141782383Y-150997077D01*
X141749561Y-151007034D01*
X141709287Y-151011000D01*
X140230713Y-151011000D01*
X140190439Y-151007034D01*
X140157617Y-150997077D01*
X140127368Y-150980908D01*
X140100852Y-150959148D01*
X140079092Y-150932632D01*
X140062923Y-150902383D01*
X140052966Y-150869561D01*
X140049000Y-150829287D01*
X140049000Y-148890713D01*
X140052966Y-148850439D01*
X140062923Y-148817617D01*
X140079092Y-148787368D01*
X140100852Y-148760852D01*
X140127368Y-148739092D01*
X140157617Y-148722923D01*
X140190439Y-148712966D01*
X140230713Y-148709000D01*
X141709287Y-148709000D01*
X141749561Y-148712966D01*
G37*
G36*
X154621000Y-150811000D02*
G01*
X152719000Y-150811000D01*
X152719000Y-148909000D01*
X154621000Y-148909000D01*
X154621000Y-150811000D01*
G37*
G36*
X156487395Y-148945546D02*
G01*
X156660466Y-149017234D01*
X156660467Y-149017235D01*
X156816227Y-149121310D01*
X156948690Y-149253773D01*
X156963437Y-149275844D01*
X157052766Y-149409534D01*
X157124454Y-149582605D01*
X157161000Y-149766333D01*
X157161000Y-149953667D01*
X157124454Y-150137395D01*
X157052766Y-150310466D01*
X157052765Y-150310467D01*
X156948690Y-150466227D01*
X156816227Y-150598690D01*
X156737818Y-150651081D01*
X156660466Y-150702766D01*
X156487395Y-150774454D01*
X156303667Y-150811000D01*
X156116333Y-150811000D01*
X155932605Y-150774454D01*
X155759534Y-150702766D01*
X155682182Y-150651081D01*
X155603773Y-150598690D01*
X155471310Y-150466227D01*
X155367235Y-150310467D01*
X155367234Y-150310466D01*
X155295546Y-150137395D01*
X155259000Y-149953667D01*
X155259000Y-149766333D01*
X155295546Y-149582605D01*
X155367234Y-149409534D01*
X155456563Y-149275844D01*
X155471310Y-149253773D01*
X155603773Y-149121310D01*
X155759533Y-149017235D01*
X155759534Y-149017234D01*
X155932605Y-148945546D01*
X156116333Y-148909000D01*
X156303667Y-148909000D01*
X156487395Y-148945546D01*
G37*
G36*
X126681000Y-150811000D02*
G01*
X124779000Y-150811000D01*
X124779000Y-148909000D01*
X126681000Y-148909000D01*
X126681000Y-150811000D01*
G37*
G36*
X100607395Y-148945546D02*
G01*
X100780466Y-149017234D01*
X100780467Y-149017235D01*
X100936227Y-149121310D01*
X101068690Y-149253773D01*
X101083437Y-149275844D01*
X101172766Y-149409534D01*
X101244454Y-149582605D01*
X101281000Y-149766333D01*
X101281000Y-149953667D01*
X101244454Y-150137395D01*
X101172766Y-150310466D01*
X101172765Y-150310467D01*
X101068690Y-150466227D01*
X100936227Y-150598690D01*
X100857818Y-150651081D01*
X100780466Y-150702766D01*
X100607395Y-150774454D01*
X100423667Y-150811000D01*
X100236333Y-150811000D01*
X100052605Y-150774454D01*
X99879534Y-150702766D01*
X99802182Y-150651081D01*
X99723773Y-150598690D01*
X99591310Y-150466227D01*
X99487235Y-150310467D01*
X99487234Y-150310466D01*
X99415546Y-150137395D01*
X99379000Y-149953667D01*
X99379000Y-149766333D01*
X99415546Y-149582605D01*
X99487234Y-149409534D01*
X99576563Y-149275844D01*
X99591310Y-149253773D01*
X99723773Y-149121310D01*
X99879533Y-149017235D01*
X99879534Y-149017234D01*
X100052605Y-148945546D01*
X100236333Y-148909000D01*
X100423667Y-148909000D01*
X100607395Y-148945546D01*
G37*
G36*
X98741000Y-150811000D02*
G01*
X96839000Y-150811000D01*
X96839000Y-148909000D01*
X98741000Y-148909000D01*
X98741000Y-150811000D01*
G37*
G36*
X128547395Y-148945546D02*
G01*
X128720466Y-149017234D01*
X128720467Y-149017235D01*
X128876227Y-149121310D01*
X129008690Y-149253773D01*
X129023437Y-149275844D01*
X129112766Y-149409534D01*
X129184454Y-149582605D01*
X129221000Y-149766333D01*
X129221000Y-149953667D01*
X129184454Y-150137395D01*
X129112766Y-150310466D01*
X129112765Y-150310467D01*
X129008690Y-150466227D01*
X128876227Y-150598690D01*
X128797818Y-150651081D01*
X128720466Y-150702766D01*
X128547395Y-150774454D01*
X128363667Y-150811000D01*
X128176333Y-150811000D01*
X127992605Y-150774454D01*
X127819534Y-150702766D01*
X127742182Y-150651081D01*
X127663773Y-150598690D01*
X127531310Y-150466227D01*
X127427235Y-150310467D01*
X127427234Y-150310466D01*
X127355546Y-150137395D01*
X127319000Y-149953667D01*
X127319000Y-149766333D01*
X127355546Y-149582605D01*
X127427234Y-149409534D01*
X127516563Y-149275844D01*
X127531310Y-149253773D01*
X127663773Y-149121310D01*
X127819533Y-149017235D01*
X127819534Y-149017234D01*
X127992605Y-148945546D01*
X128176333Y-148909000D01*
X128363667Y-148909000D01*
X128547395Y-148945546D01*
G37*
G36*
X91437395Y-148175546D02*
G01*
X91610466Y-148247234D01*
X91610467Y-148247235D01*
X91766227Y-148351310D01*
X91898690Y-148483773D01*
X91935021Y-148538146D01*
X92002766Y-148639534D01*
X92074454Y-148812605D01*
X92111000Y-148996333D01*
X92111000Y-149183667D01*
X92074454Y-149367395D01*
X92002766Y-149540466D01*
X91973173Y-149584755D01*
X91898690Y-149696227D01*
X91766227Y-149828690D01*
X91687818Y-149881081D01*
X91610466Y-149932766D01*
X91437395Y-150004454D01*
X91253667Y-150041000D01*
X91066333Y-150041000D01*
X90882605Y-150004454D01*
X90709534Y-149932766D01*
X90632182Y-149881081D01*
X90553773Y-149828690D01*
X90421310Y-149696227D01*
X90346827Y-149584755D01*
X90317234Y-149540466D01*
X90245546Y-149367395D01*
X90209000Y-149183667D01*
X90209000Y-148996333D01*
X90245546Y-148812605D01*
X90317234Y-148639534D01*
X90384979Y-148538146D01*
X90421310Y-148483773D01*
X90553773Y-148351310D01*
X90709533Y-148247235D01*
X90709534Y-148247234D01*
X90882605Y-148175546D01*
X91066333Y-148139000D01*
X91253667Y-148139000D01*
X91437395Y-148175546D01*
G37*
G36*
X163337395Y-148175546D02*
G01*
X163510466Y-148247234D01*
X163510467Y-148247235D01*
X163666227Y-148351310D01*
X163798690Y-148483773D01*
X163835021Y-148538146D01*
X163902766Y-148639534D01*
X163974454Y-148812605D01*
X164011000Y-148996333D01*
X164011000Y-149183667D01*
X163974454Y-149367395D01*
X163902766Y-149540466D01*
X163873173Y-149584755D01*
X163798690Y-149696227D01*
X163666227Y-149828690D01*
X163587818Y-149881081D01*
X163510466Y-149932766D01*
X163337395Y-150004454D01*
X163153667Y-150041000D01*
X162966333Y-150041000D01*
X162782605Y-150004454D01*
X162609534Y-149932766D01*
X162532182Y-149881081D01*
X162453773Y-149828690D01*
X162321310Y-149696227D01*
X162246827Y-149584755D01*
X162217234Y-149540466D01*
X162145546Y-149367395D01*
X162109000Y-149183667D01*
X162109000Y-148996333D01*
X162145546Y-148812605D01*
X162217234Y-148639534D01*
X162284979Y-148538146D01*
X162321310Y-148483773D01*
X162453773Y-148351310D01*
X162609533Y-148247235D01*
X162609534Y-148247234D01*
X162782605Y-148175546D01*
X162966333Y-148139000D01*
X163153667Y-148139000D01*
X163337395Y-148175546D01*
G37*
G36*
X89397382Y-146024164D02*
G01*
X89429527Y-146033916D01*
X89459155Y-146049752D01*
X89489897Y-146074981D01*
X89549537Y-146134621D01*
X89549548Y-146134630D01*
X90523268Y-147108350D01*
X90523277Y-147108361D01*
X90582917Y-147168001D01*
X90608146Y-147198743D01*
X90623982Y-147228371D01*
X90633734Y-147260516D01*
X90637026Y-147293949D01*
X90633734Y-147327382D01*
X90623982Y-147359527D01*
X90608146Y-147389155D01*
X90582917Y-147419897D01*
X90523277Y-147479537D01*
X90523268Y-147479548D01*
X89549548Y-148453268D01*
X89549537Y-148453277D01*
X89489897Y-148512917D01*
X89459155Y-148538146D01*
X89429527Y-148553982D01*
X89397382Y-148563734D01*
X89363949Y-148567026D01*
X89330516Y-148563734D01*
X89298371Y-148553982D01*
X89268743Y-148538146D01*
X89238001Y-148512917D01*
X89178361Y-148453277D01*
X89178350Y-148453268D01*
X88204630Y-147479548D01*
X88204621Y-147479537D01*
X88144981Y-147419897D01*
X88119752Y-147389155D01*
X88103916Y-147359527D01*
X88094164Y-147327382D01*
X88090872Y-147293949D01*
X88094164Y-147260516D01*
X88103916Y-147228371D01*
X88119752Y-147198743D01*
X88144981Y-147168001D01*
X88204621Y-147108361D01*
X88204630Y-147108350D01*
X89178350Y-146134630D01*
X89178361Y-146134621D01*
X89238001Y-146074981D01*
X89268743Y-146049752D01*
X89298371Y-146033916D01*
X89330516Y-146024164D01*
X89363949Y-146020872D01*
X89397382Y-146024164D01*
G37*
G36*
X165133446Y-146379495D02*
G01*
X165306517Y-146451183D01*
X165306518Y-146451184D01*
X165462278Y-146555259D01*
X165594741Y-146687722D01*
X165594742Y-146687724D01*
X165698817Y-146843483D01*
X165770505Y-147016554D01*
X165807051Y-147200282D01*
X165807051Y-147387616D01*
X165770505Y-147571344D01*
X165698817Y-147744415D01*
X165698816Y-147744416D01*
X165594741Y-147900176D01*
X165462278Y-148032639D01*
X165383869Y-148085030D01*
X165306517Y-148136715D01*
X165133446Y-148208403D01*
X164949718Y-148244949D01*
X164762384Y-148244949D01*
X164578656Y-148208403D01*
X164405585Y-148136715D01*
X164328233Y-148085030D01*
X164249824Y-148032639D01*
X164117361Y-147900176D01*
X164013286Y-147744416D01*
X164013285Y-147744415D01*
X163941597Y-147571344D01*
X163905051Y-147387616D01*
X163905051Y-147200282D01*
X163941597Y-147016554D01*
X164013285Y-146843483D01*
X164117360Y-146687724D01*
X164117361Y-146687722D01*
X164249824Y-146555259D01*
X164405584Y-146451184D01*
X164405585Y-146451183D01*
X164578656Y-146379495D01*
X164762384Y-146342949D01*
X164949718Y-146342949D01*
X165133446Y-146379495D01*
G37*
G36*
X103753228Y-143326703D02*
G01*
X103908100Y-143390853D01*
X104047481Y-143483985D01*
X104166015Y-143602519D01*
X104259147Y-143741900D01*
X104323297Y-143896772D01*
X104356000Y-144061184D01*
X104356000Y-144228816D01*
X104323297Y-144393228D01*
X104259147Y-144548100D01*
X104166015Y-144687481D01*
X104047481Y-144806015D01*
X103908100Y-144899147D01*
X103753228Y-144963297D01*
X103588816Y-144996000D01*
X103421184Y-144996000D01*
X103256772Y-144963297D01*
X103101900Y-144899147D01*
X102962519Y-144806015D01*
X102843985Y-144687481D01*
X102750853Y-144548100D01*
X102686703Y-144393228D01*
X102654000Y-144228816D01*
X102654000Y-144061184D01*
X102686703Y-143896772D01*
X102750853Y-143741900D01*
X102843985Y-143602519D01*
X102962519Y-143483985D01*
X103101900Y-143390853D01*
X103256772Y-143326703D01*
X103421184Y-143294000D01*
X103588816Y-143294000D01*
X103753228Y-143326703D01*
G37*
G36*
X106293228Y-143326703D02*
G01*
X106448100Y-143390853D01*
X106587481Y-143483985D01*
X106706015Y-143602519D01*
X106799147Y-143741900D01*
X106863297Y-143896772D01*
X106896000Y-144061184D01*
X106896000Y-144228816D01*
X106863297Y-144393228D01*
X106799147Y-144548100D01*
X106706015Y-144687481D01*
X106587481Y-144806015D01*
X106448100Y-144899147D01*
X106293228Y-144963297D01*
X106128816Y-144996000D01*
X105961184Y-144996000D01*
X105796772Y-144963297D01*
X105641900Y-144899147D01*
X105502519Y-144806015D01*
X105383985Y-144687481D01*
X105290853Y-144548100D01*
X105226703Y-144393228D01*
X105194000Y-144228816D01*
X105194000Y-144061184D01*
X105226703Y-143896772D01*
X105290853Y-143741900D01*
X105383985Y-143602519D01*
X105502519Y-143483985D01*
X105641900Y-143390853D01*
X105796772Y-143326703D01*
X105961184Y-143294000D01*
X106128816Y-143294000D01*
X106293228Y-143326703D01*
G37*
G36*
X108833228Y-143326703D02*
G01*
X108988100Y-143390853D01*
X109127481Y-143483985D01*
X109246015Y-143602519D01*
X109339147Y-143741900D01*
X109403297Y-143896772D01*
X109436000Y-144061184D01*
X109436000Y-144228816D01*
X109403297Y-144393228D01*
X109339147Y-144548100D01*
X109246015Y-144687481D01*
X109127481Y-144806015D01*
X108988100Y-144899147D01*
X108833228Y-144963297D01*
X108668816Y-144996000D01*
X108501184Y-144996000D01*
X108336772Y-144963297D01*
X108181900Y-144899147D01*
X108042519Y-144806015D01*
X107923985Y-144687481D01*
X107830853Y-144548100D01*
X107766703Y-144393228D01*
X107734000Y-144228816D01*
X107734000Y-144061184D01*
X107766703Y-143896772D01*
X107830853Y-143741900D01*
X107923985Y-143602519D01*
X108042519Y-143483985D01*
X108181900Y-143390853D01*
X108336772Y-143326703D01*
X108501184Y-143294000D01*
X108668816Y-143294000D01*
X108833228Y-143326703D01*
G37*
G36*
X111373228Y-143326703D02*
G01*
X111528100Y-143390853D01*
X111667481Y-143483985D01*
X111786015Y-143602519D01*
X111879147Y-143741900D01*
X111943297Y-143896772D01*
X111976000Y-144061184D01*
X111976000Y-144228816D01*
X111943297Y-144393228D01*
X111879147Y-144548100D01*
X111786015Y-144687481D01*
X111667481Y-144806015D01*
X111528100Y-144899147D01*
X111373228Y-144963297D01*
X111208816Y-144996000D01*
X111041184Y-144996000D01*
X110876772Y-144963297D01*
X110721900Y-144899147D01*
X110582519Y-144806015D01*
X110463985Y-144687481D01*
X110370853Y-144548100D01*
X110306703Y-144393228D01*
X110274000Y-144228816D01*
X110274000Y-144061184D01*
X110306703Y-143896772D01*
X110370853Y-143741900D01*
X110463985Y-143602519D01*
X110582519Y-143483985D01*
X110721900Y-143390853D01*
X110876772Y-143326703D01*
X111041184Y-143294000D01*
X111208816Y-143294000D01*
X111373228Y-143326703D01*
G37*
G36*
X143758228Y-142691703D02*
G01*
X143913100Y-142755853D01*
X144052481Y-142848985D01*
X144171015Y-142967519D01*
X144264147Y-143106900D01*
X144328297Y-143261772D01*
X144361000Y-143426184D01*
X144361000Y-143593816D01*
X144328297Y-143758228D01*
X144264147Y-143913100D01*
X144171015Y-144052481D01*
X144052481Y-144171015D01*
X143913100Y-144264147D01*
X143758228Y-144328297D01*
X143593816Y-144361000D01*
X143426184Y-144361000D01*
X143261772Y-144328297D01*
X143106900Y-144264147D01*
X142967519Y-144171015D01*
X142848985Y-144052481D01*
X142755853Y-143913100D01*
X142691703Y-143758228D01*
X142659000Y-143593816D01*
X142659000Y-143426184D01*
X142691703Y-143261772D01*
X142755853Y-143106900D01*
X142848985Y-142967519D01*
X142967519Y-142848985D01*
X143106900Y-142755853D01*
X143261772Y-142691703D01*
X143426184Y-142659000D01*
X143593816Y-142659000D01*
X143758228Y-142691703D01*
G37*
G36*
X141218228Y-142691703D02*
G01*
X141373100Y-142755853D01*
X141512481Y-142848985D01*
X141631015Y-142967519D01*
X141724147Y-143106900D01*
X141788297Y-143261772D01*
X141821000Y-143426184D01*
X141821000Y-143593816D01*
X141788297Y-143758228D01*
X141724147Y-143913100D01*
X141631015Y-144052481D01*
X141512481Y-144171015D01*
X141373100Y-144264147D01*
X141218228Y-144328297D01*
X141053816Y-144361000D01*
X140886184Y-144361000D01*
X140721772Y-144328297D01*
X140566900Y-144264147D01*
X140427519Y-144171015D01*
X140308985Y-144052481D01*
X140215853Y-143913100D01*
X140151703Y-143758228D01*
X140119000Y-143593816D01*
X140119000Y-143426184D01*
X140151703Y-143261772D01*
X140215853Y-143106900D01*
X140308985Y-142967519D01*
X140427519Y-142848985D01*
X140566900Y-142755853D01*
X140721772Y-142691703D01*
X140886184Y-142659000D01*
X141053816Y-142659000D01*
X141218228Y-142691703D01*
G37*
G36*
X117146564Y-141864389D02*
G01*
X117337833Y-141943615D01*
X117337835Y-141943616D01*
X117509973Y-142058635D01*
X117656365Y-142205027D01*
X117718176Y-142297533D01*
X117771385Y-142377167D01*
X117850611Y-142568436D01*
X117891000Y-142771484D01*
X117891000Y-142978516D01*
X117850611Y-143181564D01*
X117779092Y-143354227D01*
X117771384Y-143372835D01*
X117656365Y-143544973D01*
X117509973Y-143691365D01*
X117337835Y-143806384D01*
X117337834Y-143806385D01*
X117337833Y-143806385D01*
X117146564Y-143885611D01*
X116943516Y-143926000D01*
X116736484Y-143926000D01*
X116533436Y-143885611D01*
X116342167Y-143806385D01*
X116342166Y-143806385D01*
X116342165Y-143806384D01*
X116170027Y-143691365D01*
X116023635Y-143544973D01*
X115908616Y-143372835D01*
X115900908Y-143354227D01*
X115829389Y-143181564D01*
X115789000Y-142978516D01*
X115789000Y-142771484D01*
X115829389Y-142568436D01*
X115908615Y-142377167D01*
X115961825Y-142297533D01*
X116023635Y-142205027D01*
X116170027Y-142058635D01*
X116342165Y-141943616D01*
X116342167Y-141943615D01*
X116533436Y-141864389D01*
X116736484Y-141824000D01*
X116943516Y-141824000D01*
X117146564Y-141864389D01*
G37*
G36*
X161059395Y-141833546D02*
G01*
X161232466Y-141905234D01*
X161232467Y-141905235D01*
X161388227Y-142009310D01*
X161520690Y-142141773D01*
X161520691Y-142141775D01*
X161624766Y-142297534D01*
X161696454Y-142470605D01*
X161733000Y-142654333D01*
X161733000Y-142841667D01*
X161696454Y-143025395D01*
X161624766Y-143198466D01*
X161624765Y-143198467D01*
X161520690Y-143354227D01*
X161388227Y-143486690D01*
X161309818Y-143539081D01*
X161232466Y-143590766D01*
X161059395Y-143662454D01*
X160875667Y-143699000D01*
X160688333Y-143699000D01*
X160504605Y-143662454D01*
X160331534Y-143590766D01*
X160254182Y-143539081D01*
X160175773Y-143486690D01*
X160043310Y-143354227D01*
X159939235Y-143198467D01*
X159939234Y-143198466D01*
X159867546Y-143025395D01*
X159831000Y-142841667D01*
X159831000Y-142654333D01*
X159867546Y-142470605D01*
X159939234Y-142297534D01*
X160043309Y-142141775D01*
X160043310Y-142141773D01*
X160175773Y-142009310D01*
X160331533Y-141905235D01*
X160331534Y-141905234D01*
X160504605Y-141833546D01*
X160688333Y-141797000D01*
X160875667Y-141797000D01*
X161059395Y-141833546D01*
G37*
G36*
X159193000Y-143699000D02*
G01*
X157291000Y-143699000D01*
X157291000Y-141797000D01*
X159193000Y-141797000D01*
X159193000Y-143699000D01*
G37*
G36*
X156276345Y-137259442D02*
G01*
X156366548Y-137268326D01*
X156540157Y-137320990D01*
X156700156Y-137406511D01*
X156743729Y-137442271D01*
X156840397Y-137521603D01*
X156919729Y-137618271D01*
X156955489Y-137661844D01*
X157041010Y-137821843D01*
X157093674Y-137995452D01*
X157111456Y-138176000D01*
X157093674Y-138356548D01*
X157041010Y-138530157D01*
X156955489Y-138690156D01*
X156925757Y-138726384D01*
X156840397Y-138830397D01*
X156743729Y-138909729D01*
X156700156Y-138945489D01*
X156540157Y-139031010D01*
X156366548Y-139083674D01*
X156276345Y-139092558D01*
X156231245Y-139097000D01*
X155680755Y-139097000D01*
X155635655Y-139092558D01*
X155545452Y-139083674D01*
X155371843Y-139031010D01*
X155211844Y-138945489D01*
X155168271Y-138909729D01*
X155071603Y-138830397D01*
X154986243Y-138726384D01*
X154956511Y-138690156D01*
X154870990Y-138530157D01*
X154818326Y-138356548D01*
X154800544Y-138176000D01*
X154818326Y-137995452D01*
X154870990Y-137821843D01*
X154956511Y-137661844D01*
X154992271Y-137618271D01*
X155071603Y-137521603D01*
X155168271Y-137442271D01*
X155211844Y-137406511D01*
X155371843Y-137320990D01*
X155545452Y-137268326D01*
X155635655Y-137259442D01*
X155680755Y-137255000D01*
X156231245Y-137255000D01*
X156276345Y-137259442D01*
G37*
G36*
X163896345Y-137259442D02*
G01*
X163986548Y-137268326D01*
X164160157Y-137320990D01*
X164320156Y-137406511D01*
X164363729Y-137442271D01*
X164460397Y-137521603D01*
X164539729Y-137618271D01*
X164575489Y-137661844D01*
X164661010Y-137821843D01*
X164713674Y-137995452D01*
X164731456Y-138176000D01*
X164713674Y-138356548D01*
X164661010Y-138530157D01*
X164575489Y-138690156D01*
X164545757Y-138726384D01*
X164460397Y-138830397D01*
X164363729Y-138909729D01*
X164320156Y-138945489D01*
X164160157Y-139031010D01*
X163986548Y-139083674D01*
X163896345Y-139092558D01*
X163851245Y-139097000D01*
X163300755Y-139097000D01*
X163255655Y-139092558D01*
X163165452Y-139083674D01*
X162991843Y-139031010D01*
X162831844Y-138945489D01*
X162788271Y-138909729D01*
X162691603Y-138830397D01*
X162606243Y-138726384D01*
X162576511Y-138690156D01*
X162490990Y-138530157D01*
X162438326Y-138356548D01*
X162420544Y-138176000D01*
X162438326Y-137995452D01*
X162490990Y-137821843D01*
X162576511Y-137661844D01*
X162612271Y-137618271D01*
X162691603Y-137521603D01*
X162788271Y-137442271D01*
X162831844Y-137406511D01*
X162991843Y-137320990D01*
X163165452Y-137268326D01*
X163255655Y-137259442D01*
X163300755Y-137255000D01*
X163851245Y-137255000D01*
X163896345Y-137259442D01*
G37*
G36*
X117146564Y-136784389D02*
G01*
X117337833Y-136863615D01*
X117337835Y-136863616D01*
X117509973Y-136978635D01*
X117656365Y-137125027D01*
X117759345Y-137279147D01*
X117771385Y-137297167D01*
X117850611Y-137488436D01*
X117891000Y-137691484D01*
X117891000Y-137898516D01*
X117850611Y-138101564D01*
X117771385Y-138292833D01*
X117771384Y-138292835D01*
X117656365Y-138464973D01*
X117509973Y-138611365D01*
X117337835Y-138726384D01*
X117337834Y-138726385D01*
X117337833Y-138726385D01*
X117146564Y-138805611D01*
X116943516Y-138846000D01*
X116736484Y-138846000D01*
X116533436Y-138805611D01*
X116342167Y-138726385D01*
X116342166Y-138726385D01*
X116342165Y-138726384D01*
X116170027Y-138611365D01*
X116023635Y-138464973D01*
X115908616Y-138292835D01*
X115908615Y-138292833D01*
X115829389Y-138101564D01*
X115789000Y-137898516D01*
X115789000Y-137691484D01*
X115829389Y-137488436D01*
X115908615Y-137297167D01*
X115920656Y-137279147D01*
X116023635Y-137125027D01*
X116170027Y-136978635D01*
X116342165Y-136863616D01*
X116342167Y-136863615D01*
X116533436Y-136784389D01*
X116736484Y-136744000D01*
X116943516Y-136744000D01*
X117146564Y-136784389D01*
G37*
G36*
X149102242Y-137529404D02*
G01*
X149139337Y-137540657D01*
X149173515Y-137558925D01*
X149203481Y-137583519D01*
X149228075Y-137613485D01*
X149246343Y-137647663D01*
X149257596Y-137684758D01*
X149262000Y-137729474D01*
X149262000Y-138622526D01*
X149257596Y-138667242D01*
X149246343Y-138704337D01*
X149228075Y-138738515D01*
X149203481Y-138768481D01*
X149173515Y-138793075D01*
X149139337Y-138811343D01*
X149102242Y-138822596D01*
X149057526Y-138827000D01*
X147614474Y-138827000D01*
X147569758Y-138822596D01*
X147532663Y-138811343D01*
X147498485Y-138793075D01*
X147468519Y-138768481D01*
X147443925Y-138738515D01*
X147425657Y-138704337D01*
X147414404Y-138667242D01*
X147410000Y-138622526D01*
X147410000Y-137729474D01*
X147414404Y-137684758D01*
X147425657Y-137647663D01*
X147443925Y-137613485D01*
X147468519Y-137583519D01*
X147498485Y-137558925D01*
X147532663Y-137540657D01*
X147569758Y-137529404D01*
X147614474Y-137525000D01*
X149057526Y-137525000D01*
X149102242Y-137529404D01*
G37*
G36*
X131683512Y-136263927D02*
G01*
X131832812Y-136293624D01*
X131996784Y-136361544D01*
X132144354Y-136460147D01*
X132269853Y-136585646D01*
X132368456Y-136733216D01*
X132436376Y-136897188D01*
X132471000Y-137071259D01*
X132471000Y-137248741D01*
X132436376Y-137422812D01*
X132368456Y-137586784D01*
X132269853Y-137734354D01*
X132144354Y-137859853D01*
X131996784Y-137958456D01*
X131832812Y-138026376D01*
X131683512Y-138056073D01*
X131658742Y-138061000D01*
X131481258Y-138061000D01*
X131456488Y-138056073D01*
X131307188Y-138026376D01*
X131143216Y-137958456D01*
X130995646Y-137859853D01*
X130870147Y-137734354D01*
X130771544Y-137586784D01*
X130703624Y-137422812D01*
X130669000Y-137248741D01*
X130669000Y-137071259D01*
X130703624Y-136897188D01*
X130771544Y-136733216D01*
X130870147Y-136585646D01*
X130995646Y-136460147D01*
X131143216Y-136361544D01*
X131307188Y-136293624D01*
X131456488Y-136263927D01*
X131481258Y-136259000D01*
X131658742Y-136259000D01*
X131683512Y-136263927D01*
G37*
G36*
X129183512Y-136263927D02*
G01*
X129332812Y-136293624D01*
X129496784Y-136361544D01*
X129644354Y-136460147D01*
X129769853Y-136585646D01*
X129868456Y-136733216D01*
X129936376Y-136897188D01*
X129971000Y-137071259D01*
X129971000Y-137248741D01*
X129936376Y-137422812D01*
X129868456Y-137586784D01*
X129769853Y-137734354D01*
X129644354Y-137859853D01*
X129496784Y-137958456D01*
X129332812Y-138026376D01*
X129183512Y-138056073D01*
X129158742Y-138061000D01*
X128981258Y-138061000D01*
X128956488Y-138056073D01*
X128807188Y-138026376D01*
X128643216Y-137958456D01*
X128495646Y-137859853D01*
X128370147Y-137734354D01*
X128271544Y-137586784D01*
X128203624Y-137422812D01*
X128169000Y-137248741D01*
X128169000Y-137071259D01*
X128203624Y-136897188D01*
X128271544Y-136733216D01*
X128370147Y-136585646D01*
X128495646Y-136460147D01*
X128643216Y-136361544D01*
X128807188Y-136293624D01*
X128956488Y-136263927D01*
X128981258Y-136259000D01*
X129158742Y-136259000D01*
X129183512Y-136263927D01*
G37*
G36*
X134183512Y-136263927D02*
G01*
X134332812Y-136293624D01*
X134496784Y-136361544D01*
X134644354Y-136460147D01*
X134769853Y-136585646D01*
X134868456Y-136733216D01*
X134936376Y-136897188D01*
X134971000Y-137071259D01*
X134971000Y-137248741D01*
X134936376Y-137422812D01*
X134868456Y-137586784D01*
X134769853Y-137734354D01*
X134644354Y-137859853D01*
X134496784Y-137958456D01*
X134332812Y-138026376D01*
X134183512Y-138056073D01*
X134158742Y-138061000D01*
X133981258Y-138061000D01*
X133956488Y-138056073D01*
X133807188Y-138026376D01*
X133643216Y-137958456D01*
X133495646Y-137859853D01*
X133370147Y-137734354D01*
X133271544Y-137586784D01*
X133203624Y-137422812D01*
X133169000Y-137248741D01*
X133169000Y-137071259D01*
X133203624Y-136897188D01*
X133271544Y-136733216D01*
X133370147Y-136585646D01*
X133495646Y-136460147D01*
X133643216Y-136361544D01*
X133807188Y-136293624D01*
X133956488Y-136263927D01*
X133981258Y-136259000D01*
X134158742Y-136259000D01*
X134183512Y-136263927D01*
G37*
G36*
X108833228Y-135706703D02*
G01*
X108988100Y-135770853D01*
X109127481Y-135863985D01*
X109246015Y-135982519D01*
X109339147Y-136121900D01*
X109403297Y-136276772D01*
X109436000Y-136441184D01*
X109436000Y-136608816D01*
X109403297Y-136773228D01*
X109339147Y-136928100D01*
X109246015Y-137067481D01*
X109127481Y-137186015D01*
X108988100Y-137279147D01*
X108833228Y-137343297D01*
X108668816Y-137376000D01*
X108501184Y-137376000D01*
X108336772Y-137343297D01*
X108181900Y-137279147D01*
X108042519Y-137186015D01*
X107923985Y-137067481D01*
X107830853Y-136928100D01*
X107766703Y-136773228D01*
X107734000Y-136608816D01*
X107734000Y-136441184D01*
X107766703Y-136276772D01*
X107830853Y-136121900D01*
X107923985Y-135982519D01*
X108042519Y-135863985D01*
X108181900Y-135770853D01*
X108336772Y-135706703D01*
X108501184Y-135674000D01*
X108668816Y-135674000D01*
X108833228Y-135706703D01*
G37*
G36*
X106293228Y-135706703D02*
G01*
X106448100Y-135770853D01*
X106587481Y-135863985D01*
X106706015Y-135982519D01*
X106799147Y-136121900D01*
X106863297Y-136276772D01*
X106896000Y-136441184D01*
X106896000Y-136608816D01*
X106863297Y-136773228D01*
X106799147Y-136928100D01*
X106706015Y-137067481D01*
X106587481Y-137186015D01*
X106448100Y-137279147D01*
X106293228Y-137343297D01*
X106128816Y-137376000D01*
X105961184Y-137376000D01*
X105796772Y-137343297D01*
X105641900Y-137279147D01*
X105502519Y-137186015D01*
X105383985Y-137067481D01*
X105290853Y-136928100D01*
X105226703Y-136773228D01*
X105194000Y-136608816D01*
X105194000Y-136441184D01*
X105226703Y-136276772D01*
X105290853Y-136121900D01*
X105383985Y-135982519D01*
X105502519Y-135863985D01*
X105641900Y-135770853D01*
X105796772Y-135706703D01*
X105961184Y-135674000D01*
X106128816Y-135674000D01*
X106293228Y-135706703D01*
G37*
G36*
X103753228Y-135706703D02*
G01*
X103908100Y-135770853D01*
X104047481Y-135863985D01*
X104166015Y-135982519D01*
X104259147Y-136121900D01*
X104323297Y-136276772D01*
X104356000Y-136441184D01*
X104356000Y-136608816D01*
X104323297Y-136773228D01*
X104259147Y-136928100D01*
X104166015Y-137067481D01*
X104047481Y-137186015D01*
X103908100Y-137279147D01*
X103753228Y-137343297D01*
X103588816Y-137376000D01*
X103421184Y-137376000D01*
X103256772Y-137343297D01*
X103101900Y-137279147D01*
X102962519Y-137186015D01*
X102843985Y-137067481D01*
X102750853Y-136928100D01*
X102686703Y-136773228D01*
X102654000Y-136608816D01*
X102654000Y-136441184D01*
X102686703Y-136276772D01*
X102750853Y-136121900D01*
X102843985Y-135982519D01*
X102962519Y-135863985D01*
X103101900Y-135770853D01*
X103256772Y-135706703D01*
X103421184Y-135674000D01*
X103588816Y-135674000D01*
X103753228Y-135706703D01*
G37*
G36*
X111976000Y-137376000D02*
G01*
X110274000Y-137376000D01*
X110274000Y-135674000D01*
X111976000Y-135674000D01*
X111976000Y-137376000D01*
G37*
G36*
X148674855Y-135528140D02*
G01*
X148738618Y-135534420D01*
X148829404Y-135561960D01*
X148861336Y-135571646D01*
X148974425Y-135632094D01*
X149073554Y-135713446D01*
X149154906Y-135812575D01*
X149215354Y-135925664D01*
X149215355Y-135925668D01*
X149252580Y-136048382D01*
X149265149Y-136176000D01*
X149252580Y-136303618D01*
X149240337Y-136343977D01*
X149215354Y-136426336D01*
X149154906Y-136539425D01*
X149073554Y-136638554D01*
X148974425Y-136719906D01*
X148861336Y-136780354D01*
X148829404Y-136790040D01*
X148738618Y-136817580D01*
X148674855Y-136823860D01*
X148642974Y-136827000D01*
X148029026Y-136827000D01*
X147997145Y-136823860D01*
X147933382Y-136817580D01*
X147842596Y-136790040D01*
X147810664Y-136780354D01*
X147697575Y-136719906D01*
X147598446Y-136638554D01*
X147517094Y-136539425D01*
X147456646Y-136426336D01*
X147431663Y-136343977D01*
X147419420Y-136303618D01*
X147406851Y-136176000D01*
X147419420Y-136048382D01*
X147456645Y-135925668D01*
X147456646Y-135925664D01*
X147517094Y-135812575D01*
X147598446Y-135713446D01*
X147697575Y-135632094D01*
X147810664Y-135571646D01*
X147842596Y-135561960D01*
X147933382Y-135534420D01*
X147997145Y-135528140D01*
X148029026Y-135525000D01*
X148642974Y-135525000D01*
X148674855Y-135528140D01*
G37*
G36*
X156965561Y-134718966D02*
G01*
X156998383Y-134728923D01*
X157028632Y-134745092D01*
X157055148Y-134766852D01*
X157076908Y-134793368D01*
X157093077Y-134823617D01*
X157103034Y-134856439D01*
X157107000Y-134896713D01*
X157107000Y-136375287D01*
X157103034Y-136415561D01*
X157093077Y-136448383D01*
X157076908Y-136478632D01*
X157055148Y-136505148D01*
X157028632Y-136526908D01*
X156998383Y-136543077D01*
X156965561Y-136553034D01*
X156925287Y-136557000D01*
X154986713Y-136557000D01*
X154946439Y-136553034D01*
X154913617Y-136543077D01*
X154883368Y-136526908D01*
X154856852Y-136505148D01*
X154835092Y-136478632D01*
X154818923Y-136448383D01*
X154808966Y-136415561D01*
X154805000Y-136375287D01*
X154805000Y-134896713D01*
X154808966Y-134856439D01*
X154818923Y-134823617D01*
X154835092Y-134793368D01*
X154856852Y-134766852D01*
X154883368Y-134745092D01*
X154913617Y-134728923D01*
X154946439Y-134718966D01*
X154986713Y-134715000D01*
X156925287Y-134715000D01*
X156965561Y-134718966D01*
G37*
G36*
X164585561Y-134718966D02*
G01*
X164618383Y-134728923D01*
X164648632Y-134745092D01*
X164675148Y-134766852D01*
X164696908Y-134793368D01*
X164713077Y-134823617D01*
X164723034Y-134856439D01*
X164727000Y-134896713D01*
X164727000Y-136375287D01*
X164723034Y-136415561D01*
X164713077Y-136448383D01*
X164696908Y-136478632D01*
X164675148Y-136505148D01*
X164648632Y-136526908D01*
X164618383Y-136543077D01*
X164585561Y-136553034D01*
X164545287Y-136557000D01*
X162606713Y-136557000D01*
X162566439Y-136553034D01*
X162533617Y-136543077D01*
X162503368Y-136526908D01*
X162476852Y-136505148D01*
X162455092Y-136478632D01*
X162438923Y-136448383D01*
X162428966Y-136415561D01*
X162425000Y-136375287D01*
X162425000Y-134896713D01*
X162428966Y-134856439D01*
X162438923Y-134823617D01*
X162455092Y-134793368D01*
X162476852Y-134766852D01*
X162503368Y-134745092D01*
X162533617Y-134728923D01*
X162566439Y-134718966D01*
X162606713Y-134715000D01*
X164545287Y-134715000D01*
X164585561Y-134718966D01*
G37*
G36*
X139408228Y-131261703D02*
G01*
X139563100Y-131325853D01*
X139702481Y-131418985D01*
X139821015Y-131537519D01*
X139914147Y-131676900D01*
X139978297Y-131831772D01*
X140011000Y-131996184D01*
X140011000Y-132163816D01*
X139978297Y-132328228D01*
X139914147Y-132483100D01*
X139821015Y-132622481D01*
X139702481Y-132741015D01*
X139563100Y-132834147D01*
X139408228Y-132898297D01*
X139243816Y-132931000D01*
X139076184Y-132931000D01*
X138911772Y-132898297D01*
X138756900Y-132834147D01*
X138617519Y-132741015D01*
X138498985Y-132622481D01*
X138405853Y-132483100D01*
X138341703Y-132328228D01*
X138309000Y-132163816D01*
X138309000Y-131996184D01*
X138341703Y-131831772D01*
X138405853Y-131676900D01*
X138498985Y-131537519D01*
X138617519Y-131418985D01*
X138756900Y-131325853D01*
X138911772Y-131261703D01*
X139076184Y-131229000D01*
X139243816Y-131229000D01*
X139408228Y-131261703D01*
G37*
G36*
X136868228Y-131261703D02*
G01*
X137023100Y-131325853D01*
X137162481Y-131418985D01*
X137281015Y-131537519D01*
X137374147Y-131676900D01*
X137438297Y-131831772D01*
X137471000Y-131996184D01*
X137471000Y-132163816D01*
X137438297Y-132328228D01*
X137374147Y-132483100D01*
X137281015Y-132622481D01*
X137162481Y-132741015D01*
X137023100Y-132834147D01*
X136868228Y-132898297D01*
X136703816Y-132931000D01*
X136536184Y-132931000D01*
X136371772Y-132898297D01*
X136216900Y-132834147D01*
X136077519Y-132741015D01*
X135958985Y-132622481D01*
X135865853Y-132483100D01*
X135801703Y-132328228D01*
X135769000Y-132163816D01*
X135769000Y-131996184D01*
X135801703Y-131831772D01*
X135865853Y-131676900D01*
X135958985Y-131537519D01*
X136077519Y-131418985D01*
X136216900Y-131325853D01*
X136371772Y-131261703D01*
X136536184Y-131229000D01*
X136703816Y-131229000D01*
X136868228Y-131261703D01*
G37*
G36*
X134328228Y-131261703D02*
G01*
X134483100Y-131325853D01*
X134622481Y-131418985D01*
X134741015Y-131537519D01*
X134834147Y-131676900D01*
X134898297Y-131831772D01*
X134931000Y-131996184D01*
X134931000Y-132163816D01*
X134898297Y-132328228D01*
X134834147Y-132483100D01*
X134741015Y-132622481D01*
X134622481Y-132741015D01*
X134483100Y-132834147D01*
X134328228Y-132898297D01*
X134163816Y-132931000D01*
X133996184Y-132931000D01*
X133831772Y-132898297D01*
X133676900Y-132834147D01*
X133537519Y-132741015D01*
X133418985Y-132622481D01*
X133325853Y-132483100D01*
X133261703Y-132328228D01*
X133229000Y-132163816D01*
X133229000Y-131996184D01*
X133261703Y-131831772D01*
X133325853Y-131676900D01*
X133418985Y-131537519D01*
X133537519Y-131418985D01*
X133676900Y-131325853D01*
X133831772Y-131261703D01*
X133996184Y-131229000D01*
X134163816Y-131229000D01*
X134328228Y-131261703D01*
G37*
G36*
X131788228Y-131261703D02*
G01*
X131943100Y-131325853D01*
X132082481Y-131418985D01*
X132201015Y-131537519D01*
X132294147Y-131676900D01*
X132358297Y-131831772D01*
X132391000Y-131996184D01*
X132391000Y-132163816D01*
X132358297Y-132328228D01*
X132294147Y-132483100D01*
X132201015Y-132622481D01*
X132082481Y-132741015D01*
X131943100Y-132834147D01*
X131788228Y-132898297D01*
X131623816Y-132931000D01*
X131456184Y-132931000D01*
X131291772Y-132898297D01*
X131136900Y-132834147D01*
X130997519Y-132741015D01*
X130878985Y-132622481D01*
X130785853Y-132483100D01*
X130721703Y-132328228D01*
X130689000Y-132163816D01*
X130689000Y-131996184D01*
X130721703Y-131831772D01*
X130785853Y-131676900D01*
X130878985Y-131537519D01*
X130997519Y-131418985D01*
X131136900Y-131325853D01*
X131291772Y-131261703D01*
X131456184Y-131229000D01*
X131623816Y-131229000D01*
X131788228Y-131261703D01*
G37*
G36*
X129248228Y-131261703D02*
G01*
X129403100Y-131325853D01*
X129542481Y-131418985D01*
X129661015Y-131537519D01*
X129754147Y-131676900D01*
X129818297Y-131831772D01*
X129851000Y-131996184D01*
X129851000Y-132163816D01*
X129818297Y-132328228D01*
X129754147Y-132483100D01*
X129661015Y-132622481D01*
X129542481Y-132741015D01*
X129403100Y-132834147D01*
X129248228Y-132898297D01*
X129083816Y-132931000D01*
X128916184Y-132931000D01*
X128751772Y-132898297D01*
X128596900Y-132834147D01*
X128457519Y-132741015D01*
X128338985Y-132622481D01*
X128245853Y-132483100D01*
X128181703Y-132328228D01*
X128149000Y-132163816D01*
X128149000Y-131996184D01*
X128181703Y-131831772D01*
X128245853Y-131676900D01*
X128338985Y-131537519D01*
X128457519Y-131418985D01*
X128596900Y-131325853D01*
X128751772Y-131261703D01*
X128916184Y-131229000D01*
X129083816Y-131229000D01*
X129248228Y-131261703D01*
G37*
G36*
X126708228Y-131261703D02*
G01*
X126863100Y-131325853D01*
X127002481Y-131418985D01*
X127121015Y-131537519D01*
X127214147Y-131676900D01*
X127278297Y-131831772D01*
X127311000Y-131996184D01*
X127311000Y-132163816D01*
X127278297Y-132328228D01*
X127214147Y-132483100D01*
X127121015Y-132622481D01*
X127002481Y-132741015D01*
X126863100Y-132834147D01*
X126708228Y-132898297D01*
X126543816Y-132931000D01*
X126376184Y-132931000D01*
X126211772Y-132898297D01*
X126056900Y-132834147D01*
X125917519Y-132741015D01*
X125798985Y-132622481D01*
X125705853Y-132483100D01*
X125641703Y-132328228D01*
X125609000Y-132163816D01*
X125609000Y-131996184D01*
X125641703Y-131831772D01*
X125705853Y-131676900D01*
X125798985Y-131537519D01*
X125917519Y-131418985D01*
X126056900Y-131325853D01*
X126211772Y-131261703D01*
X126376184Y-131229000D01*
X126543816Y-131229000D01*
X126708228Y-131261703D01*
G37*
G36*
X121628228Y-131261703D02*
G01*
X121783100Y-131325853D01*
X121922481Y-131418985D01*
X122041015Y-131537519D01*
X122134147Y-131676900D01*
X122198297Y-131831772D01*
X122231000Y-131996184D01*
X122231000Y-132163816D01*
X122198297Y-132328228D01*
X122134147Y-132483100D01*
X122041015Y-132622481D01*
X121922481Y-132741015D01*
X121783100Y-132834147D01*
X121628228Y-132898297D01*
X121463816Y-132931000D01*
X121296184Y-132931000D01*
X121131772Y-132898297D01*
X120976900Y-132834147D01*
X120837519Y-132741015D01*
X120718985Y-132622481D01*
X120625853Y-132483100D01*
X120561703Y-132328228D01*
X120529000Y-132163816D01*
X120529000Y-131996184D01*
X120561703Y-131831772D01*
X120625853Y-131676900D01*
X120718985Y-131537519D01*
X120837519Y-131418985D01*
X120976900Y-131325853D01*
X121131772Y-131261703D01*
X121296184Y-131229000D01*
X121463816Y-131229000D01*
X121628228Y-131261703D01*
G37*
G36*
X124168228Y-131261703D02*
G01*
X124323100Y-131325853D01*
X124462481Y-131418985D01*
X124581015Y-131537519D01*
X124674147Y-131676900D01*
X124738297Y-131831772D01*
X124771000Y-131996184D01*
X124771000Y-132163816D01*
X124738297Y-132328228D01*
X124674147Y-132483100D01*
X124581015Y-132622481D01*
X124462481Y-132741015D01*
X124323100Y-132834147D01*
X124168228Y-132898297D01*
X124003816Y-132931000D01*
X123836184Y-132931000D01*
X123671772Y-132898297D01*
X123516900Y-132834147D01*
X123377519Y-132741015D01*
X123258985Y-132622481D01*
X123165853Y-132483100D01*
X123101703Y-132328228D01*
X123069000Y-132163816D01*
X123069000Y-131996184D01*
X123101703Y-131831772D01*
X123165853Y-131676900D01*
X123258985Y-131537519D01*
X123377519Y-131418985D01*
X123516900Y-131325853D01*
X123671772Y-131261703D01*
X123836184Y-131229000D01*
X124003816Y-131229000D01*
X124168228Y-131261703D01*
G37*
G36*
X116548228Y-131261703D02*
G01*
X116703100Y-131325853D01*
X116842481Y-131418985D01*
X116961015Y-131537519D01*
X117054147Y-131676900D01*
X117118297Y-131831772D01*
X117151000Y-131996184D01*
X117151000Y-132163816D01*
X117118297Y-132328228D01*
X117054147Y-132483100D01*
X116961015Y-132622481D01*
X116842481Y-132741015D01*
X116703100Y-132834147D01*
X116548228Y-132898297D01*
X116383816Y-132931000D01*
X116216184Y-132931000D01*
X116051772Y-132898297D01*
X115896900Y-132834147D01*
X115757519Y-132741015D01*
X115638985Y-132622481D01*
X115545853Y-132483100D01*
X115481703Y-132328228D01*
X115449000Y-132163816D01*
X115449000Y-131996184D01*
X115481703Y-131831772D01*
X115545853Y-131676900D01*
X115638985Y-131537519D01*
X115757519Y-131418985D01*
X115896900Y-131325853D01*
X116051772Y-131261703D01*
X116216184Y-131229000D01*
X116383816Y-131229000D01*
X116548228Y-131261703D01*
G37*
G36*
X114008228Y-131261703D02*
G01*
X114163100Y-131325853D01*
X114302481Y-131418985D01*
X114421015Y-131537519D01*
X114514147Y-131676900D01*
X114578297Y-131831772D01*
X114611000Y-131996184D01*
X114611000Y-132163816D01*
X114578297Y-132328228D01*
X114514147Y-132483100D01*
X114421015Y-132622481D01*
X114302481Y-132741015D01*
X114163100Y-132834147D01*
X114008228Y-132898297D01*
X113843816Y-132931000D01*
X113676184Y-132931000D01*
X113511772Y-132898297D01*
X113356900Y-132834147D01*
X113217519Y-132741015D01*
X113098985Y-132622481D01*
X113005853Y-132483100D01*
X112941703Y-132328228D01*
X112909000Y-132163816D01*
X112909000Y-131996184D01*
X112941703Y-131831772D01*
X113005853Y-131676900D01*
X113098985Y-131537519D01*
X113217519Y-131418985D01*
X113356900Y-131325853D01*
X113511772Y-131261703D01*
X113676184Y-131229000D01*
X113843816Y-131229000D01*
X114008228Y-131261703D01*
G37*
G36*
X111468228Y-131261703D02*
G01*
X111623100Y-131325853D01*
X111762481Y-131418985D01*
X111881015Y-131537519D01*
X111974147Y-131676900D01*
X112038297Y-131831772D01*
X112071000Y-131996184D01*
X112071000Y-132163816D01*
X112038297Y-132328228D01*
X111974147Y-132483100D01*
X111881015Y-132622481D01*
X111762481Y-132741015D01*
X111623100Y-132834147D01*
X111468228Y-132898297D01*
X111303816Y-132931000D01*
X111136184Y-132931000D01*
X110971772Y-132898297D01*
X110816900Y-132834147D01*
X110677519Y-132741015D01*
X110558985Y-132622481D01*
X110465853Y-132483100D01*
X110401703Y-132328228D01*
X110369000Y-132163816D01*
X110369000Y-131996184D01*
X110401703Y-131831772D01*
X110465853Y-131676900D01*
X110558985Y-131537519D01*
X110677519Y-131418985D01*
X110816900Y-131325853D01*
X110971772Y-131261703D01*
X111136184Y-131229000D01*
X111303816Y-131229000D01*
X111468228Y-131261703D01*
G37*
G36*
X108928228Y-131261703D02*
G01*
X109083100Y-131325853D01*
X109222481Y-131418985D01*
X109341015Y-131537519D01*
X109434147Y-131676900D01*
X109498297Y-131831772D01*
X109531000Y-131996184D01*
X109531000Y-132163816D01*
X109498297Y-132328228D01*
X109434147Y-132483100D01*
X109341015Y-132622481D01*
X109222481Y-132741015D01*
X109083100Y-132834147D01*
X108928228Y-132898297D01*
X108763816Y-132931000D01*
X108596184Y-132931000D01*
X108431772Y-132898297D01*
X108276900Y-132834147D01*
X108137519Y-132741015D01*
X108018985Y-132622481D01*
X107925853Y-132483100D01*
X107861703Y-132328228D01*
X107829000Y-132163816D01*
X107829000Y-131996184D01*
X107861703Y-131831772D01*
X107925853Y-131676900D01*
X108018985Y-131537519D01*
X108137519Y-131418985D01*
X108276900Y-131325853D01*
X108431772Y-131261703D01*
X108596184Y-131229000D01*
X108763816Y-131229000D01*
X108928228Y-131261703D01*
G37*
G36*
X106991000Y-132931000D02*
G01*
X105289000Y-132931000D01*
X105289000Y-131229000D01*
X106991000Y-131229000D01*
X106991000Y-132931000D01*
G37*
G36*
X119088228Y-131261703D02*
G01*
X119243100Y-131325853D01*
X119382481Y-131418985D01*
X119501015Y-131537519D01*
X119594147Y-131676900D01*
X119658297Y-131831772D01*
X119691000Y-131996184D01*
X119691000Y-132163816D01*
X119658297Y-132328228D01*
X119594147Y-132483100D01*
X119501015Y-132622481D01*
X119382481Y-132741015D01*
X119243100Y-132834147D01*
X119088228Y-132898297D01*
X118923816Y-132931000D01*
X118756184Y-132931000D01*
X118591772Y-132898297D01*
X118436900Y-132834147D01*
X118297519Y-132741015D01*
X118178985Y-132622481D01*
X118085853Y-132483100D01*
X118021703Y-132328228D01*
X117989000Y-132163816D01*
X117989000Y-131996184D01*
X118021703Y-131831772D01*
X118085853Y-131676900D01*
X118178985Y-131537519D01*
X118297519Y-131418985D01*
X118436900Y-131325853D01*
X118591772Y-131261703D01*
X118756184Y-131229000D01*
X118923816Y-131229000D01*
X119088228Y-131261703D01*
G37*
G36*
X151562077Y-130199210D02*
G01*
X151562079Y-130199211D01*
X151562080Y-130199211D01*
X151677679Y-130247093D01*
X151781715Y-130316608D01*
X151870191Y-130405084D01*
X151939706Y-130509120D01*
X151987588Y-130624719D01*
X151987589Y-130624722D01*
X152011999Y-130747437D01*
X152011999Y-130872563D01*
X151990916Y-130978554D01*
X151987588Y-130995281D01*
X151939706Y-131110880D01*
X151870191Y-131214916D01*
X151781715Y-131303392D01*
X151677679Y-131372907D01*
X151562080Y-131420789D01*
X151562079Y-131420789D01*
X151562077Y-131420790D01*
X151439362Y-131445200D01*
X151314236Y-131445200D01*
X151191521Y-131420790D01*
X151191519Y-131420789D01*
X151191518Y-131420789D01*
X151075919Y-131372907D01*
X150971883Y-131303392D01*
X150883407Y-131214916D01*
X150813892Y-131110880D01*
X150766010Y-130995281D01*
X150762683Y-130978554D01*
X150741599Y-130872563D01*
X150741599Y-130747437D01*
X150766009Y-130624722D01*
X150766010Y-130624719D01*
X150813892Y-130509120D01*
X150883407Y-130405084D01*
X150971883Y-130316608D01*
X151075919Y-130247093D01*
X151191518Y-130199211D01*
X151191519Y-130199211D01*
X151191521Y-130199210D01*
X151314236Y-130174800D01*
X151439362Y-130174800D01*
X151562077Y-130199210D01*
G37*
G36*
X149362079Y-130199210D02*
G01*
X149362081Y-130199211D01*
X149362082Y-130199211D01*
X149477681Y-130247093D01*
X149581717Y-130316608D01*
X149670193Y-130405084D01*
X149739708Y-130509120D01*
X149787590Y-130624719D01*
X149787591Y-130624722D01*
X149812001Y-130747437D01*
X149812001Y-130872563D01*
X149790918Y-130978554D01*
X149787590Y-130995281D01*
X149739708Y-131110880D01*
X149670193Y-131214916D01*
X149581717Y-131303392D01*
X149477681Y-131372907D01*
X149362082Y-131420789D01*
X149362081Y-131420789D01*
X149362079Y-131420790D01*
X149239364Y-131445200D01*
X149114238Y-131445200D01*
X148991523Y-131420790D01*
X148991521Y-131420789D01*
X148991520Y-131420789D01*
X148875921Y-131372907D01*
X148771885Y-131303392D01*
X148683409Y-131214916D01*
X148613894Y-131110880D01*
X148566012Y-130995281D01*
X148562685Y-130978554D01*
X148541601Y-130872563D01*
X148541601Y-130747437D01*
X148566011Y-130624722D01*
X148566012Y-130624719D01*
X148613894Y-130509120D01*
X148683409Y-130405084D01*
X148771885Y-130316608D01*
X148875921Y-130247093D01*
X148991520Y-130199211D01*
X148991521Y-130199211D01*
X148991523Y-130199210D01*
X149114238Y-130174800D01*
X149239364Y-130174800D01*
X149362079Y-130199210D01*
G37*
G36*
X147162078Y-130199210D02*
G01*
X147162080Y-130199211D01*
X147162081Y-130199211D01*
X147277680Y-130247093D01*
X147381716Y-130316608D01*
X147470192Y-130405084D01*
X147539707Y-130509120D01*
X147587589Y-130624719D01*
X147587590Y-130624722D01*
X147612000Y-130747437D01*
X147612000Y-130872563D01*
X147590917Y-130978554D01*
X147587589Y-130995281D01*
X147539707Y-131110880D01*
X147470192Y-131214916D01*
X147381716Y-131303392D01*
X147277680Y-131372907D01*
X147162081Y-131420789D01*
X147162080Y-131420789D01*
X147162078Y-131420790D01*
X147039363Y-131445200D01*
X146914237Y-131445200D01*
X146791522Y-131420790D01*
X146791520Y-131420789D01*
X146791519Y-131420789D01*
X146675920Y-131372907D01*
X146571884Y-131303392D01*
X146483408Y-131214916D01*
X146413893Y-131110880D01*
X146366011Y-130995281D01*
X146362684Y-130978554D01*
X146341600Y-130872563D01*
X146341600Y-130747437D01*
X146366010Y-130624722D01*
X146366011Y-130624719D01*
X146413893Y-130509120D01*
X146483408Y-130405084D01*
X146571884Y-130316608D01*
X146675920Y-130247093D01*
X146791519Y-130199211D01*
X146791520Y-130199211D01*
X146791522Y-130199210D01*
X146914237Y-130174800D01*
X147039363Y-130174800D01*
X147162078Y-130199210D01*
G37*
G36*
X143961678Y-130199210D02*
G01*
X143961680Y-130199211D01*
X143961681Y-130199211D01*
X144077280Y-130247093D01*
X144181316Y-130316608D01*
X144269792Y-130405084D01*
X144339307Y-130509120D01*
X144387189Y-130624719D01*
X144387190Y-130624722D01*
X144411600Y-130747437D01*
X144411600Y-130872563D01*
X144390517Y-130978554D01*
X144387189Y-130995281D01*
X144339307Y-131110880D01*
X144269792Y-131214916D01*
X144181316Y-131303392D01*
X144077280Y-131372907D01*
X143961681Y-131420789D01*
X143961680Y-131420789D01*
X143961678Y-131420790D01*
X143838963Y-131445200D01*
X143713837Y-131445200D01*
X143591122Y-131420790D01*
X143591120Y-131420789D01*
X143591119Y-131420789D01*
X143475520Y-131372907D01*
X143371484Y-131303392D01*
X143283008Y-131214916D01*
X143213493Y-131110880D01*
X143165611Y-130995281D01*
X143162284Y-130978554D01*
X143141200Y-130872563D01*
X143141200Y-130747437D01*
X143165610Y-130624722D01*
X143165611Y-130624719D01*
X143213493Y-130509120D01*
X143283008Y-130405084D01*
X143371484Y-130316608D01*
X143475520Y-130247093D01*
X143591119Y-130199211D01*
X143591120Y-130199211D01*
X143591122Y-130199210D01*
X143713837Y-130174800D01*
X143838963Y-130174800D01*
X143961678Y-130199210D01*
G37*
G36*
X168461855Y-129868140D02*
G01*
X168525618Y-129874420D01*
X168616404Y-129901960D01*
X168648336Y-129911646D01*
X168761425Y-129972094D01*
X168860554Y-130053446D01*
X168941906Y-130152575D01*
X169002354Y-130265664D01*
X169010343Y-130292000D01*
X169039580Y-130388382D01*
X169052149Y-130516000D01*
X169039580Y-130643618D01*
X169019912Y-130708453D01*
X169002354Y-130766336D01*
X168941906Y-130879425D01*
X168860554Y-130978554D01*
X168761425Y-131059906D01*
X168648336Y-131120354D01*
X168616404Y-131130040D01*
X168525618Y-131157580D01*
X168461855Y-131163860D01*
X168429974Y-131167000D01*
X167666026Y-131167000D01*
X167634145Y-131163860D01*
X167570382Y-131157580D01*
X167479596Y-131130040D01*
X167447664Y-131120354D01*
X167334575Y-131059906D01*
X167235446Y-130978554D01*
X167154094Y-130879425D01*
X167093646Y-130766336D01*
X167076088Y-130708453D01*
X167056420Y-130643618D01*
X167043851Y-130516000D01*
X167056420Y-130388382D01*
X167085657Y-130292000D01*
X167093646Y-130265664D01*
X167154094Y-130152575D01*
X167235446Y-130053446D01*
X167334575Y-129972094D01*
X167447664Y-129911646D01*
X167479596Y-129901960D01*
X167570382Y-129874420D01*
X167634145Y-129868140D01*
X167666026Y-129865000D01*
X168429974Y-129865000D01*
X168461855Y-129868140D01*
G37*
G36*
X161059395Y-128879546D02*
G01*
X161232466Y-128951234D01*
X161309818Y-129002919D01*
X161388227Y-129055310D01*
X161520690Y-129187773D01*
X161520691Y-129187775D01*
X161624766Y-129343534D01*
X161696454Y-129516605D01*
X161733000Y-129700333D01*
X161733000Y-129887667D01*
X161696454Y-130071395D01*
X161624766Y-130244466D01*
X161593005Y-130292000D01*
X161520690Y-130400227D01*
X161388227Y-130532690D01*
X161309818Y-130585081D01*
X161232466Y-130636766D01*
X161059395Y-130708454D01*
X160875667Y-130745000D01*
X160688333Y-130745000D01*
X160504605Y-130708454D01*
X160331534Y-130636766D01*
X160254182Y-130585081D01*
X160175773Y-130532690D01*
X160043310Y-130400227D01*
X159970995Y-130292000D01*
X159939234Y-130244466D01*
X159867546Y-130071395D01*
X159831000Y-129887667D01*
X159831000Y-129700333D01*
X159867546Y-129516605D01*
X159939234Y-129343534D01*
X160043309Y-129187775D01*
X160043310Y-129187773D01*
X160175773Y-129055310D01*
X160254182Y-129002919D01*
X160331534Y-128951234D01*
X160504605Y-128879546D01*
X160688333Y-128843000D01*
X160875667Y-128843000D01*
X161059395Y-128879546D01*
G37*
G36*
X99845395Y-128625546D02*
G01*
X100018466Y-128697234D01*
X100018467Y-128697235D01*
X100174227Y-128801310D01*
X100306690Y-128933773D01*
X100336226Y-128977977D01*
X100410766Y-129089534D01*
X100482454Y-129262605D01*
X100519000Y-129446333D01*
X100519000Y-129633667D01*
X100482454Y-129817395D01*
X100410766Y-129990466D01*
X100410765Y-129990467D01*
X100306690Y-130146227D01*
X100174227Y-130278690D01*
X100154307Y-130292000D01*
X100018466Y-130382766D01*
X99845395Y-130454454D01*
X99661667Y-130491000D01*
X99474333Y-130491000D01*
X99290605Y-130454454D01*
X99117534Y-130382766D01*
X98981693Y-130292000D01*
X98961773Y-130278690D01*
X98829310Y-130146227D01*
X98725235Y-129990467D01*
X98725234Y-129990466D01*
X98653546Y-129817395D01*
X98617000Y-129633667D01*
X98617000Y-129446333D01*
X98653546Y-129262605D01*
X98725234Y-129089534D01*
X98799774Y-128977977D01*
X98829310Y-128933773D01*
X98961773Y-128801310D01*
X99117533Y-128697235D01*
X99117534Y-128697234D01*
X99290605Y-128625546D01*
X99474333Y-128589000D01*
X99661667Y-128589000D01*
X99845395Y-128625546D01*
G37*
G36*
X165574348Y-128769820D02*
G01*
X165574350Y-128769821D01*
X165574351Y-128769821D01*
X165715574Y-128828317D01*
X165715577Y-128828319D01*
X165842669Y-128913239D01*
X165950761Y-129021331D01*
X166011766Y-129112632D01*
X166035683Y-129148426D01*
X166082977Y-129262605D01*
X166094180Y-129289652D01*
X166124000Y-129439569D01*
X166124000Y-129592431D01*
X166102537Y-129700335D01*
X166094179Y-129742351D01*
X166035683Y-129883574D01*
X166035681Y-129883577D01*
X165950761Y-130010669D01*
X165842669Y-130118761D01*
X165722268Y-130199210D01*
X165715574Y-130203683D01*
X165574351Y-130262179D01*
X165574350Y-130262179D01*
X165574348Y-130262180D01*
X165424431Y-130292000D01*
X165271569Y-130292000D01*
X165121652Y-130262180D01*
X165121650Y-130262179D01*
X165121649Y-130262179D01*
X164980426Y-130203683D01*
X164973732Y-130199210D01*
X164853331Y-130118761D01*
X164745239Y-130010669D01*
X164660319Y-129883577D01*
X164660317Y-129883574D01*
X164601821Y-129742351D01*
X164593464Y-129700335D01*
X164572000Y-129592431D01*
X164572000Y-129439569D01*
X164601820Y-129289652D01*
X164613023Y-129262605D01*
X164660317Y-129148426D01*
X164684234Y-129112632D01*
X164745239Y-129021331D01*
X164853331Y-128913239D01*
X164980423Y-128828319D01*
X164980426Y-128828317D01*
X165121649Y-128769821D01*
X165121650Y-128769821D01*
X165121652Y-128769820D01*
X165271569Y-128740000D01*
X165424431Y-128740000D01*
X165574348Y-128769820D01*
G37*
G36*
X92369561Y-127352966D02*
G01*
X92402383Y-127362923D01*
X92432632Y-127379092D01*
X92459148Y-127400852D01*
X92480908Y-127427368D01*
X92497077Y-127457617D01*
X92507034Y-127490439D01*
X92511000Y-127530713D01*
X92511000Y-129009287D01*
X92507034Y-129049561D01*
X92497077Y-129082383D01*
X92480908Y-129112632D01*
X92459148Y-129139148D01*
X92432632Y-129160908D01*
X92402383Y-129177077D01*
X92369561Y-129187034D01*
X92329287Y-129191000D01*
X90390713Y-129191000D01*
X90350439Y-129187034D01*
X90317617Y-129177077D01*
X90287368Y-129160908D01*
X90260852Y-129139148D01*
X90239092Y-129112632D01*
X90222923Y-129082383D01*
X90212966Y-129049561D01*
X90209000Y-129009287D01*
X90209000Y-127530713D01*
X90212966Y-127490439D01*
X90222923Y-127457617D01*
X90239092Y-127427368D01*
X90260852Y-127400852D01*
X90287368Y-127379092D01*
X90317617Y-127362923D01*
X90350439Y-127352966D01*
X90390713Y-127349000D01*
X92329287Y-127349000D01*
X92369561Y-127352966D01*
G37*
G36*
X99845395Y-126085546D02*
G01*
X100018466Y-126157234D01*
X100018467Y-126157235D01*
X100174227Y-126261310D01*
X100306690Y-126393773D01*
X100306691Y-126393775D01*
X100410766Y-126549534D01*
X100482454Y-126722605D01*
X100519000Y-126906333D01*
X100519000Y-127093667D01*
X100482454Y-127277395D01*
X100410766Y-127450466D01*
X100410765Y-127450467D01*
X100306690Y-127606227D01*
X100174227Y-127738690D01*
X100164783Y-127745000D01*
X100018466Y-127842766D01*
X99845395Y-127914454D01*
X99661667Y-127951000D01*
X99474333Y-127951000D01*
X99290605Y-127914454D01*
X99117534Y-127842766D01*
X98971217Y-127745000D01*
X98961773Y-127738690D01*
X98829310Y-127606227D01*
X98725235Y-127450467D01*
X98725234Y-127450466D01*
X98653546Y-127277395D01*
X98617000Y-127093667D01*
X98617000Y-126906333D01*
X98653546Y-126722605D01*
X98725234Y-126549534D01*
X98829309Y-126393775D01*
X98829310Y-126393773D01*
X98961773Y-126261310D01*
X99117533Y-126157235D01*
X99117534Y-126157234D01*
X99290605Y-126085546D01*
X99474333Y-126049000D01*
X99661667Y-126049000D01*
X99845395Y-126085546D01*
G37*
G36*
X156059395Y-125879546D02*
G01*
X156232466Y-125951234D01*
X156232467Y-125951235D01*
X156388227Y-126055310D01*
X156520690Y-126187773D01*
X156520691Y-126187775D01*
X156624766Y-126343534D01*
X156696454Y-126516605D01*
X156733000Y-126700333D01*
X156733000Y-126887667D01*
X156696454Y-127071395D01*
X156624766Y-127244466D01*
X156602763Y-127277396D01*
X156520690Y-127400227D01*
X156388227Y-127532690D01*
X156344327Y-127562023D01*
X156232466Y-127636766D01*
X156059395Y-127708454D01*
X155875667Y-127745000D01*
X155688333Y-127745000D01*
X155504605Y-127708454D01*
X155331534Y-127636766D01*
X155219673Y-127562023D01*
X155175773Y-127532690D01*
X155043310Y-127400227D01*
X154961237Y-127277396D01*
X154939234Y-127244466D01*
X154867546Y-127071395D01*
X154831000Y-126887667D01*
X154831000Y-126700333D01*
X154867546Y-126516605D01*
X154939234Y-126343534D01*
X155043309Y-126187775D01*
X155043310Y-126187773D01*
X155175773Y-126055310D01*
X155331533Y-125951235D01*
X155331534Y-125951234D01*
X155504605Y-125879546D01*
X155688333Y-125843000D01*
X155875667Y-125843000D01*
X156059395Y-125879546D01*
G37*
G36*
X91680345Y-124813442D02*
G01*
X91770548Y-124822326D01*
X91944157Y-124874990D01*
X92104156Y-124960511D01*
X92147729Y-124996271D01*
X92244397Y-125075603D01*
X92319480Y-125167093D01*
X92359489Y-125215844D01*
X92445010Y-125375843D01*
X92497674Y-125549452D01*
X92515456Y-125730000D01*
X92497674Y-125910548D01*
X92445010Y-126084157D01*
X92359489Y-126244156D01*
X92323729Y-126287729D01*
X92244397Y-126384397D01*
X92147729Y-126463729D01*
X92104156Y-126499489D01*
X91944157Y-126585010D01*
X91770548Y-126637674D01*
X91680345Y-126646558D01*
X91635245Y-126651000D01*
X91084755Y-126651000D01*
X91039655Y-126646558D01*
X90949452Y-126637674D01*
X90775843Y-126585010D01*
X90615844Y-126499489D01*
X90572271Y-126463729D01*
X90475603Y-126384397D01*
X90396271Y-126287729D01*
X90360511Y-126244156D01*
X90274990Y-126084157D01*
X90222326Y-125910548D01*
X90204544Y-125730000D01*
X90222326Y-125549452D01*
X90274990Y-125375843D01*
X90360511Y-125215844D01*
X90400520Y-125167093D01*
X90475603Y-125075603D01*
X90572271Y-124996271D01*
X90615844Y-124960511D01*
X90775843Y-124874990D01*
X90949452Y-124822326D01*
X91039655Y-124813442D01*
X91084755Y-124809000D01*
X91635245Y-124809000D01*
X91680345Y-124813442D01*
G37*
G36*
X149362079Y-125119210D02*
G01*
X149362081Y-125119211D01*
X149362082Y-125119211D01*
X149477681Y-125167093D01*
X149581717Y-125236608D01*
X149670193Y-125325084D01*
X149739708Y-125429120D01*
X149787590Y-125544719D01*
X149787591Y-125544722D01*
X149812001Y-125667437D01*
X149812001Y-125792563D01*
X149788532Y-125910548D01*
X149787590Y-125915281D01*
X149739708Y-126030880D01*
X149670193Y-126134916D01*
X149581717Y-126223392D01*
X149477681Y-126292907D01*
X149362082Y-126340789D01*
X149362081Y-126340789D01*
X149362079Y-126340790D01*
X149239364Y-126365200D01*
X149114238Y-126365200D01*
X148991523Y-126340790D01*
X148991521Y-126340789D01*
X148991520Y-126340789D01*
X148875921Y-126292907D01*
X148771885Y-126223392D01*
X148683409Y-126134916D01*
X148613894Y-126030880D01*
X148566012Y-125915281D01*
X148565071Y-125910548D01*
X148541601Y-125792563D01*
X148541601Y-125667437D01*
X148566011Y-125544722D01*
X148566012Y-125544719D01*
X148613894Y-125429120D01*
X148683409Y-125325084D01*
X148771885Y-125236608D01*
X148875921Y-125167093D01*
X148991520Y-125119211D01*
X148991521Y-125119211D01*
X148991523Y-125119210D01*
X149114238Y-125094800D01*
X149239364Y-125094800D01*
X149362079Y-125119210D01*
G37*
G36*
X147162078Y-125119210D02*
G01*
X147162080Y-125119211D01*
X147162081Y-125119211D01*
X147277680Y-125167093D01*
X147381716Y-125236608D01*
X147470192Y-125325084D01*
X147539707Y-125429120D01*
X147587589Y-125544719D01*
X147587590Y-125544722D01*
X147612000Y-125667437D01*
X147612000Y-125792563D01*
X147588531Y-125910548D01*
X147587589Y-125915281D01*
X147539707Y-126030880D01*
X147470192Y-126134916D01*
X147381716Y-126223392D01*
X147277680Y-126292907D01*
X147162081Y-126340789D01*
X147162080Y-126340789D01*
X147162078Y-126340790D01*
X147039363Y-126365200D01*
X146914237Y-126365200D01*
X146791522Y-126340790D01*
X146791520Y-126340789D01*
X146791519Y-126340789D01*
X146675920Y-126292907D01*
X146571884Y-126223392D01*
X146483408Y-126134916D01*
X146413893Y-126030880D01*
X146366011Y-125915281D01*
X146365070Y-125910548D01*
X146341600Y-125792563D01*
X146341600Y-125667437D01*
X146366010Y-125544722D01*
X146366011Y-125544719D01*
X146413893Y-125429120D01*
X146483408Y-125325084D01*
X146571884Y-125236608D01*
X146675920Y-125167093D01*
X146791519Y-125119211D01*
X146791520Y-125119211D01*
X146791522Y-125119210D01*
X146914237Y-125094800D01*
X147039363Y-125094800D01*
X147162078Y-125119210D01*
G37*
G36*
X151562077Y-125119210D02*
G01*
X151562079Y-125119211D01*
X151562080Y-125119211D01*
X151677679Y-125167093D01*
X151781715Y-125236608D01*
X151870191Y-125325084D01*
X151939706Y-125429120D01*
X151987588Y-125544719D01*
X151987589Y-125544722D01*
X152011999Y-125667437D01*
X152011999Y-125792563D01*
X151988530Y-125910548D01*
X151987588Y-125915281D01*
X151939706Y-126030880D01*
X151870191Y-126134916D01*
X151781715Y-126223392D01*
X151677679Y-126292907D01*
X151562080Y-126340789D01*
X151562079Y-126340789D01*
X151562077Y-126340790D01*
X151439362Y-126365200D01*
X151314236Y-126365200D01*
X151191521Y-126340790D01*
X151191519Y-126340789D01*
X151191518Y-126340789D01*
X151075919Y-126292907D01*
X150971883Y-126223392D01*
X150883407Y-126134916D01*
X150813892Y-126030880D01*
X150766010Y-125915281D01*
X150765069Y-125910548D01*
X150741599Y-125792563D01*
X150741599Y-125667437D01*
X150766009Y-125544722D01*
X150766010Y-125544719D01*
X150813892Y-125429120D01*
X150883407Y-125325084D01*
X150971883Y-125236608D01*
X151075919Y-125167093D01*
X151191518Y-125119211D01*
X151191519Y-125119211D01*
X151191521Y-125119210D01*
X151314236Y-125094800D01*
X151439362Y-125094800D01*
X151562077Y-125119210D01*
G37*
G36*
X143961678Y-125119210D02*
G01*
X143961680Y-125119211D01*
X143961681Y-125119211D01*
X144077280Y-125167093D01*
X144181316Y-125236608D01*
X144269792Y-125325084D01*
X144339307Y-125429120D01*
X144387189Y-125544719D01*
X144387190Y-125544722D01*
X144411600Y-125667437D01*
X144411600Y-125792563D01*
X144388131Y-125910548D01*
X144387189Y-125915281D01*
X144339307Y-126030880D01*
X144269792Y-126134916D01*
X144181316Y-126223392D01*
X144077280Y-126292907D01*
X143961681Y-126340789D01*
X143961680Y-126340789D01*
X143961678Y-126340790D01*
X143838963Y-126365200D01*
X143713837Y-126365200D01*
X143591122Y-126340790D01*
X143591120Y-126340789D01*
X143591119Y-126340789D01*
X143475520Y-126292907D01*
X143371484Y-126223392D01*
X143283008Y-126134916D01*
X143213493Y-126030880D01*
X143165611Y-125915281D01*
X143164670Y-125910548D01*
X143141200Y-125792563D01*
X143141200Y-125667437D01*
X143165610Y-125544722D01*
X143165611Y-125544719D01*
X143213493Y-125429120D01*
X143283008Y-125325084D01*
X143371484Y-125236608D01*
X143475520Y-125167093D01*
X143591119Y-125119211D01*
X143591120Y-125119211D01*
X143591122Y-125119210D01*
X143713837Y-125094800D01*
X143838963Y-125094800D01*
X143961678Y-125119210D01*
G37*
G36*
X100380457Y-123512897D02*
G01*
X100412602Y-123522649D01*
X100442230Y-123538485D01*
X100468201Y-123559799D01*
X100489515Y-123585770D01*
X100505351Y-123615398D01*
X100515103Y-123647543D01*
X100519000Y-123687114D01*
X100519000Y-125232886D01*
X100515103Y-125272457D01*
X100505351Y-125304602D01*
X100489515Y-125334230D01*
X100468201Y-125360201D01*
X100442230Y-125381515D01*
X100412602Y-125397351D01*
X100380457Y-125407103D01*
X100340886Y-125411000D01*
X98795114Y-125411000D01*
X98755543Y-125407103D01*
X98723398Y-125397351D01*
X98693770Y-125381515D01*
X98667799Y-125360201D01*
X98646485Y-125334230D01*
X98630649Y-125304602D01*
X98620897Y-125272457D01*
X98617000Y-125232886D01*
X98617000Y-123687114D01*
X98620897Y-123647543D01*
X98630649Y-123615398D01*
X98646485Y-123585770D01*
X98667799Y-123559799D01*
X98693770Y-123538485D01*
X98723398Y-123522649D01*
X98755543Y-123512897D01*
X98795114Y-123509000D01*
X100340886Y-123509000D01*
X100380457Y-123512897D01*
G37*
G36*
X121628228Y-123641703D02*
G01*
X121783100Y-123705853D01*
X121922481Y-123798985D01*
X122041015Y-123917519D01*
X122134147Y-124056900D01*
X122198297Y-124211772D01*
X122231000Y-124376184D01*
X122231000Y-124543816D01*
X122198297Y-124708228D01*
X122134147Y-124863100D01*
X122041015Y-125002481D01*
X121922481Y-125121015D01*
X121783100Y-125214147D01*
X121628228Y-125278297D01*
X121463816Y-125311000D01*
X121296184Y-125311000D01*
X121131772Y-125278297D01*
X120976900Y-125214147D01*
X120837519Y-125121015D01*
X120718985Y-125002481D01*
X120625853Y-124863100D01*
X120561703Y-124708228D01*
X120529000Y-124543816D01*
X120529000Y-124376184D01*
X120561703Y-124211772D01*
X120625853Y-124056900D01*
X120718985Y-123917519D01*
X120837519Y-123798985D01*
X120976900Y-123705853D01*
X121131772Y-123641703D01*
X121296184Y-123609000D01*
X121463816Y-123609000D01*
X121628228Y-123641703D01*
G37*
G36*
X108928228Y-123641703D02*
G01*
X109083100Y-123705853D01*
X109222481Y-123798985D01*
X109341015Y-123917519D01*
X109434147Y-124056900D01*
X109498297Y-124211772D01*
X109531000Y-124376184D01*
X109531000Y-124543816D01*
X109498297Y-124708228D01*
X109434147Y-124863100D01*
X109341015Y-125002481D01*
X109222481Y-125121015D01*
X109083100Y-125214147D01*
X108928228Y-125278297D01*
X108763816Y-125311000D01*
X108596184Y-125311000D01*
X108431772Y-125278297D01*
X108276900Y-125214147D01*
X108137519Y-125121015D01*
X108018985Y-125002481D01*
X107925853Y-124863100D01*
X107861703Y-124708228D01*
X107829000Y-124543816D01*
X107829000Y-124376184D01*
X107861703Y-124211772D01*
X107925853Y-124056900D01*
X108018985Y-123917519D01*
X108137519Y-123798985D01*
X108276900Y-123705853D01*
X108431772Y-123641703D01*
X108596184Y-123609000D01*
X108763816Y-123609000D01*
X108928228Y-123641703D01*
G37*
G36*
X111468228Y-123641703D02*
G01*
X111623100Y-123705853D01*
X111762481Y-123798985D01*
X111881015Y-123917519D01*
X111974147Y-124056900D01*
X112038297Y-124211772D01*
X112071000Y-124376184D01*
X112071000Y-124543816D01*
X112038297Y-124708228D01*
X111974147Y-124863100D01*
X111881015Y-125002481D01*
X111762481Y-125121015D01*
X111623100Y-125214147D01*
X111468228Y-125278297D01*
X111303816Y-125311000D01*
X111136184Y-125311000D01*
X110971772Y-125278297D01*
X110816900Y-125214147D01*
X110677519Y-125121015D01*
X110558985Y-125002481D01*
X110465853Y-124863100D01*
X110401703Y-124708228D01*
X110369000Y-124543816D01*
X110369000Y-124376184D01*
X110401703Y-124211772D01*
X110465853Y-124056900D01*
X110558985Y-123917519D01*
X110677519Y-123798985D01*
X110816900Y-123705853D01*
X110971772Y-123641703D01*
X111136184Y-123609000D01*
X111303816Y-123609000D01*
X111468228Y-123641703D01*
G37*
G36*
X114008228Y-123641703D02*
G01*
X114163100Y-123705853D01*
X114302481Y-123798985D01*
X114421015Y-123917519D01*
X114514147Y-124056900D01*
X114578297Y-124211772D01*
X114611000Y-124376184D01*
X114611000Y-124543816D01*
X114578297Y-124708228D01*
X114514147Y-124863100D01*
X114421015Y-125002481D01*
X114302481Y-125121015D01*
X114163100Y-125214147D01*
X114008228Y-125278297D01*
X113843816Y-125311000D01*
X113676184Y-125311000D01*
X113511772Y-125278297D01*
X113356900Y-125214147D01*
X113217519Y-125121015D01*
X113098985Y-125002481D01*
X113005853Y-124863100D01*
X112941703Y-124708228D01*
X112909000Y-124543816D01*
X112909000Y-124376184D01*
X112941703Y-124211772D01*
X113005853Y-124056900D01*
X113098985Y-123917519D01*
X113217519Y-123798985D01*
X113356900Y-123705853D01*
X113511772Y-123641703D01*
X113676184Y-123609000D01*
X113843816Y-123609000D01*
X114008228Y-123641703D01*
G37*
G36*
X116548228Y-123641703D02*
G01*
X116703100Y-123705853D01*
X116842481Y-123798985D01*
X116961015Y-123917519D01*
X117054147Y-124056900D01*
X117118297Y-124211772D01*
X117151000Y-124376184D01*
X117151000Y-124543816D01*
X117118297Y-124708228D01*
X117054147Y-124863100D01*
X116961015Y-125002481D01*
X116842481Y-125121015D01*
X116703100Y-125214147D01*
X116548228Y-125278297D01*
X116383816Y-125311000D01*
X116216184Y-125311000D01*
X116051772Y-125278297D01*
X115896900Y-125214147D01*
X115757519Y-125121015D01*
X115638985Y-125002481D01*
X115545853Y-124863100D01*
X115481703Y-124708228D01*
X115449000Y-124543816D01*
X115449000Y-124376184D01*
X115481703Y-124211772D01*
X115545853Y-124056900D01*
X115638985Y-123917519D01*
X115757519Y-123798985D01*
X115896900Y-123705853D01*
X116051772Y-123641703D01*
X116216184Y-123609000D01*
X116383816Y-123609000D01*
X116548228Y-123641703D01*
G37*
G36*
X119088228Y-123641703D02*
G01*
X119243100Y-123705853D01*
X119382481Y-123798985D01*
X119501015Y-123917519D01*
X119594147Y-124056900D01*
X119658297Y-124211772D01*
X119691000Y-124376184D01*
X119691000Y-124543816D01*
X119658297Y-124708228D01*
X119594147Y-124863100D01*
X119501015Y-125002481D01*
X119382481Y-125121015D01*
X119243100Y-125214147D01*
X119088228Y-125278297D01*
X118923816Y-125311000D01*
X118756184Y-125311000D01*
X118591772Y-125278297D01*
X118436900Y-125214147D01*
X118297519Y-125121015D01*
X118178985Y-125002481D01*
X118085853Y-124863100D01*
X118021703Y-124708228D01*
X117989000Y-124543816D01*
X117989000Y-124376184D01*
X118021703Y-124211772D01*
X118085853Y-124056900D01*
X118178985Y-123917519D01*
X118297519Y-123798985D01*
X118436900Y-123705853D01*
X118591772Y-123641703D01*
X118756184Y-123609000D01*
X118923816Y-123609000D01*
X119088228Y-123641703D01*
G37*
G36*
X124168228Y-123641703D02*
G01*
X124323100Y-123705853D01*
X124462481Y-123798985D01*
X124581015Y-123917519D01*
X124674147Y-124056900D01*
X124738297Y-124211772D01*
X124771000Y-124376184D01*
X124771000Y-124543816D01*
X124738297Y-124708228D01*
X124674147Y-124863100D01*
X124581015Y-125002481D01*
X124462481Y-125121015D01*
X124323100Y-125214147D01*
X124168228Y-125278297D01*
X124003816Y-125311000D01*
X123836184Y-125311000D01*
X123671772Y-125278297D01*
X123516900Y-125214147D01*
X123377519Y-125121015D01*
X123258985Y-125002481D01*
X123165853Y-124863100D01*
X123101703Y-124708228D01*
X123069000Y-124543816D01*
X123069000Y-124376184D01*
X123101703Y-124211772D01*
X123165853Y-124056900D01*
X123258985Y-123917519D01*
X123377519Y-123798985D01*
X123516900Y-123705853D01*
X123671772Y-123641703D01*
X123836184Y-123609000D01*
X124003816Y-123609000D01*
X124168228Y-123641703D01*
G37*
G36*
X139408228Y-123641703D02*
G01*
X139563100Y-123705853D01*
X139702481Y-123798985D01*
X139821015Y-123917519D01*
X139914147Y-124056900D01*
X139978297Y-124211772D01*
X140011000Y-124376184D01*
X140011000Y-124543816D01*
X139978297Y-124708228D01*
X139914147Y-124863100D01*
X139821015Y-125002481D01*
X139702481Y-125121015D01*
X139563100Y-125214147D01*
X139408228Y-125278297D01*
X139243816Y-125311000D01*
X139076184Y-125311000D01*
X138911772Y-125278297D01*
X138756900Y-125214147D01*
X138617519Y-125121015D01*
X138498985Y-125002481D01*
X138405853Y-124863100D01*
X138341703Y-124708228D01*
X138309000Y-124543816D01*
X138309000Y-124376184D01*
X138341703Y-124211772D01*
X138405853Y-124056900D01*
X138498985Y-123917519D01*
X138617519Y-123798985D01*
X138756900Y-123705853D01*
X138911772Y-123641703D01*
X139076184Y-123609000D01*
X139243816Y-123609000D01*
X139408228Y-123641703D01*
G37*
G36*
X129248228Y-123641703D02*
G01*
X129403100Y-123705853D01*
X129542481Y-123798985D01*
X129661015Y-123917519D01*
X129754147Y-124056900D01*
X129818297Y-124211772D01*
X129851000Y-124376184D01*
X129851000Y-124543816D01*
X129818297Y-124708228D01*
X129754147Y-124863100D01*
X129661015Y-125002481D01*
X129542481Y-125121015D01*
X129403100Y-125214147D01*
X129248228Y-125278297D01*
X129083816Y-125311000D01*
X128916184Y-125311000D01*
X128751772Y-125278297D01*
X128596900Y-125214147D01*
X128457519Y-125121015D01*
X128338985Y-125002481D01*
X128245853Y-124863100D01*
X128181703Y-124708228D01*
X128149000Y-124543816D01*
X128149000Y-124376184D01*
X128181703Y-124211772D01*
X128245853Y-124056900D01*
X128338985Y-123917519D01*
X128457519Y-123798985D01*
X128596900Y-123705853D01*
X128751772Y-123641703D01*
X128916184Y-123609000D01*
X129083816Y-123609000D01*
X129248228Y-123641703D01*
G37*
G36*
X131788228Y-123641703D02*
G01*
X131943100Y-123705853D01*
X132082481Y-123798985D01*
X132201015Y-123917519D01*
X132294147Y-124056900D01*
X132358297Y-124211772D01*
X132391000Y-124376184D01*
X132391000Y-124543816D01*
X132358297Y-124708228D01*
X132294147Y-124863100D01*
X132201015Y-125002481D01*
X132082481Y-125121015D01*
X131943100Y-125214147D01*
X131788228Y-125278297D01*
X131623816Y-125311000D01*
X131456184Y-125311000D01*
X131291772Y-125278297D01*
X131136900Y-125214147D01*
X130997519Y-125121015D01*
X130878985Y-125002481D01*
X130785853Y-124863100D01*
X130721703Y-124708228D01*
X130689000Y-124543816D01*
X130689000Y-124376184D01*
X130721703Y-124211772D01*
X130785853Y-124056900D01*
X130878985Y-123917519D01*
X130997519Y-123798985D01*
X131136900Y-123705853D01*
X131291772Y-123641703D01*
X131456184Y-123609000D01*
X131623816Y-123609000D01*
X131788228Y-123641703D01*
G37*
G36*
X134328228Y-123641703D02*
G01*
X134483100Y-123705853D01*
X134622481Y-123798985D01*
X134741015Y-123917519D01*
X134834147Y-124056900D01*
X134898297Y-124211772D01*
X134931000Y-124376184D01*
X134931000Y-124543816D01*
X134898297Y-124708228D01*
X134834147Y-124863100D01*
X134741015Y-125002481D01*
X134622481Y-125121015D01*
X134483100Y-125214147D01*
X134328228Y-125278297D01*
X134163816Y-125311000D01*
X133996184Y-125311000D01*
X133831772Y-125278297D01*
X133676900Y-125214147D01*
X133537519Y-125121015D01*
X133418985Y-125002481D01*
X133325853Y-124863100D01*
X133261703Y-124708228D01*
X133229000Y-124543816D01*
X133229000Y-124376184D01*
X133261703Y-124211772D01*
X133325853Y-124056900D01*
X133418985Y-123917519D01*
X133537519Y-123798985D01*
X133676900Y-123705853D01*
X133831772Y-123641703D01*
X133996184Y-123609000D01*
X134163816Y-123609000D01*
X134328228Y-123641703D01*
G37*
G36*
X106388228Y-123641703D02*
G01*
X106543100Y-123705853D01*
X106682481Y-123798985D01*
X106801015Y-123917519D01*
X106894147Y-124056900D01*
X106958297Y-124211772D01*
X106991000Y-124376184D01*
X106991000Y-124543816D01*
X106958297Y-124708228D01*
X106894147Y-124863100D01*
X106801015Y-125002481D01*
X106682481Y-125121015D01*
X106543100Y-125214147D01*
X106388228Y-125278297D01*
X106223816Y-125311000D01*
X106056184Y-125311000D01*
X105891772Y-125278297D01*
X105736900Y-125214147D01*
X105597519Y-125121015D01*
X105478985Y-125002481D01*
X105385853Y-124863100D01*
X105321703Y-124708228D01*
X105289000Y-124543816D01*
X105289000Y-124376184D01*
X105321703Y-124211772D01*
X105385853Y-124056900D01*
X105478985Y-123917519D01*
X105597519Y-123798985D01*
X105736900Y-123705853D01*
X105891772Y-123641703D01*
X106056184Y-123609000D01*
X106223816Y-123609000D01*
X106388228Y-123641703D01*
G37*
G36*
X136868228Y-123641703D02*
G01*
X137023100Y-123705853D01*
X137162481Y-123798985D01*
X137281015Y-123917519D01*
X137374147Y-124056900D01*
X137438297Y-124211772D01*
X137471000Y-124376184D01*
X137471000Y-124543816D01*
X137438297Y-124708228D01*
X137374147Y-124863100D01*
X137281015Y-125002481D01*
X137162481Y-125121015D01*
X137023100Y-125214147D01*
X136868228Y-125278297D01*
X136703816Y-125311000D01*
X136536184Y-125311000D01*
X136371772Y-125278297D01*
X136216900Y-125214147D01*
X136077519Y-125121015D01*
X135958985Y-125002481D01*
X135865853Y-124863100D01*
X135801703Y-124708228D01*
X135769000Y-124543816D01*
X135769000Y-124376184D01*
X135801703Y-124211772D01*
X135865853Y-124056900D01*
X135958985Y-123917519D01*
X136077519Y-123798985D01*
X136216900Y-123705853D01*
X136371772Y-123641703D01*
X136536184Y-123609000D01*
X136703816Y-123609000D01*
X136868228Y-123641703D01*
G37*
G36*
X126708228Y-123641703D02*
G01*
X126863100Y-123705853D01*
X127002481Y-123798985D01*
X127121015Y-123917519D01*
X127214147Y-124056900D01*
X127278297Y-124211772D01*
X127311000Y-124376184D01*
X127311000Y-124543816D01*
X127278297Y-124708228D01*
X127214147Y-124863100D01*
X127121015Y-125002481D01*
X127002481Y-125121015D01*
X126863100Y-125214147D01*
X126708228Y-125278297D01*
X126543816Y-125311000D01*
X126376184Y-125311000D01*
X126211772Y-125278297D01*
X126056900Y-125214147D01*
X125917519Y-125121015D01*
X125798985Y-125002481D01*
X125705853Y-124863100D01*
X125641703Y-124708228D01*
X125609000Y-124543816D01*
X125609000Y-124376184D01*
X125641703Y-124211772D01*
X125705853Y-124056900D01*
X125798985Y-123917519D01*
X125917519Y-123798985D01*
X126056900Y-123705853D01*
X126211772Y-123641703D01*
X126376184Y-123609000D01*
X126543816Y-123609000D01*
X126708228Y-123641703D01*
G37*
G36*
X165574348Y-123769820D02*
G01*
X165574350Y-123769821D01*
X165574351Y-123769821D01*
X165715574Y-123828317D01*
X165715577Y-123828319D01*
X165842669Y-123913239D01*
X165950761Y-124021331D01*
X166035681Y-124148423D01*
X166035683Y-124148426D01*
X166094179Y-124289649D01*
X166094180Y-124289652D01*
X166124000Y-124439569D01*
X166124000Y-124592431D01*
X166100967Y-124708229D01*
X166094179Y-124742351D01*
X166035683Y-124883574D01*
X166035681Y-124883577D01*
X165950761Y-125010669D01*
X165842669Y-125118761D01*
X165770333Y-125167094D01*
X165715574Y-125203683D01*
X165574351Y-125262179D01*
X165574350Y-125262179D01*
X165574348Y-125262180D01*
X165424431Y-125292000D01*
X165271569Y-125292000D01*
X165121652Y-125262180D01*
X165121650Y-125262179D01*
X165121649Y-125262179D01*
X164980426Y-125203683D01*
X164925667Y-125167094D01*
X164853331Y-125118761D01*
X164745239Y-125010669D01*
X164660319Y-124883577D01*
X164660317Y-124883574D01*
X164601821Y-124742351D01*
X164595034Y-124708229D01*
X164572000Y-124592431D01*
X164572000Y-124439569D01*
X164601820Y-124289652D01*
X164601821Y-124289649D01*
X164660317Y-124148426D01*
X164660319Y-124148423D01*
X164745239Y-124021331D01*
X164853331Y-123913239D01*
X164980423Y-123828319D01*
X164980426Y-123828317D01*
X165121649Y-123769821D01*
X165121650Y-123769821D01*
X165121652Y-123769820D01*
X165271569Y-123740000D01*
X165424431Y-123740000D01*
X165574348Y-123769820D01*
G37*
G36*
X168461855Y-122868140D02*
G01*
X168525618Y-122874420D01*
X168616404Y-122901960D01*
X168648336Y-122911646D01*
X168761425Y-122972094D01*
X168860554Y-123053446D01*
X168941906Y-123152575D01*
X169002354Y-123265664D01*
X169002355Y-123265668D01*
X169039580Y-123388382D01*
X169052149Y-123516000D01*
X169039580Y-123643618D01*
X169020701Y-123705852D01*
X169002354Y-123766336D01*
X168941906Y-123879425D01*
X168860554Y-123978554D01*
X168761425Y-124059906D01*
X168648336Y-124120354D01*
X168616404Y-124130040D01*
X168525618Y-124157580D01*
X168461855Y-124163860D01*
X168429974Y-124167000D01*
X167666026Y-124167000D01*
X167634145Y-124163860D01*
X167570382Y-124157580D01*
X167479596Y-124130040D01*
X167447664Y-124120354D01*
X167334575Y-124059906D01*
X167235446Y-123978554D01*
X167154094Y-123879425D01*
X167093646Y-123766336D01*
X167075299Y-123705852D01*
X167056420Y-123643618D01*
X167043851Y-123516000D01*
X167056420Y-123388382D01*
X167093645Y-123265668D01*
X167093646Y-123265664D01*
X167154094Y-123152575D01*
X167235446Y-123053446D01*
X167334575Y-122972094D01*
X167447664Y-122911646D01*
X167479596Y-122901960D01*
X167570382Y-122874420D01*
X167634145Y-122868140D01*
X167666026Y-122865000D01*
X168429974Y-122865000D01*
X168461855Y-122868140D01*
G37*
G36*
X114040228Y-119958703D02*
G01*
X114195100Y-120022853D01*
X114334481Y-120115985D01*
X114453015Y-120234519D01*
X114546147Y-120373900D01*
X114610297Y-120528772D01*
X114643000Y-120693184D01*
X114643000Y-120860816D01*
X114610297Y-121025228D01*
X114546147Y-121180100D01*
X114453015Y-121319481D01*
X114334481Y-121438015D01*
X114195100Y-121531147D01*
X114040228Y-121595297D01*
X113875816Y-121628000D01*
X113708184Y-121628000D01*
X113543772Y-121595297D01*
X113388900Y-121531147D01*
X113249519Y-121438015D01*
X113130985Y-121319481D01*
X113037853Y-121180100D01*
X112973703Y-121025228D01*
X112941000Y-120860816D01*
X112941000Y-120693184D01*
X112973703Y-120528772D01*
X113037853Y-120373900D01*
X113130985Y-120234519D01*
X113249519Y-120115985D01*
X113388900Y-120022853D01*
X113543772Y-119958703D01*
X113708184Y-119926000D01*
X113875816Y-119926000D01*
X114040228Y-119958703D01*
G37*
G36*
X142858903Y-118939075D02*
G01*
X143086571Y-119033378D01*
X143291466Y-119170285D01*
X143465715Y-119344534D01*
X143602622Y-119549429D01*
X143696925Y-119777097D01*
X143745000Y-120018787D01*
X143745000Y-120265213D01*
X143696925Y-120506903D01*
X143602622Y-120734571D01*
X143465715Y-120939466D01*
X143291466Y-121113715D01*
X143086571Y-121250622D01*
X143086570Y-121250623D01*
X143086569Y-121250623D01*
X142858903Y-121344925D01*
X142617214Y-121393000D01*
X142370786Y-121393000D01*
X142129097Y-121344925D01*
X141901431Y-121250623D01*
X141901430Y-121250623D01*
X141901429Y-121250622D01*
X141696534Y-121113715D01*
X141522285Y-120939466D01*
X141385378Y-120734571D01*
X141291075Y-120506903D01*
X141243000Y-120265213D01*
X141243000Y-120018787D01*
X141291075Y-119777097D01*
X141385378Y-119549429D01*
X141522285Y-119344534D01*
X141696534Y-119170285D01*
X141901429Y-119033378D01*
X142129097Y-118939075D01*
X142370786Y-118891000D01*
X142617214Y-118891000D01*
X142858903Y-118939075D01*
G37*
G36*
X147938903Y-118939075D02*
G01*
X148166571Y-119033378D01*
X148371466Y-119170285D01*
X148545715Y-119344534D01*
X148682622Y-119549429D01*
X148776925Y-119777097D01*
X148825000Y-120018787D01*
X148825000Y-120265213D01*
X148776925Y-120506903D01*
X148682622Y-120734571D01*
X148545715Y-120939466D01*
X148371466Y-121113715D01*
X148166571Y-121250622D01*
X148166570Y-121250623D01*
X148166569Y-121250623D01*
X147938903Y-121344925D01*
X147697214Y-121393000D01*
X147450786Y-121393000D01*
X147209097Y-121344925D01*
X146981431Y-121250623D01*
X146981430Y-121250623D01*
X146981429Y-121250622D01*
X146776534Y-121113715D01*
X146602285Y-120939466D01*
X146465378Y-120734571D01*
X146371075Y-120506903D01*
X146323000Y-120265213D01*
X146323000Y-120018787D01*
X146371075Y-119777097D01*
X146465378Y-119549429D01*
X146602285Y-119344534D01*
X146776534Y-119170285D01*
X146981429Y-119033378D01*
X147209097Y-118939075D01*
X147450786Y-118891000D01*
X147697214Y-118891000D01*
X147938903Y-118939075D01*
G37*
G36*
X114040228Y-117418703D02*
G01*
X114195100Y-117482853D01*
X114334481Y-117575985D01*
X114453015Y-117694519D01*
X114546147Y-117833900D01*
X114610297Y-117988772D01*
X114643000Y-118153184D01*
X114643000Y-118320816D01*
X114610297Y-118485228D01*
X114546147Y-118640100D01*
X114453015Y-118779481D01*
X114334481Y-118898015D01*
X114195100Y-118991147D01*
X114040228Y-119055297D01*
X113875816Y-119088000D01*
X113708184Y-119088000D01*
X113543772Y-119055297D01*
X113388900Y-118991147D01*
X113249519Y-118898015D01*
X113130985Y-118779481D01*
X113037853Y-118640100D01*
X112973703Y-118485228D01*
X112941000Y-118320816D01*
X112941000Y-118153184D01*
X112973703Y-117988772D01*
X113037853Y-117833900D01*
X113130985Y-117694519D01*
X113249519Y-117575985D01*
X113388900Y-117482853D01*
X113543772Y-117418703D01*
X113708184Y-117386000D01*
X113875816Y-117386000D01*
X114040228Y-117418703D01*
G37*
G36*
X124931000Y-115242218D02*
G01*
X124933402Y-115266604D01*
X124940515Y-115290053D01*
X124952066Y-115311664D01*
X124967611Y-115330606D01*
X124986553Y-115346151D01*
X125008164Y-115357702D01*
X125031613Y-115364815D01*
X125055999Y-115367217D01*
X125080385Y-115364815D01*
X125103834Y-115357702D01*
X125125445Y-115346151D01*
X125144387Y-115330606D01*
X125159932Y-115311664D01*
X125222009Y-115218760D01*
X125222010Y-115218758D01*
X125298758Y-115142010D01*
X125389004Y-115081710D01*
X125389005Y-115081709D01*
X125489279Y-115040174D01*
X125595730Y-115019000D01*
X125704270Y-115019000D01*
X125810721Y-115040174D01*
X125910995Y-115081709D01*
X125910996Y-115081710D01*
X126001242Y-115142010D01*
X126077990Y-115218758D01*
X126077991Y-115218760D01*
X126138291Y-115309005D01*
X126169516Y-115384389D01*
X126181067Y-115406000D01*
X126196612Y-115424941D01*
X126215554Y-115440487D01*
X126237165Y-115452038D01*
X126260614Y-115459151D01*
X126285000Y-115461553D01*
X126309386Y-115459151D01*
X126332835Y-115452038D01*
X126354446Y-115440487D01*
X126373387Y-115424942D01*
X126388933Y-115406000D01*
X126400484Y-115384389D01*
X126431709Y-115309005D01*
X126492009Y-115218760D01*
X126492010Y-115218758D01*
X126568758Y-115142010D01*
X126659004Y-115081710D01*
X126659005Y-115081709D01*
X126759279Y-115040174D01*
X126865730Y-115019000D01*
X126974270Y-115019000D01*
X127080721Y-115040174D01*
X127180995Y-115081709D01*
X127180996Y-115081710D01*
X127271242Y-115142010D01*
X127347990Y-115218758D01*
X127347991Y-115218760D01*
X127408291Y-115309005D01*
X127439516Y-115384389D01*
X127451067Y-115406000D01*
X127466612Y-115424941D01*
X127485554Y-115440487D01*
X127507165Y-115452038D01*
X127530614Y-115459151D01*
X127555000Y-115461553D01*
X127579386Y-115459151D01*
X127602835Y-115452038D01*
X127624446Y-115440487D01*
X127643387Y-115424942D01*
X127658933Y-115406000D01*
X127670484Y-115384389D01*
X127701709Y-115309005D01*
X127762009Y-115218760D01*
X127762010Y-115218758D01*
X127838758Y-115142010D01*
X127929004Y-115081710D01*
X127929005Y-115081709D01*
X128029279Y-115040174D01*
X128135730Y-115019000D01*
X128244270Y-115019000D01*
X128350721Y-115040174D01*
X128450995Y-115081709D01*
X128450996Y-115081710D01*
X128541242Y-115142010D01*
X128617990Y-115218758D01*
X128617991Y-115218760D01*
X128678291Y-115309005D01*
X128709516Y-115384389D01*
X128721067Y-115406000D01*
X128736612Y-115424941D01*
X128755554Y-115440487D01*
X128777165Y-115452038D01*
X128800614Y-115459151D01*
X128825000Y-115461553D01*
X128849386Y-115459151D01*
X128872835Y-115452038D01*
X128894446Y-115440487D01*
X128913387Y-115424942D01*
X128928933Y-115406000D01*
X128940484Y-115384389D01*
X128971709Y-115309005D01*
X129032009Y-115218760D01*
X129032010Y-115218758D01*
X129108758Y-115142010D01*
X129199004Y-115081710D01*
X129199005Y-115081709D01*
X129299279Y-115040174D01*
X129405730Y-115019000D01*
X129514270Y-115019000D01*
X129620721Y-115040174D01*
X129720995Y-115081709D01*
X129720996Y-115081710D01*
X129811242Y-115142010D01*
X129887990Y-115218758D01*
X129887991Y-115218760D01*
X129948291Y-115309005D01*
X129979516Y-115384389D01*
X129991067Y-115406000D01*
X130006612Y-115424941D01*
X130025554Y-115440487D01*
X130047165Y-115452038D01*
X130070614Y-115459151D01*
X130095000Y-115461553D01*
X130119386Y-115459151D01*
X130142835Y-115452038D01*
X130164446Y-115440487D01*
X130183387Y-115424942D01*
X130198933Y-115406000D01*
X130210484Y-115384389D01*
X130241709Y-115309005D01*
X130302009Y-115218760D01*
X130302010Y-115218758D01*
X130378758Y-115142010D01*
X130469004Y-115081710D01*
X130469005Y-115081709D01*
X130569279Y-115040174D01*
X130675730Y-115019000D01*
X130784270Y-115019000D01*
X130890721Y-115040174D01*
X130990995Y-115081709D01*
X130990996Y-115081710D01*
X131081242Y-115142010D01*
X131157990Y-115218758D01*
X131157991Y-115218760D01*
X131218291Y-115309005D01*
X131249516Y-115384389D01*
X131261067Y-115406000D01*
X131276612Y-115424941D01*
X131295554Y-115440487D01*
X131317165Y-115452038D01*
X131340614Y-115459151D01*
X131365000Y-115461553D01*
X131389386Y-115459151D01*
X131412835Y-115452038D01*
X131434446Y-115440487D01*
X131453387Y-115424942D01*
X131468933Y-115406000D01*
X131480484Y-115384389D01*
X131511709Y-115309005D01*
X131572009Y-115218760D01*
X131572010Y-115218758D01*
X131648758Y-115142010D01*
X131739004Y-115081710D01*
X131739005Y-115081709D01*
X131839279Y-115040174D01*
X131945730Y-115019000D01*
X132054270Y-115019000D01*
X132160721Y-115040174D01*
X132260995Y-115081709D01*
X132260996Y-115081710D01*
X132351242Y-115142010D01*
X132427990Y-115218758D01*
X132427991Y-115218760D01*
X132488291Y-115309005D01*
X132519516Y-115384389D01*
X132531067Y-115406000D01*
X132546612Y-115424941D01*
X132565554Y-115440487D01*
X132587165Y-115452038D01*
X132610614Y-115459151D01*
X132635000Y-115461553D01*
X132659386Y-115459151D01*
X132682835Y-115452038D01*
X132704446Y-115440487D01*
X132723387Y-115424942D01*
X132738933Y-115406000D01*
X132750484Y-115384389D01*
X132781709Y-115309005D01*
X132842009Y-115218760D01*
X132842010Y-115218758D01*
X132918758Y-115142010D01*
X133009004Y-115081710D01*
X133009005Y-115081709D01*
X133109279Y-115040174D01*
X133215730Y-115019000D01*
X133324270Y-115019000D01*
X133430721Y-115040174D01*
X133530995Y-115081709D01*
X133530996Y-115081710D01*
X133621242Y-115142010D01*
X133697990Y-115218758D01*
X133697991Y-115218760D01*
X133758291Y-115309005D01*
X133789516Y-115384389D01*
X133801067Y-115406000D01*
X133816612Y-115424941D01*
X133835554Y-115440487D01*
X133857165Y-115452038D01*
X133880614Y-115459151D01*
X133905000Y-115461553D01*
X133929386Y-115459151D01*
X133952835Y-115452038D01*
X133974446Y-115440487D01*
X133993387Y-115424942D01*
X134008933Y-115406000D01*
X134020484Y-115384389D01*
X134051709Y-115309005D01*
X134112009Y-115218760D01*
X134112010Y-115218758D01*
X134188758Y-115142010D01*
X134279004Y-115081710D01*
X134279005Y-115081709D01*
X134379279Y-115040174D01*
X134485730Y-115019000D01*
X134594270Y-115019000D01*
X134700721Y-115040174D01*
X134800995Y-115081709D01*
X134800996Y-115081710D01*
X134891242Y-115142010D01*
X134967990Y-115218758D01*
X134967991Y-115218760D01*
X135028291Y-115309005D01*
X135059516Y-115384389D01*
X135071067Y-115406000D01*
X135086612Y-115424941D01*
X135105554Y-115440487D01*
X135127165Y-115452038D01*
X135150614Y-115459151D01*
X135175000Y-115461553D01*
X135199386Y-115459151D01*
X135222835Y-115452038D01*
X135244446Y-115440487D01*
X135263387Y-115424942D01*
X135278933Y-115406000D01*
X135290484Y-115384389D01*
X135321709Y-115309005D01*
X135382009Y-115218760D01*
X135382010Y-115218758D01*
X135458758Y-115142010D01*
X135549004Y-115081710D01*
X135549005Y-115081709D01*
X135649279Y-115040174D01*
X135755730Y-115019000D01*
X135864270Y-115019000D01*
X135970721Y-115040174D01*
X136070995Y-115081709D01*
X136070996Y-115081710D01*
X136161242Y-115142010D01*
X136237990Y-115218758D01*
X136237991Y-115218760D01*
X136298291Y-115309005D01*
X136339826Y-115409279D01*
X136361000Y-115515730D01*
X136361000Y-115624270D01*
X136339826Y-115730721D01*
X136298291Y-115830995D01*
X136269959Y-115873396D01*
X136237990Y-115921242D01*
X136161242Y-115997990D01*
X136115812Y-116028345D01*
X136070995Y-116058291D01*
X135970721Y-116099826D01*
X135864270Y-116121000D01*
X135755730Y-116121000D01*
X135649279Y-116099826D01*
X135549005Y-116058291D01*
X135504188Y-116028345D01*
X135458758Y-115997990D01*
X135382010Y-115921242D01*
X135350041Y-115873396D01*
X135321709Y-115830995D01*
X135290484Y-115755611D01*
X135278933Y-115734000D01*
X135263388Y-115715059D01*
X135244446Y-115699513D01*
X135222835Y-115687962D01*
X135199386Y-115680849D01*
X135175000Y-115678447D01*
X135150614Y-115680849D01*
X135127165Y-115687962D01*
X135105554Y-115699513D01*
X135086613Y-115715058D01*
X135071067Y-115734000D01*
X135059516Y-115755611D01*
X135028291Y-115830995D01*
X134999959Y-115873396D01*
X134967990Y-115921242D01*
X134891242Y-115997990D01*
X134845812Y-116028345D01*
X134800995Y-116058291D01*
X134700721Y-116099826D01*
X134594270Y-116121000D01*
X134485730Y-116121000D01*
X134379279Y-116099826D01*
X134279005Y-116058291D01*
X134234188Y-116028345D01*
X134188758Y-115997990D01*
X134112010Y-115921242D01*
X134080041Y-115873396D01*
X134051709Y-115830995D01*
X134020484Y-115755611D01*
X134008933Y-115734000D01*
X133993388Y-115715059D01*
X133974446Y-115699513D01*
X133952835Y-115687962D01*
X133929386Y-115680849D01*
X133905000Y-115678447D01*
X133880614Y-115680849D01*
X133857165Y-115687962D01*
X133835554Y-115699513D01*
X133816613Y-115715058D01*
X133801067Y-115734000D01*
X133789516Y-115755611D01*
X133758291Y-115830995D01*
X133729959Y-115873396D01*
X133697990Y-115921242D01*
X133621242Y-115997990D01*
X133575812Y-116028345D01*
X133530995Y-116058291D01*
X133430721Y-116099826D01*
X133324270Y-116121000D01*
X133215730Y-116121000D01*
X133109279Y-116099826D01*
X133009005Y-116058291D01*
X132964188Y-116028345D01*
X132918758Y-115997990D01*
X132842010Y-115921242D01*
X132810041Y-115873396D01*
X132781709Y-115830995D01*
X132750484Y-115755611D01*
X132738933Y-115734000D01*
X132723388Y-115715059D01*
X132704446Y-115699513D01*
X132682835Y-115687962D01*
X132659386Y-115680849D01*
X132635000Y-115678447D01*
X132610614Y-115680849D01*
X132587165Y-115687962D01*
X132565554Y-115699513D01*
X132546613Y-115715058D01*
X132531067Y-115734000D01*
X132519516Y-115755611D01*
X132488291Y-115830995D01*
X132459959Y-115873396D01*
X132427990Y-115921242D01*
X132351242Y-115997990D01*
X132305812Y-116028345D01*
X132260995Y-116058291D01*
X132160721Y-116099826D01*
X132054270Y-116121000D01*
X131945730Y-116121000D01*
X131839279Y-116099826D01*
X131739005Y-116058291D01*
X131694188Y-116028345D01*
X131648758Y-115997990D01*
X131572010Y-115921242D01*
X131540041Y-115873396D01*
X131511709Y-115830995D01*
X131480484Y-115755611D01*
X131468933Y-115734000D01*
X131453388Y-115715059D01*
X131434446Y-115699513D01*
X131412835Y-115687962D01*
X131389386Y-115680849D01*
X131365000Y-115678447D01*
X131340614Y-115680849D01*
X131317165Y-115687962D01*
X131295554Y-115699513D01*
X131276613Y-115715058D01*
X131261067Y-115734000D01*
X131249516Y-115755611D01*
X131218291Y-115830995D01*
X131189959Y-115873396D01*
X131157990Y-115921242D01*
X131081242Y-115997990D01*
X131035812Y-116028345D01*
X130990995Y-116058291D01*
X130890721Y-116099826D01*
X130784270Y-116121000D01*
X130675730Y-116121000D01*
X130569279Y-116099826D01*
X130469005Y-116058291D01*
X130424188Y-116028345D01*
X130378758Y-115997990D01*
X130302010Y-115921242D01*
X130270041Y-115873396D01*
X130241709Y-115830995D01*
X130210484Y-115755611D01*
X130198933Y-115734000D01*
X130183388Y-115715059D01*
X130164446Y-115699513D01*
X130142835Y-115687962D01*
X130119386Y-115680849D01*
X130095000Y-115678447D01*
X130070614Y-115680849D01*
X130047165Y-115687962D01*
X130025554Y-115699513D01*
X130006613Y-115715058D01*
X129991067Y-115734000D01*
X129979516Y-115755611D01*
X129948291Y-115830995D01*
X129919959Y-115873396D01*
X129887990Y-115921242D01*
X129811242Y-115997990D01*
X129765812Y-116028345D01*
X129720995Y-116058291D01*
X129620721Y-116099826D01*
X129514270Y-116121000D01*
X129405730Y-116121000D01*
X129299279Y-116099826D01*
X129199005Y-116058291D01*
X129154188Y-116028345D01*
X129108758Y-115997990D01*
X129032010Y-115921242D01*
X129000041Y-115873396D01*
X128971709Y-115830995D01*
X128940484Y-115755611D01*
X128928933Y-115734000D01*
X128913388Y-115715059D01*
X128894446Y-115699513D01*
X128872835Y-115687962D01*
X128849386Y-115680849D01*
X128825000Y-115678447D01*
X128800614Y-115680849D01*
X128777165Y-115687962D01*
X128755554Y-115699513D01*
X128736613Y-115715058D01*
X128721067Y-115734000D01*
X128709516Y-115755611D01*
X128678291Y-115830995D01*
X128649959Y-115873396D01*
X128617990Y-115921242D01*
X128541242Y-115997990D01*
X128495812Y-116028345D01*
X128450995Y-116058291D01*
X128350721Y-116099826D01*
X128244270Y-116121000D01*
X128135730Y-116121000D01*
X128029279Y-116099826D01*
X127929005Y-116058291D01*
X127884188Y-116028345D01*
X127838758Y-115997990D01*
X127762010Y-115921242D01*
X127730041Y-115873396D01*
X127701709Y-115830995D01*
X127670484Y-115755611D01*
X127658933Y-115734000D01*
X127643388Y-115715059D01*
X127624446Y-115699513D01*
X127602835Y-115687962D01*
X127579386Y-115680849D01*
X127555000Y-115678447D01*
X127530614Y-115680849D01*
X127507165Y-115687962D01*
X127485554Y-115699513D01*
X127466613Y-115715058D01*
X127451067Y-115734000D01*
X127439516Y-115755611D01*
X127408291Y-115830995D01*
X127379959Y-115873396D01*
X127347990Y-115921242D01*
X127271242Y-115997990D01*
X127225812Y-116028345D01*
X127180995Y-116058291D01*
X127080721Y-116099826D01*
X126974270Y-116121000D01*
X126865730Y-116121000D01*
X126759279Y-116099826D01*
X126659005Y-116058291D01*
X126614188Y-116028345D01*
X126568758Y-115997990D01*
X126492010Y-115921242D01*
X126460041Y-115873396D01*
X126431709Y-115830995D01*
X126400484Y-115755611D01*
X126388933Y-115734000D01*
X126373388Y-115715059D01*
X126354446Y-115699513D01*
X126332835Y-115687962D01*
X126309386Y-115680849D01*
X126285000Y-115678447D01*
X126260614Y-115680849D01*
X126237165Y-115687962D01*
X126215554Y-115699513D01*
X126196613Y-115715058D01*
X126181067Y-115734000D01*
X126169516Y-115755611D01*
X126138291Y-115830995D01*
X126109959Y-115873396D01*
X126077990Y-115921242D01*
X126001242Y-115997990D01*
X125955812Y-116028345D01*
X125910995Y-116058291D01*
X125810721Y-116099826D01*
X125704270Y-116121000D01*
X125595730Y-116121000D01*
X125489279Y-116099826D01*
X125389005Y-116058291D01*
X125344188Y-116028345D01*
X125298758Y-115997990D01*
X125222010Y-115921242D01*
X125201012Y-115889816D01*
X125159932Y-115828336D01*
X125144386Y-115809394D01*
X125125444Y-115793849D01*
X125103833Y-115782298D01*
X125080385Y-115775185D01*
X125055998Y-115772783D01*
X125031612Y-115775185D01*
X125008163Y-115782298D01*
X124986553Y-115793849D01*
X124967611Y-115809395D01*
X124952066Y-115828337D01*
X124940515Y-115849948D01*
X124933402Y-115873396D01*
X124931000Y-115897782D01*
X124931000Y-116121000D01*
X123829000Y-116121000D01*
X123829000Y-115019000D01*
X124931000Y-115019000D01*
X124931000Y-115242218D01*
G37*
G36*
X157422719Y-113771520D02*
G01*
X157611880Y-113828901D01*
X157611883Y-113828902D01*
X157704333Y-113878318D01*
X157786212Y-113922083D01*
X157939015Y-114047485D01*
X158064417Y-114200288D01*
X158157599Y-114374619D01*
X158214980Y-114563780D01*
X158229500Y-114711206D01*
X158229500Y-114904793D01*
X158214980Y-115052219D01*
X158187742Y-115142010D01*
X158157598Y-115241383D01*
X158121453Y-115309005D01*
X158064417Y-115415712D01*
X157939015Y-115568515D01*
X157786212Y-115693917D01*
X157611881Y-115787099D01*
X157422720Y-115844480D01*
X157226000Y-115863855D01*
X157029281Y-115844480D01*
X156840120Y-115787099D01*
X156665788Y-115693917D01*
X156512985Y-115568515D01*
X156387583Y-115415712D01*
X156294401Y-115241381D01*
X156237020Y-115052220D01*
X156222500Y-114904794D01*
X156222500Y-114711207D01*
X156237020Y-114563781D01*
X156294401Y-114374620D01*
X156294402Y-114374617D01*
X156343818Y-114282167D01*
X156387583Y-114200288D01*
X156512985Y-114047485D01*
X156665788Y-113922083D01*
X156840119Y-113828901D01*
X157029280Y-113771520D01*
X157226000Y-113752145D01*
X157422719Y-113771520D01*
G37*
G36*
X159962719Y-113771520D02*
G01*
X160151880Y-113828901D01*
X160151883Y-113828902D01*
X160244333Y-113878318D01*
X160326212Y-113922083D01*
X160479015Y-114047485D01*
X160604417Y-114200288D01*
X160697599Y-114374619D01*
X160754980Y-114563780D01*
X160769500Y-114711206D01*
X160769500Y-114904793D01*
X160754980Y-115052219D01*
X160727742Y-115142010D01*
X160697598Y-115241383D01*
X160661453Y-115309005D01*
X160604417Y-115415712D01*
X160479015Y-115568515D01*
X160326212Y-115693917D01*
X160151881Y-115787099D01*
X159962720Y-115844480D01*
X159766000Y-115863855D01*
X159569281Y-115844480D01*
X159380120Y-115787099D01*
X159205788Y-115693917D01*
X159052985Y-115568515D01*
X158927583Y-115415712D01*
X158834401Y-115241381D01*
X158777020Y-115052220D01*
X158762500Y-114904794D01*
X158762500Y-114711207D01*
X158777020Y-114563781D01*
X158834401Y-114374620D01*
X158834402Y-114374617D01*
X158883818Y-114282167D01*
X158927583Y-114200288D01*
X159052985Y-114047485D01*
X159205788Y-113922083D01*
X159380119Y-113828901D01*
X159569280Y-113771520D01*
X159766000Y-113752145D01*
X159962719Y-113771520D01*
G37*
G36*
X155689500Y-115859000D02*
G01*
X153682500Y-115859000D01*
X153682500Y-113757000D01*
X155689500Y-113757000D01*
X155689500Y-115859000D01*
G37*
G36*
X157519206Y-109450466D02*
G01*
X157685411Y-109483526D01*
X157804137Y-109532704D01*
X157972041Y-109602252D01*
X157972042Y-109602253D01*
X158230004Y-109774617D01*
X158449383Y-109993996D01*
X158564553Y-110166361D01*
X158621748Y-110251959D01*
X158740474Y-110538590D01*
X158801000Y-110842875D01*
X158801000Y-111153125D01*
X158740474Y-111457410D01*
X158621748Y-111744041D01*
X158621747Y-111744042D01*
X158449383Y-112002004D01*
X158230004Y-112221383D01*
X158057639Y-112336553D01*
X157972041Y-112393748D01*
X157804137Y-112463296D01*
X157685411Y-112512474D01*
X157533267Y-112542737D01*
X157381125Y-112573000D01*
X157070875Y-112573000D01*
X156918733Y-112542737D01*
X156766589Y-112512474D01*
X156647863Y-112463296D01*
X156479959Y-112393748D01*
X156394361Y-112336553D01*
X156221996Y-112221383D01*
X156002617Y-112002004D01*
X155830253Y-111744042D01*
X155830252Y-111744041D01*
X155711526Y-111457410D01*
X155651000Y-111153125D01*
X155651000Y-110842875D01*
X155711526Y-110538590D01*
X155830252Y-110251959D01*
X155887447Y-110166361D01*
X156002617Y-109993996D01*
X156221996Y-109774617D01*
X156479958Y-109602253D01*
X156479959Y-109602252D01*
X156647863Y-109532704D01*
X156766589Y-109483526D01*
X156932794Y-109450466D01*
X157070875Y-109423000D01*
X157381125Y-109423000D01*
X157519206Y-109450466D01*
G37*
G36*
X139777395Y-108085546D02*
G01*
X139950466Y-108157234D01*
X139950467Y-108157235D01*
X140106227Y-108261310D01*
X140238690Y-108393773D01*
X140238691Y-108393775D01*
X140342766Y-108549534D01*
X140414454Y-108722605D01*
X140451000Y-108906333D01*
X140451000Y-109093667D01*
X140414454Y-109277395D01*
X140342766Y-109450466D01*
X140342765Y-109450467D01*
X140238690Y-109606227D01*
X140106227Y-109738690D01*
X140052458Y-109774617D01*
X139950466Y-109842766D01*
X139777395Y-109914454D01*
X139593667Y-109951000D01*
X139406333Y-109951000D01*
X139222605Y-109914454D01*
X139049534Y-109842766D01*
X138947542Y-109774617D01*
X138893773Y-109738690D01*
X138761310Y-109606227D01*
X138657235Y-109450467D01*
X138657234Y-109450466D01*
X138585546Y-109277395D01*
X138549000Y-109093667D01*
X138549000Y-108906333D01*
X138585546Y-108722605D01*
X138657234Y-108549534D01*
X138761309Y-108393775D01*
X138761310Y-108393773D01*
X138893773Y-108261310D01*
X139049533Y-108157235D01*
X139049534Y-108157234D01*
X139222605Y-108085546D01*
X139406333Y-108049000D01*
X139593667Y-108049000D01*
X139777395Y-108085546D01*
G37*
G36*
X164889484Y-105436266D02*
G01*
X164921629Y-105446018D01*
X164951257Y-105461854D01*
X164981999Y-105487083D01*
X165041639Y-105546723D01*
X165041650Y-105546732D01*
X166015370Y-106520452D01*
X166015379Y-106520463D01*
X166075019Y-106580103D01*
X166100248Y-106610845D01*
X166116084Y-106640473D01*
X166125836Y-106672618D01*
X166129128Y-106706051D01*
X166125836Y-106739484D01*
X166116084Y-106771629D01*
X166100248Y-106801257D01*
X166075019Y-106831999D01*
X166015379Y-106891639D01*
X166015370Y-106891650D01*
X165041650Y-107865370D01*
X165041639Y-107865379D01*
X164981999Y-107925019D01*
X164951257Y-107950248D01*
X164921629Y-107966084D01*
X164889484Y-107975836D01*
X164856051Y-107979128D01*
X164822618Y-107975836D01*
X164790473Y-107966084D01*
X164760845Y-107950248D01*
X164730103Y-107925019D01*
X164670463Y-107865379D01*
X164670452Y-107865370D01*
X163696732Y-106891650D01*
X163696723Y-106891639D01*
X163637083Y-106831999D01*
X163611854Y-106801257D01*
X163596018Y-106771629D01*
X163586266Y-106739484D01*
X163582974Y-106706051D01*
X163586266Y-106672618D01*
X163596018Y-106640473D01*
X163611854Y-106610845D01*
X163637083Y-106580103D01*
X163696723Y-106520463D01*
X163696732Y-106520452D01*
X164670452Y-105546732D01*
X164670463Y-105546723D01*
X164730103Y-105487083D01*
X164760845Y-105461854D01*
X164790473Y-105446018D01*
X164822618Y-105436266D01*
X164856051Y-105432974D01*
X164889484Y-105436266D01*
G37*
G36*
X89086344Y-105791597D02*
G01*
X89259415Y-105863285D01*
X89259416Y-105863286D01*
X89415176Y-105967361D01*
X89547639Y-106099824D01*
X89547640Y-106099826D01*
X89651715Y-106255585D01*
X89723403Y-106428656D01*
X89759949Y-106612384D01*
X89759949Y-106799718D01*
X89723403Y-106983446D01*
X89651715Y-107156517D01*
X89651714Y-107156518D01*
X89547639Y-107312278D01*
X89415176Y-107444741D01*
X89336767Y-107497132D01*
X89259415Y-107548817D01*
X89086344Y-107620505D01*
X88902616Y-107657051D01*
X88715282Y-107657051D01*
X88531554Y-107620505D01*
X88358483Y-107548817D01*
X88281131Y-107497132D01*
X88202722Y-107444741D01*
X88070259Y-107312278D01*
X87966184Y-107156518D01*
X87966183Y-107156517D01*
X87894495Y-106983446D01*
X87857949Y-106799718D01*
X87857949Y-106612384D01*
X87894495Y-106428656D01*
X87966183Y-106255585D01*
X88070258Y-106099826D01*
X88070259Y-106099824D01*
X88202722Y-105967361D01*
X88358482Y-105863286D01*
X88358483Y-105863285D01*
X88531554Y-105791597D01*
X88715282Y-105755051D01*
X88902616Y-105755051D01*
X89086344Y-105791597D01*
G37*
G36*
X163337395Y-103995546D02*
G01*
X163510466Y-104067234D01*
X163568982Y-104106333D01*
X163666227Y-104171310D01*
X163798690Y-104303773D01*
X163835021Y-104358146D01*
X163902766Y-104459534D01*
X163974454Y-104632605D01*
X164011000Y-104816333D01*
X164011000Y-105003667D01*
X163974454Y-105187395D01*
X163902766Y-105360466D01*
X163902765Y-105360467D01*
X163798690Y-105516227D01*
X163666227Y-105648690D01*
X163587818Y-105701081D01*
X163510466Y-105752766D01*
X163337395Y-105824454D01*
X163153667Y-105861000D01*
X162966333Y-105861000D01*
X162782605Y-105824454D01*
X162609534Y-105752766D01*
X162532182Y-105701081D01*
X162453773Y-105648690D01*
X162321310Y-105516227D01*
X162217235Y-105360467D01*
X162217234Y-105360466D01*
X162145546Y-105187395D01*
X162109000Y-105003667D01*
X162109000Y-104816333D01*
X162145546Y-104632605D01*
X162217234Y-104459534D01*
X162284979Y-104358146D01*
X162321310Y-104303773D01*
X162453773Y-104171310D01*
X162551018Y-104106333D01*
X162609534Y-104067234D01*
X162782605Y-103995546D01*
X162966333Y-103959000D01*
X163153667Y-103959000D01*
X163337395Y-103995546D01*
G37*
G36*
X90882395Y-103995546D02*
G01*
X91055466Y-104067234D01*
X91113982Y-104106333D01*
X91211227Y-104171310D01*
X91343690Y-104303773D01*
X91380021Y-104358146D01*
X91447766Y-104459534D01*
X91519454Y-104632605D01*
X91556000Y-104816333D01*
X91556000Y-105003667D01*
X91519454Y-105187395D01*
X91447766Y-105360466D01*
X91447765Y-105360467D01*
X91343690Y-105516227D01*
X91211227Y-105648690D01*
X91132818Y-105701081D01*
X91055466Y-105752766D01*
X90882395Y-105824454D01*
X90698667Y-105861000D01*
X90511333Y-105861000D01*
X90327605Y-105824454D01*
X90154534Y-105752766D01*
X90077182Y-105701081D01*
X89998773Y-105648690D01*
X89866310Y-105516227D01*
X89762235Y-105360467D01*
X89762234Y-105360466D01*
X89690546Y-105187395D01*
X89654000Y-105003667D01*
X89654000Y-104816333D01*
X89690546Y-104632605D01*
X89762234Y-104459534D01*
X89829979Y-104358146D01*
X89866310Y-104303773D01*
X89998773Y-104171310D01*
X90096018Y-104106333D01*
X90154534Y-104067234D01*
X90327605Y-103995546D01*
X90511333Y-103959000D01*
X90698667Y-103959000D01*
X90882395Y-103995546D01*
G37*
G36*
X109320547Y-103002326D02*
G01*
X109494156Y-103054990D01*
X109494158Y-103054991D01*
X109654155Y-103140511D01*
X109794397Y-103255603D01*
X109873729Y-103352271D01*
X109909489Y-103395844D01*
X109995010Y-103555843D01*
X110047674Y-103729452D01*
X110061000Y-103864756D01*
X110061000Y-104415243D01*
X110047674Y-104550548D01*
X109995010Y-104724157D01*
X109909489Y-104884156D01*
X109884624Y-104914454D01*
X109794397Y-105024397D01*
X109713240Y-105091000D01*
X109654156Y-105139489D01*
X109494157Y-105225010D01*
X109320548Y-105277674D01*
X109140000Y-105295456D01*
X108959453Y-105277674D01*
X108785844Y-105225010D01*
X108625845Y-105139489D01*
X108566761Y-105091000D01*
X108485604Y-105024397D01*
X108370513Y-104884157D01*
X108370512Y-104884155D01*
X108284990Y-104724157D01*
X108232326Y-104550548D01*
X108219000Y-104415244D01*
X108219000Y-103864757D01*
X108232326Y-103729453D01*
X108284990Y-103555844D01*
X108370511Y-103395845D01*
X108402198Y-103357234D01*
X108485603Y-103255603D01*
X108589043Y-103170713D01*
X108625844Y-103140511D01*
X108785843Y-103054990D01*
X108959452Y-103002326D01*
X109140000Y-102984544D01*
X109320547Y-103002326D01*
G37*
G36*
X118210547Y-103002326D02*
G01*
X118384156Y-103054990D01*
X118384158Y-103054991D01*
X118544155Y-103140511D01*
X118684397Y-103255603D01*
X118763729Y-103352271D01*
X118799489Y-103395844D01*
X118885010Y-103555843D01*
X118937674Y-103729452D01*
X118951000Y-103864756D01*
X118951000Y-104415243D01*
X118937674Y-104550548D01*
X118885010Y-104724157D01*
X118799489Y-104884156D01*
X118774624Y-104914454D01*
X118684397Y-105024397D01*
X118603240Y-105091000D01*
X118544156Y-105139489D01*
X118384157Y-105225010D01*
X118210548Y-105277674D01*
X118030000Y-105295456D01*
X117849453Y-105277674D01*
X117675844Y-105225010D01*
X117515845Y-105139489D01*
X117456761Y-105091000D01*
X117375604Y-105024397D01*
X117260513Y-104884157D01*
X117260512Y-104884155D01*
X117174990Y-104724157D01*
X117122326Y-104550548D01*
X117109000Y-104415244D01*
X117109000Y-103864757D01*
X117122326Y-103729453D01*
X117174990Y-103555844D01*
X117260511Y-103395845D01*
X117292198Y-103357234D01*
X117375603Y-103255603D01*
X117479043Y-103170713D01*
X117515844Y-103140511D01*
X117675843Y-103054990D01*
X117849452Y-103002326D01*
X118030000Y-102984544D01*
X118210547Y-103002326D01*
G37*
G36*
X107379561Y-102992966D02*
G01*
X107412383Y-103002923D01*
X107442632Y-103019092D01*
X107469148Y-103040852D01*
X107490908Y-103067368D01*
X107507077Y-103097617D01*
X107517034Y-103130439D01*
X107521000Y-103170713D01*
X107521000Y-105109287D01*
X107517034Y-105149561D01*
X107507077Y-105182383D01*
X107490908Y-105212632D01*
X107469148Y-105239148D01*
X107442632Y-105260908D01*
X107412383Y-105277077D01*
X107379561Y-105287034D01*
X107339287Y-105291000D01*
X105860713Y-105291000D01*
X105820439Y-105287034D01*
X105787617Y-105277077D01*
X105757368Y-105260908D01*
X105730852Y-105239148D01*
X105709092Y-105212632D01*
X105692923Y-105182383D01*
X105682966Y-105149561D01*
X105679000Y-105109287D01*
X105679000Y-103170713D01*
X105682966Y-103130439D01*
X105692923Y-103097617D01*
X105709092Y-103067368D01*
X105730852Y-103040852D01*
X105757368Y-103019092D01*
X105787617Y-103002923D01*
X105820439Y-102992966D01*
X105860713Y-102989000D01*
X107339287Y-102989000D01*
X107379561Y-102992966D01*
G37*
G36*
X116269561Y-102992966D02*
G01*
X116302383Y-103002923D01*
X116332632Y-103019092D01*
X116359148Y-103040852D01*
X116380908Y-103067368D01*
X116397077Y-103097617D01*
X116407034Y-103130439D01*
X116411000Y-103170713D01*
X116411000Y-105109287D01*
X116407034Y-105149561D01*
X116397077Y-105182383D01*
X116380908Y-105212632D01*
X116359148Y-105239148D01*
X116332632Y-105260908D01*
X116302383Y-105277077D01*
X116269561Y-105287034D01*
X116229287Y-105291000D01*
X114750713Y-105291000D01*
X114710439Y-105287034D01*
X114677617Y-105277077D01*
X114647368Y-105260908D01*
X114620852Y-105239148D01*
X114599092Y-105212632D01*
X114582923Y-105182383D01*
X114572966Y-105149561D01*
X114569000Y-105109287D01*
X114569000Y-103170713D01*
X114572966Y-103130439D01*
X114582923Y-103097617D01*
X114599092Y-103067368D01*
X114620852Y-103040852D01*
X114647368Y-103019092D01*
X114677617Y-103002923D01*
X114710439Y-102992966D01*
X114750713Y-102989000D01*
X116229287Y-102989000D01*
X116269561Y-102992966D01*
G37*
G36*
X154651000Y-105151000D02*
G01*
X152749000Y-105151000D01*
X152749000Y-103249000D01*
X154651000Y-103249000D01*
X154651000Y-105151000D01*
G37*
G36*
X156517395Y-103285546D02*
G01*
X156690466Y-103357234D01*
X156745150Y-103393773D01*
X156846227Y-103461310D01*
X156978690Y-103593773D01*
X156978691Y-103593775D01*
X157082766Y-103749534D01*
X157154454Y-103922605D01*
X157191000Y-104106333D01*
X157191000Y-104293667D01*
X157154454Y-104477395D01*
X157082766Y-104650466D01*
X157031081Y-104727818D01*
X156978690Y-104806227D01*
X156846227Y-104938690D01*
X156780264Y-104982765D01*
X156690466Y-105042766D01*
X156517395Y-105114454D01*
X156333667Y-105151000D01*
X156146333Y-105151000D01*
X155962605Y-105114454D01*
X155789534Y-105042766D01*
X155699736Y-104982765D01*
X155633773Y-104938690D01*
X155501310Y-104806227D01*
X155448919Y-104727818D01*
X155397234Y-104650466D01*
X155325546Y-104477395D01*
X155289000Y-104293667D01*
X155289000Y-104106333D01*
X155325546Y-103922605D01*
X155397234Y-103749534D01*
X155501309Y-103593775D01*
X155501310Y-103593773D01*
X155633773Y-103461310D01*
X155734850Y-103393773D01*
X155789534Y-103357234D01*
X155962605Y-103285546D01*
X156146333Y-103249000D01*
X156333667Y-103249000D01*
X156517395Y-103285546D01*
G37*
G36*
X100527395Y-103225546D02*
G01*
X100700466Y-103297234D01*
X100700467Y-103297235D01*
X100856227Y-103401310D01*
X100988690Y-103533773D01*
X101028782Y-103593775D01*
X101092766Y-103689534D01*
X101164454Y-103862605D01*
X101201000Y-104046333D01*
X101201000Y-104233667D01*
X101164454Y-104417395D01*
X101092766Y-104590466D01*
X101041081Y-104667818D01*
X100988690Y-104746227D01*
X100856227Y-104878690D01*
X100802702Y-104914454D01*
X100700466Y-104982766D01*
X100527395Y-105054454D01*
X100343667Y-105091000D01*
X100156333Y-105091000D01*
X99972605Y-105054454D01*
X99799534Y-104982766D01*
X99697298Y-104914454D01*
X99643773Y-104878690D01*
X99511310Y-104746227D01*
X99458919Y-104667818D01*
X99407234Y-104590466D01*
X99335546Y-104417395D01*
X99299000Y-104233667D01*
X99299000Y-104046333D01*
X99335546Y-103862605D01*
X99407234Y-103689534D01*
X99471218Y-103593775D01*
X99511310Y-103533773D01*
X99643773Y-103401310D01*
X99799533Y-103297235D01*
X99799534Y-103297234D01*
X99972605Y-103225546D01*
X100156333Y-103189000D01*
X100343667Y-103189000D01*
X100527395Y-103225546D01*
G37*
G36*
X98661000Y-105091000D02*
G01*
X96759000Y-105091000D01*
X96759000Y-103189000D01*
X98661000Y-103189000D01*
X98661000Y-105091000D01*
G37*
G36*
X126007395Y-103225546D02*
G01*
X126180466Y-103297234D01*
X126180467Y-103297235D01*
X126336227Y-103401310D01*
X126468690Y-103533773D01*
X126508782Y-103593775D01*
X126572766Y-103689534D01*
X126644454Y-103862605D01*
X126681000Y-104046333D01*
X126681000Y-104233667D01*
X126644454Y-104417395D01*
X126572766Y-104590466D01*
X126521081Y-104667818D01*
X126468690Y-104746227D01*
X126336227Y-104878690D01*
X126282702Y-104914454D01*
X126180466Y-104982766D01*
X126007395Y-105054454D01*
X125823667Y-105091000D01*
X125636333Y-105091000D01*
X125452605Y-105054454D01*
X125279534Y-104982766D01*
X125177298Y-104914454D01*
X125123773Y-104878690D01*
X124991310Y-104746227D01*
X124938919Y-104667818D01*
X124887234Y-104590466D01*
X124815546Y-104417395D01*
X124779000Y-104233667D01*
X124779000Y-104046333D01*
X124815546Y-103862605D01*
X124887234Y-103689534D01*
X124951218Y-103593775D01*
X124991310Y-103533773D01*
X125123773Y-103401310D01*
X125279533Y-103297235D01*
X125279534Y-103297234D01*
X125452605Y-103225546D01*
X125636333Y-103189000D01*
X125823667Y-103189000D01*
X126007395Y-103225546D01*
G37*
G36*
X129221000Y-105091000D02*
G01*
X127319000Y-105091000D01*
X127319000Y-103189000D01*
X129221000Y-103189000D01*
X129221000Y-105091000D01*
G37*
G36*
X142777395Y-103085546D02*
G01*
X142950466Y-103157234D01*
X142998007Y-103189000D01*
X143106227Y-103261310D01*
X143238690Y-103393773D01*
X143240074Y-103395845D01*
X143342766Y-103549534D01*
X143414454Y-103722605D01*
X143451000Y-103906333D01*
X143451000Y-104093667D01*
X143414454Y-104277395D01*
X143342766Y-104450466D01*
X143324772Y-104477396D01*
X143238690Y-104606227D01*
X143106227Y-104738690D01*
X143094950Y-104746225D01*
X142950466Y-104842766D01*
X142777395Y-104914454D01*
X142593667Y-104951000D01*
X142406333Y-104951000D01*
X142222605Y-104914454D01*
X142049534Y-104842766D01*
X141905050Y-104746225D01*
X141893773Y-104738690D01*
X141761310Y-104606227D01*
X141675228Y-104477396D01*
X141657234Y-104450466D01*
X141585546Y-104277395D01*
X141549000Y-104093667D01*
X141549000Y-103906333D01*
X141585546Y-103722605D01*
X141657234Y-103549534D01*
X141759926Y-103395845D01*
X141761310Y-103393773D01*
X141893773Y-103261310D01*
X142001993Y-103189000D01*
X142049534Y-103157234D01*
X142222605Y-103085546D01*
X142406333Y-103049000D01*
X142593667Y-103049000D01*
X142777395Y-103085546D01*
G37*
G36*
X92434484Y-101844164D02*
G01*
X92466629Y-101853916D01*
X92496257Y-101869752D01*
X92526999Y-101894981D01*
X92586639Y-101954621D01*
X92586650Y-101954630D01*
X93560370Y-102928350D01*
X93560379Y-102928361D01*
X93620019Y-102988001D01*
X93645248Y-103018743D01*
X93661084Y-103048371D01*
X93670836Y-103080516D01*
X93674128Y-103113949D01*
X93670836Y-103147382D01*
X93661084Y-103179527D01*
X93645248Y-103209155D01*
X93620019Y-103239897D01*
X93560379Y-103299537D01*
X93560370Y-103299548D01*
X92586650Y-104273268D01*
X92586639Y-104273277D01*
X92526999Y-104332917D01*
X92496257Y-104358146D01*
X92466629Y-104373982D01*
X92434484Y-104383734D01*
X92401051Y-104387026D01*
X92367618Y-104383734D01*
X92335473Y-104373982D01*
X92305845Y-104358146D01*
X92275103Y-104332917D01*
X92215463Y-104273277D01*
X92215452Y-104273268D01*
X91241732Y-103299548D01*
X91241723Y-103299537D01*
X91182083Y-103239897D01*
X91156854Y-103209155D01*
X91141018Y-103179527D01*
X91131266Y-103147382D01*
X91127974Y-103113949D01*
X91131266Y-103080516D01*
X91141018Y-103048371D01*
X91156854Y-103018743D01*
X91182083Y-102988001D01*
X91241723Y-102928361D01*
X91241732Y-102928350D01*
X92215452Y-101954630D01*
X92215463Y-101954621D01*
X92275103Y-101894981D01*
X92305845Y-101869752D01*
X92335473Y-101853916D01*
X92367618Y-101844164D01*
X92401051Y-101840872D01*
X92434484Y-101844164D01*
G37*
G36*
X161541344Y-102199495D02*
G01*
X161714415Y-102271183D01*
X161714416Y-102271184D01*
X161870176Y-102375259D01*
X162002639Y-102507722D01*
X162002640Y-102507724D01*
X162106715Y-102663483D01*
X162178403Y-102836554D01*
X162214949Y-103020282D01*
X162214949Y-103207616D01*
X162178403Y-103391344D01*
X162106715Y-103564415D01*
X162087097Y-103593775D01*
X162002639Y-103720176D01*
X161870176Y-103852639D01*
X161852040Y-103864757D01*
X161714415Y-103956715D01*
X161541344Y-104028403D01*
X161357616Y-104064949D01*
X161170282Y-104064949D01*
X160986554Y-104028403D01*
X160813483Y-103956715D01*
X160675858Y-103864757D01*
X160657722Y-103852639D01*
X160525259Y-103720176D01*
X160440801Y-103593775D01*
X160421183Y-103564415D01*
X160349495Y-103391344D01*
X160312949Y-103207616D01*
X160312949Y-103020282D01*
X160349495Y-102836554D01*
X160421183Y-102663483D01*
X160525258Y-102507724D01*
X160525259Y-102507722D01*
X160657722Y-102375259D01*
X160813482Y-102271184D01*
X160813483Y-102271183D01*
X160986554Y-102199495D01*
X161170282Y-102162949D01*
X161357616Y-102162949D01*
X161541344Y-102199495D01*
G37*
M02*
