G04 #@! TF.GenerationSoftware,KiCad,Pcbnew,5.1.5+dfsg1-2build2*
G04 #@! TF.CreationDate,2021-05-27T17:25:40+02:00*
G04 #@! TF.ProjectId,board,626f6172-642e-46b6-9963-61645f706362,rev?*
G04 #@! TF.SameCoordinates,Original*
G04 #@! TF.FileFunction,Legend,Top*
G04 #@! TF.FilePolarity,Positive*
%FSLAX46Y46*%
G04 Gerber Fmt 4.6, Leading zero omitted, Abs format (unit mm)*
G04 Created by KiCad (PCBNEW 5.1.5+dfsg1-2build2) date 2021-05-27 17:25:40*
%MOMM*%
%LPD*%
G04 APERTURE LIST*
%ADD10C,0.150000*%
%ADD11C,0.200000*%
%ADD12C,0.120000*%
%ADD13C,0.170000*%
%ADD14C,0.300000*%
%ADD15C,0.152400*%
G04 APERTURE END LIST*
D10*
X109086523Y-127770380D02*
X109086523Y-126770380D01*
X109515095Y-127770380D02*
X109515095Y-127246571D01*
X109467476Y-127151333D01*
X109372238Y-127103714D01*
X109229380Y-127103714D01*
X109134142Y-127151333D01*
X109086523Y-127198952D01*
X109848428Y-127103714D02*
X110229380Y-127103714D01*
X109991285Y-126770380D02*
X109991285Y-127627523D01*
X110038904Y-127722761D01*
X110134142Y-127770380D01*
X110229380Y-127770380D01*
X110419857Y-127103714D02*
X110800809Y-127103714D01*
X110562714Y-126770380D02*
X110562714Y-127627523D01*
X110610333Y-127722761D01*
X110705571Y-127770380D01*
X110800809Y-127770380D01*
X111134142Y-127103714D02*
X111134142Y-128103714D01*
X111134142Y-127151333D02*
X111229380Y-127103714D01*
X111419857Y-127103714D01*
X111515095Y-127151333D01*
X111562714Y-127198952D01*
X111610333Y-127294190D01*
X111610333Y-127579904D01*
X111562714Y-127675142D01*
X111515095Y-127722761D01*
X111419857Y-127770380D01*
X111229380Y-127770380D01*
X111134142Y-127722761D01*
X111991285Y-127722761D02*
X112086523Y-127770380D01*
X112277000Y-127770380D01*
X112372238Y-127722761D01*
X112419857Y-127627523D01*
X112419857Y-127579904D01*
X112372238Y-127484666D01*
X112277000Y-127437047D01*
X112134142Y-127437047D01*
X112038904Y-127389428D01*
X111991285Y-127294190D01*
X111991285Y-127246571D01*
X112038904Y-127151333D01*
X112134142Y-127103714D01*
X112277000Y-127103714D01*
X112372238Y-127151333D01*
X112848428Y-127675142D02*
X112896047Y-127722761D01*
X112848428Y-127770380D01*
X112800809Y-127722761D01*
X112848428Y-127675142D01*
X112848428Y-127770380D01*
X112848428Y-127151333D02*
X112896047Y-127198952D01*
X112848428Y-127246571D01*
X112800809Y-127198952D01*
X112848428Y-127151333D01*
X112848428Y-127246571D01*
X114038904Y-126722761D02*
X113181761Y-128008476D01*
X115086523Y-126722761D02*
X114229380Y-128008476D01*
X115848428Y-127103714D02*
X115848428Y-127913238D01*
X115800809Y-128008476D01*
X115753190Y-128056095D01*
X115657952Y-128103714D01*
X115515095Y-128103714D01*
X115419857Y-128056095D01*
X115848428Y-127722761D02*
X115753190Y-127770380D01*
X115562714Y-127770380D01*
X115467476Y-127722761D01*
X115419857Y-127675142D01*
X115372238Y-127579904D01*
X115372238Y-127294190D01*
X115419857Y-127198952D01*
X115467476Y-127151333D01*
X115562714Y-127103714D01*
X115753190Y-127103714D01*
X115848428Y-127151333D01*
X116324619Y-127770380D02*
X116324619Y-127103714D01*
X116324619Y-126770380D02*
X116277000Y-126818000D01*
X116324619Y-126865619D01*
X116372238Y-126818000D01*
X116324619Y-126770380D01*
X116324619Y-126865619D01*
X116657952Y-127103714D02*
X117038904Y-127103714D01*
X116800809Y-126770380D02*
X116800809Y-127627523D01*
X116848428Y-127722761D01*
X116943666Y-127770380D01*
X117038904Y-127770380D01*
X117372238Y-127770380D02*
X117372238Y-126770380D01*
X117800809Y-127770380D02*
X117800809Y-127246571D01*
X117753190Y-127151333D01*
X117657952Y-127103714D01*
X117515095Y-127103714D01*
X117419857Y-127151333D01*
X117372238Y-127198952D01*
X118705571Y-127103714D02*
X118705571Y-127770380D01*
X118277000Y-127103714D02*
X118277000Y-127627523D01*
X118324619Y-127722761D01*
X118419857Y-127770380D01*
X118562714Y-127770380D01*
X118657952Y-127722761D01*
X118705571Y-127675142D01*
X119181761Y-127770380D02*
X119181761Y-126770380D01*
X119181761Y-127151333D02*
X119277000Y-127103714D01*
X119467476Y-127103714D01*
X119562714Y-127151333D01*
X119610333Y-127198952D01*
X119657952Y-127294190D01*
X119657952Y-127579904D01*
X119610333Y-127675142D01*
X119562714Y-127722761D01*
X119467476Y-127770380D01*
X119277000Y-127770380D01*
X119181761Y-127722761D01*
X120086523Y-127675142D02*
X120134142Y-127722761D01*
X120086523Y-127770380D01*
X120038904Y-127722761D01*
X120086523Y-127675142D01*
X120086523Y-127770380D01*
X120991285Y-127722761D02*
X120896047Y-127770380D01*
X120705571Y-127770380D01*
X120610333Y-127722761D01*
X120562714Y-127675142D01*
X120515095Y-127579904D01*
X120515095Y-127294190D01*
X120562714Y-127198952D01*
X120610333Y-127151333D01*
X120705571Y-127103714D01*
X120896047Y-127103714D01*
X120991285Y-127151333D01*
X121562714Y-127770380D02*
X121467476Y-127722761D01*
X121419857Y-127675142D01*
X121372238Y-127579904D01*
X121372238Y-127294190D01*
X121419857Y-127198952D01*
X121467476Y-127151333D01*
X121562714Y-127103714D01*
X121705571Y-127103714D01*
X121800809Y-127151333D01*
X121848428Y-127198952D01*
X121896047Y-127294190D01*
X121896047Y-127579904D01*
X121848428Y-127675142D01*
X121800809Y-127722761D01*
X121705571Y-127770380D01*
X121562714Y-127770380D01*
X122324619Y-127770380D02*
X122324619Y-127103714D01*
X122324619Y-127198952D02*
X122372238Y-127151333D01*
X122467476Y-127103714D01*
X122610333Y-127103714D01*
X122705571Y-127151333D01*
X122753190Y-127246571D01*
X122753190Y-127770380D01*
X122753190Y-127246571D02*
X122800809Y-127151333D01*
X122896047Y-127103714D01*
X123038904Y-127103714D01*
X123134142Y-127151333D01*
X123181761Y-127246571D01*
X123181761Y-127770380D01*
X124372238Y-126722761D02*
X123515095Y-128008476D01*
X124610333Y-127770380D02*
X125134142Y-127103714D01*
X124610333Y-127103714D02*
X125134142Y-127770380D01*
X125896047Y-127722761D02*
X125800809Y-127770380D01*
X125610333Y-127770380D01*
X125515095Y-127722761D01*
X125467476Y-127627523D01*
X125467476Y-127246571D01*
X125515095Y-127151333D01*
X125610333Y-127103714D01*
X125800809Y-127103714D01*
X125896047Y-127151333D01*
X125943666Y-127246571D01*
X125943666Y-127341809D01*
X125467476Y-127437047D01*
X126372238Y-127770380D02*
X126372238Y-126770380D01*
X126800809Y-127770380D02*
X126800809Y-127246571D01*
X126753190Y-127151333D01*
X126657952Y-127103714D01*
X126515095Y-127103714D01*
X126419857Y-127151333D01*
X126372238Y-127198952D01*
X127277000Y-127103714D02*
X127277000Y-128103714D01*
X127277000Y-127151333D02*
X127372238Y-127103714D01*
X127562714Y-127103714D01*
X127657952Y-127151333D01*
X127705571Y-127198952D01*
X127753190Y-127294190D01*
X127753190Y-127579904D01*
X127705571Y-127675142D01*
X127657952Y-127722761D01*
X127562714Y-127770380D01*
X127372238Y-127770380D01*
X127277000Y-127722761D01*
X128896047Y-126722761D02*
X128038904Y-128008476D01*
X129229380Y-127770380D02*
X129229380Y-126770380D01*
X129229380Y-127246571D02*
X129800809Y-127246571D01*
X129800809Y-127770380D02*
X129800809Y-126770380D01*
X130229380Y-127484666D02*
X130705571Y-127484666D01*
X130134142Y-127770380D02*
X130467476Y-126770380D01*
X130800809Y-127770380D01*
X131467476Y-127246571D02*
X131610333Y-127294190D01*
X131657952Y-127341809D01*
X131705571Y-127437047D01*
X131705571Y-127579904D01*
X131657952Y-127675142D01*
X131610333Y-127722761D01*
X131515095Y-127770380D01*
X131134142Y-127770380D01*
X131134142Y-126770380D01*
X131467476Y-126770380D01*
X131562714Y-126818000D01*
X131610333Y-126865619D01*
X131657952Y-126960857D01*
X131657952Y-127056095D01*
X131610333Y-127151333D01*
X131562714Y-127198952D01*
X131467476Y-127246571D01*
X131134142Y-127246571D01*
X132610333Y-127770380D02*
X132134142Y-127770380D01*
X132134142Y-126770380D01*
X107896047Y-129420380D02*
X107896047Y-128420380D01*
X108324619Y-129420380D02*
X108324619Y-128896571D01*
X108276999Y-128801333D01*
X108181761Y-128753714D01*
X108038904Y-128753714D01*
X107943666Y-128801333D01*
X107896047Y-128848952D01*
X108657952Y-128753714D02*
X109038904Y-128753714D01*
X108800809Y-128420380D02*
X108800809Y-129277523D01*
X108848428Y-129372761D01*
X108943666Y-129420380D01*
X109038904Y-129420380D01*
X109229380Y-128753714D02*
X109610333Y-128753714D01*
X109372238Y-128420380D02*
X109372238Y-129277523D01*
X109419857Y-129372761D01*
X109515095Y-129420380D01*
X109610333Y-129420380D01*
X109943666Y-128753714D02*
X109943666Y-129753714D01*
X109943666Y-128801333D02*
X110038904Y-128753714D01*
X110229380Y-128753714D01*
X110324619Y-128801333D01*
X110372238Y-128848952D01*
X110419857Y-128944190D01*
X110419857Y-129229904D01*
X110372238Y-129325142D01*
X110324619Y-129372761D01*
X110229380Y-129420380D01*
X110038904Y-129420380D01*
X109943666Y-129372761D01*
X110800809Y-129372761D02*
X110896047Y-129420380D01*
X111086523Y-129420380D01*
X111181761Y-129372761D01*
X111229380Y-129277523D01*
X111229380Y-129229904D01*
X111181761Y-129134666D01*
X111086523Y-129087047D01*
X110943666Y-129087047D01*
X110848428Y-129039428D01*
X110800809Y-128944190D01*
X110800809Y-128896571D01*
X110848428Y-128801333D01*
X110943666Y-128753714D01*
X111086523Y-128753714D01*
X111181761Y-128801333D01*
X111657952Y-129325142D02*
X111705571Y-129372761D01*
X111657952Y-129420380D01*
X111610333Y-129372761D01*
X111657952Y-129325142D01*
X111657952Y-129420380D01*
X111657952Y-128801333D02*
X111705571Y-128848952D01*
X111657952Y-128896571D01*
X111610333Y-128848952D01*
X111657952Y-128801333D01*
X111657952Y-128896571D01*
X112848428Y-128372761D02*
X111991285Y-129658476D01*
X113896047Y-128372761D02*
X113038904Y-129658476D01*
X114657952Y-128753714D02*
X114657952Y-129563238D01*
X114610333Y-129658476D01*
X114562714Y-129706095D01*
X114467476Y-129753714D01*
X114324619Y-129753714D01*
X114229380Y-129706095D01*
X114657952Y-129372761D02*
X114562714Y-129420380D01*
X114372238Y-129420380D01*
X114276999Y-129372761D01*
X114229380Y-129325142D01*
X114181761Y-129229904D01*
X114181761Y-128944190D01*
X114229380Y-128848952D01*
X114276999Y-128801333D01*
X114372238Y-128753714D01*
X114562714Y-128753714D01*
X114657952Y-128801333D01*
X115134142Y-129420380D02*
X115134142Y-128753714D01*
X115134142Y-128420380D02*
X115086523Y-128468000D01*
X115134142Y-128515619D01*
X115181761Y-128468000D01*
X115134142Y-128420380D01*
X115134142Y-128515619D01*
X115467476Y-128753714D02*
X115848428Y-128753714D01*
X115610333Y-128420380D02*
X115610333Y-129277523D01*
X115657952Y-129372761D01*
X115753190Y-129420380D01*
X115848428Y-129420380D01*
X116181761Y-129420380D02*
X116181761Y-128420380D01*
X116610333Y-129420380D02*
X116610333Y-128896571D01*
X116562714Y-128801333D01*
X116467476Y-128753714D01*
X116324619Y-128753714D01*
X116229380Y-128801333D01*
X116181761Y-128848952D01*
X117515095Y-128753714D02*
X117515095Y-129420380D01*
X117086523Y-128753714D02*
X117086523Y-129277523D01*
X117134142Y-129372761D01*
X117229380Y-129420380D01*
X117372238Y-129420380D01*
X117467476Y-129372761D01*
X117515095Y-129325142D01*
X117991285Y-129420380D02*
X117991285Y-128420380D01*
X117991285Y-128801333D02*
X118086523Y-128753714D01*
X118277000Y-128753714D01*
X118372238Y-128801333D01*
X118419857Y-128848952D01*
X118467476Y-128944190D01*
X118467476Y-129229904D01*
X118419857Y-129325142D01*
X118372238Y-129372761D01*
X118277000Y-129420380D01*
X118086523Y-129420380D01*
X117991285Y-129372761D01*
X118896047Y-129325142D02*
X118943666Y-129372761D01*
X118896047Y-129420380D01*
X118848428Y-129372761D01*
X118896047Y-129325142D01*
X118896047Y-129420380D01*
X119800809Y-129372761D02*
X119705571Y-129420380D01*
X119515095Y-129420380D01*
X119419857Y-129372761D01*
X119372238Y-129325142D01*
X119324619Y-129229904D01*
X119324619Y-128944190D01*
X119372238Y-128848952D01*
X119419857Y-128801333D01*
X119515095Y-128753714D01*
X119705571Y-128753714D01*
X119800809Y-128801333D01*
X120372238Y-129420380D02*
X120276999Y-129372761D01*
X120229380Y-129325142D01*
X120181761Y-129229904D01*
X120181761Y-128944190D01*
X120229380Y-128848952D01*
X120276999Y-128801333D01*
X120372238Y-128753714D01*
X120515095Y-128753714D01*
X120610333Y-128801333D01*
X120657952Y-128848952D01*
X120705571Y-128944190D01*
X120705571Y-129229904D01*
X120657952Y-129325142D01*
X120610333Y-129372761D01*
X120515095Y-129420380D01*
X120372238Y-129420380D01*
X121134142Y-129420380D02*
X121134142Y-128753714D01*
X121134142Y-128848952D02*
X121181761Y-128801333D01*
X121276999Y-128753714D01*
X121419857Y-128753714D01*
X121515095Y-128801333D01*
X121562714Y-128896571D01*
X121562714Y-129420380D01*
X121562714Y-128896571D02*
X121610333Y-128801333D01*
X121705571Y-128753714D01*
X121848428Y-128753714D01*
X121943666Y-128801333D01*
X121991285Y-128896571D01*
X121991285Y-129420380D01*
X123181761Y-128372761D02*
X122324619Y-129658476D01*
X123419857Y-129420380D02*
X123943666Y-128753714D01*
X123419857Y-128753714D02*
X123943666Y-129420380D01*
X124705571Y-129372761D02*
X124610333Y-129420380D01*
X124419857Y-129420380D01*
X124324619Y-129372761D01*
X124276999Y-129277523D01*
X124276999Y-128896571D01*
X124324619Y-128801333D01*
X124419857Y-128753714D01*
X124610333Y-128753714D01*
X124705571Y-128801333D01*
X124753190Y-128896571D01*
X124753190Y-128991809D01*
X124276999Y-129087047D01*
X125181761Y-129420380D02*
X125181761Y-128420380D01*
X125610333Y-129420380D02*
X125610333Y-128896571D01*
X125562714Y-128801333D01*
X125467476Y-128753714D01*
X125324619Y-128753714D01*
X125229380Y-128801333D01*
X125181761Y-128848952D01*
X126086523Y-128753714D02*
X126086523Y-129753714D01*
X126086523Y-128801333D02*
X126181761Y-128753714D01*
X126372238Y-128753714D01*
X126467476Y-128801333D01*
X126515095Y-128848952D01*
X126562714Y-128944190D01*
X126562714Y-129229904D01*
X126515095Y-129325142D01*
X126467476Y-129372761D01*
X126372238Y-129420380D01*
X126181761Y-129420380D01*
X126086523Y-129372761D01*
X127705571Y-128372761D02*
X126848428Y-129658476D01*
X128181761Y-129420380D02*
X128086523Y-129372761D01*
X128038904Y-129277523D01*
X128038904Y-128420380D01*
X128991285Y-129420380D02*
X128991285Y-128896571D01*
X128943666Y-128801333D01*
X128848428Y-128753714D01*
X128657952Y-128753714D01*
X128562714Y-128801333D01*
X128991285Y-129372761D02*
X128896047Y-129420380D01*
X128657952Y-129420380D01*
X128562714Y-129372761D01*
X128515095Y-129277523D01*
X128515095Y-129182285D01*
X128562714Y-129087047D01*
X128657952Y-129039428D01*
X128896047Y-129039428D01*
X128991285Y-128991809D01*
X129419857Y-129372761D02*
X129515095Y-129420380D01*
X129705571Y-129420380D01*
X129800809Y-129372761D01*
X129848428Y-129277523D01*
X129848428Y-129229904D01*
X129800809Y-129134666D01*
X129705571Y-129087047D01*
X129562714Y-129087047D01*
X129467476Y-129039428D01*
X129419857Y-128944190D01*
X129419857Y-128896571D01*
X129467476Y-128801333D01*
X129562714Y-128753714D01*
X129705571Y-128753714D01*
X129800809Y-128801333D01*
X130657952Y-129372761D02*
X130562714Y-129420380D01*
X130372238Y-129420380D01*
X130276999Y-129372761D01*
X130229380Y-129277523D01*
X130229380Y-128896571D01*
X130276999Y-128801333D01*
X130372238Y-128753714D01*
X130562714Y-128753714D01*
X130657952Y-128801333D01*
X130705571Y-128896571D01*
X130705571Y-128991809D01*
X130229380Y-129087047D01*
X131134142Y-129420380D02*
X131134142Y-128753714D01*
X131134142Y-128944190D02*
X131181761Y-128848952D01*
X131229380Y-128801333D01*
X131324619Y-128753714D01*
X131419857Y-128753714D01*
X131610333Y-128753714D02*
X131991285Y-128753714D01*
X131753190Y-128420380D02*
X131753190Y-129277523D01*
X131800809Y-129372761D01*
X131896047Y-129420380D01*
X131991285Y-129420380D01*
X132753190Y-129420380D02*
X132753190Y-128896571D01*
X132705571Y-128801333D01*
X132610333Y-128753714D01*
X132419857Y-128753714D01*
X132324619Y-128801333D01*
X132753190Y-129372761D02*
X132657952Y-129420380D01*
X132419857Y-129420380D01*
X132324619Y-129372761D01*
X132276999Y-129277523D01*
X132276999Y-129182285D01*
X132324619Y-129087047D01*
X132419857Y-129039428D01*
X132657952Y-129039428D01*
X132753190Y-128991809D01*
X133657952Y-128753714D02*
X133657952Y-129563238D01*
X133610333Y-129658476D01*
X133562714Y-129706095D01*
X133467476Y-129753714D01*
X133324619Y-129753714D01*
X133229380Y-129706095D01*
X133657952Y-129372761D02*
X133562714Y-129420380D01*
X133372238Y-129420380D01*
X133276999Y-129372761D01*
X133229380Y-129325142D01*
X133181761Y-129229904D01*
X133181761Y-128944190D01*
X133229380Y-128848952D01*
X133276999Y-128801333D01*
X133372238Y-128753714D01*
X133562714Y-128753714D01*
X133657952Y-128801333D01*
D11*
X138448809Y-114727380D02*
X138448809Y-113727380D01*
X138448809Y-114203571D02*
X139020238Y-114203571D01*
X139020238Y-114727380D02*
X139020238Y-113727380D01*
X139877380Y-114679761D02*
X139782142Y-114727380D01*
X139591666Y-114727380D01*
X139496428Y-114679761D01*
X139448809Y-114584523D01*
X139448809Y-114203571D01*
X139496428Y-114108333D01*
X139591666Y-114060714D01*
X139782142Y-114060714D01*
X139877380Y-114108333D01*
X139925000Y-114203571D01*
X139925000Y-114298809D01*
X139448809Y-114394047D01*
X140353571Y-114060714D02*
X140353571Y-114727380D01*
X140353571Y-114155952D02*
X140401190Y-114108333D01*
X140496428Y-114060714D01*
X140639285Y-114060714D01*
X140734523Y-114108333D01*
X140782142Y-114203571D01*
X140782142Y-114727380D01*
X141258333Y-114727380D02*
X141258333Y-114060714D01*
X141258333Y-114251190D02*
X141305952Y-114155952D01*
X141353571Y-114108333D01*
X141448809Y-114060714D01*
X141544047Y-114060714D01*
X141877380Y-114727380D02*
X141877380Y-114060714D01*
X141877380Y-113727380D02*
X141829761Y-113775000D01*
X141877380Y-113822619D01*
X141925000Y-113775000D01*
X141877380Y-113727380D01*
X141877380Y-113822619D01*
X142353571Y-114727380D02*
X142353571Y-113727380D01*
X142448809Y-114346428D02*
X142734523Y-114727380D01*
X142734523Y-114060714D02*
X142353571Y-114441666D01*
X144258333Y-114203571D02*
X144401190Y-114251190D01*
X144448809Y-114298809D01*
X144496428Y-114394047D01*
X144496428Y-114536904D01*
X144448809Y-114632142D01*
X144401190Y-114679761D01*
X144305952Y-114727380D01*
X143925000Y-114727380D01*
X143925000Y-113727380D01*
X144258333Y-113727380D01*
X144353571Y-113775000D01*
X144401190Y-113822619D01*
X144448809Y-113917857D01*
X144448809Y-114013095D01*
X144401190Y-114108333D01*
X144353571Y-114155952D01*
X144258333Y-114203571D01*
X143925000Y-114203571D01*
X144925000Y-114060714D02*
X144925000Y-114917857D01*
X144877380Y-115013095D01*
X144782142Y-115060714D01*
X144734523Y-115060714D01*
X144925000Y-113727380D02*
X144877380Y-113775000D01*
X144925000Y-113822619D01*
X144972619Y-113775000D01*
X144925000Y-113727380D01*
X144925000Y-113822619D01*
X145544047Y-114727380D02*
X145448809Y-114679761D01*
X145401190Y-114632142D01*
X145353571Y-114536904D01*
X145353571Y-114251190D01*
X145401190Y-114155952D01*
X145448809Y-114108333D01*
X145544047Y-114060714D01*
X145686904Y-114060714D01*
X145782142Y-114108333D01*
X145829761Y-114155952D01*
X145877380Y-114251190D01*
X145877380Y-114536904D01*
X145829761Y-114632142D01*
X145782142Y-114679761D01*
X145686904Y-114727380D01*
X145544047Y-114727380D01*
X146305952Y-114727380D02*
X146305952Y-114060714D01*
X146305952Y-114251190D02*
X146353571Y-114155952D01*
X146401190Y-114108333D01*
X146496428Y-114060714D01*
X146591666Y-114060714D01*
X146925000Y-114727380D02*
X146925000Y-113727380D01*
X147020238Y-114346428D02*
X147305952Y-114727380D01*
X147305952Y-114060714D02*
X146925000Y-114441666D01*
X147734523Y-114727380D02*
X147734523Y-114060714D01*
X147734523Y-114155952D02*
X147782142Y-114108333D01*
X147877380Y-114060714D01*
X148020238Y-114060714D01*
X148115476Y-114108333D01*
X148163095Y-114203571D01*
X148163095Y-114727380D01*
X148163095Y-114203571D02*
X148210714Y-114108333D01*
X148305952Y-114060714D01*
X148448809Y-114060714D01*
X148544047Y-114108333D01*
X148591666Y-114203571D01*
X148591666Y-114727380D01*
X149496428Y-114727380D02*
X149496428Y-114203571D01*
X149448809Y-114108333D01*
X149353571Y-114060714D01*
X149163095Y-114060714D01*
X149067857Y-114108333D01*
X149496428Y-114679761D02*
X149401190Y-114727380D01*
X149163095Y-114727380D01*
X149067857Y-114679761D01*
X149020238Y-114584523D01*
X149020238Y-114489285D01*
X149067857Y-114394047D01*
X149163095Y-114346428D01*
X149401190Y-114346428D01*
X149496428Y-114298809D01*
X149972619Y-114060714D02*
X149972619Y-114727380D01*
X149972619Y-114155952D02*
X150020238Y-114108333D01*
X150115476Y-114060714D01*
X150258333Y-114060714D01*
X150353571Y-114108333D01*
X150401190Y-114203571D01*
X150401190Y-114727380D01*
X139305952Y-115760714D02*
X139496428Y-116427380D01*
X139686904Y-115951190D01*
X139877380Y-116427380D01*
X140067857Y-115760714D01*
X140353571Y-115760714D02*
X140544047Y-116427380D01*
X140734523Y-115951190D01*
X140925000Y-116427380D01*
X141115476Y-115760714D01*
X141401190Y-115760714D02*
X141591666Y-116427380D01*
X141782142Y-115951190D01*
X141972619Y-116427380D01*
X142163095Y-115760714D01*
X142544047Y-116332142D02*
X142591666Y-116379761D01*
X142544047Y-116427380D01*
X142496428Y-116379761D01*
X142544047Y-116332142D01*
X142544047Y-116427380D01*
X143401190Y-116379761D02*
X143305952Y-116427380D01*
X143115476Y-116427380D01*
X143020238Y-116379761D01*
X142972619Y-116284523D01*
X142972619Y-115903571D01*
X143020238Y-115808333D01*
X143115476Y-115760714D01*
X143305952Y-115760714D01*
X143401190Y-115808333D01*
X143448809Y-115903571D01*
X143448809Y-115998809D01*
X142972619Y-116094047D01*
X143877380Y-116427380D02*
X143877380Y-115760714D01*
X143877380Y-115427380D02*
X143829761Y-115475000D01*
X143877380Y-115522619D01*
X143925000Y-115475000D01*
X143877380Y-115427380D01*
X143877380Y-115522619D01*
X144210714Y-115760714D02*
X144591666Y-115760714D01*
X144353571Y-115427380D02*
X144353571Y-116284523D01*
X144401190Y-116379761D01*
X144496428Y-116427380D01*
X144591666Y-116427380D01*
X144924999Y-116332142D02*
X144972619Y-116379761D01*
X144924999Y-116427380D01*
X144877380Y-116379761D01*
X144924999Y-116332142D01*
X144924999Y-116427380D01*
X145353571Y-116379761D02*
X145448809Y-116427380D01*
X145639285Y-116427380D01*
X145734523Y-116379761D01*
X145782142Y-116284523D01*
X145782142Y-116236904D01*
X145734523Y-116141666D01*
X145639285Y-116094047D01*
X145496428Y-116094047D01*
X145401190Y-116046428D01*
X145353571Y-115951190D01*
X145353571Y-115903571D01*
X145401190Y-115808333D01*
X145496428Y-115760714D01*
X145639285Y-115760714D01*
X145734523Y-115808333D01*
X146591666Y-116379761D02*
X146496428Y-116427380D01*
X146305952Y-116427380D01*
X146210714Y-116379761D01*
X146163095Y-116284523D01*
X146163095Y-115903571D01*
X146210714Y-115808333D01*
X146305952Y-115760714D01*
X146496428Y-115760714D01*
X146591666Y-115808333D01*
X146639285Y-115903571D01*
X146639285Y-115998809D01*
X146163095Y-116094047D01*
X147782142Y-115379761D02*
X146924999Y-116665476D01*
X148115476Y-116427380D02*
X148115476Y-115427380D01*
X148544047Y-116427380D02*
X148544047Y-115903571D01*
X148496428Y-115808333D01*
X148401190Y-115760714D01*
X148258333Y-115760714D01*
X148163095Y-115808333D01*
X148115476Y-115855952D01*
X149020238Y-116427380D02*
X149020238Y-115427380D01*
X149020238Y-115808333D02*
X149115476Y-115760714D01*
X149305952Y-115760714D01*
X149401190Y-115808333D01*
X149448809Y-115855952D01*
X149496428Y-115951190D01*
X149496428Y-116236904D01*
X149448809Y-116332142D01*
X149401190Y-116379761D01*
X149305952Y-116427380D01*
X149115476Y-116427380D01*
X149020238Y-116379761D01*
X167203428Y-133222952D02*
X167203428Y-132461047D01*
D12*
X167773714Y-138652000D02*
X167811809Y-138690095D01*
X167849904Y-138804380D01*
X167849904Y-138880571D01*
X167811809Y-138994857D01*
X167735619Y-139071047D01*
X167659428Y-139109142D01*
X167507047Y-139147238D01*
X167392761Y-139147238D01*
X167240380Y-139109142D01*
X167164190Y-139071047D01*
X167088000Y-138994857D01*
X167049904Y-138880571D01*
X167049904Y-138804380D01*
X167088000Y-138690095D01*
X167126095Y-138652000D01*
X167849904Y-138309142D02*
X167049904Y-138309142D01*
X167849904Y-137966285D02*
X167430857Y-137966285D01*
X167354666Y-138004380D01*
X167316571Y-138080571D01*
X167316571Y-138194857D01*
X167354666Y-138271047D01*
X167392761Y-138309142D01*
X167849904Y-137242476D02*
X167430857Y-137242476D01*
X167354666Y-137280571D01*
X167316571Y-137356761D01*
X167316571Y-137509142D01*
X167354666Y-137585333D01*
X167811809Y-137242476D02*
X167849904Y-137318666D01*
X167849904Y-137509142D01*
X167811809Y-137585333D01*
X167735619Y-137623428D01*
X167659428Y-137623428D01*
X167583238Y-137585333D01*
X167545142Y-137509142D01*
X167545142Y-137318666D01*
X167507047Y-137242476D01*
X167849904Y-136861523D02*
X167316571Y-136861523D01*
X167468952Y-136861523D02*
X167392761Y-136823428D01*
X167354666Y-136785333D01*
X167316571Y-136709142D01*
X167316571Y-136632952D01*
X167316571Y-136023428D02*
X167964190Y-136023428D01*
X168040380Y-136061523D01*
X168078476Y-136099619D01*
X168116571Y-136175809D01*
X168116571Y-136290095D01*
X168078476Y-136366285D01*
X167811809Y-136023428D02*
X167849904Y-136099619D01*
X167849904Y-136252000D01*
X167811809Y-136328190D01*
X167773714Y-136366285D01*
X167697523Y-136404380D01*
X167468952Y-136404380D01*
X167392761Y-136366285D01*
X167354666Y-136328190D01*
X167316571Y-136252000D01*
X167316571Y-136099619D01*
X167354666Y-136023428D01*
X167849904Y-135642476D02*
X167316571Y-135642476D01*
X167049904Y-135642476D02*
X167088000Y-135680571D01*
X167126095Y-135642476D01*
X167088000Y-135604380D01*
X167049904Y-135642476D01*
X167126095Y-135642476D01*
X167316571Y-135261523D02*
X167849904Y-135261523D01*
X167392761Y-135261523D02*
X167354666Y-135223428D01*
X167316571Y-135147238D01*
X167316571Y-135032952D01*
X167354666Y-134956761D01*
X167430857Y-134918666D01*
X167849904Y-134918666D01*
X167316571Y-134194857D02*
X167964190Y-134194857D01*
X168040380Y-134232952D01*
X168078476Y-134271047D01*
X168116571Y-134347238D01*
X168116571Y-134461523D01*
X168078476Y-134537714D01*
X167811809Y-134194857D02*
X167849904Y-134271047D01*
X167849904Y-134423428D01*
X167811809Y-134499619D01*
X167773714Y-134537714D01*
X167697523Y-134575809D01*
X167468952Y-134575809D01*
X167392761Y-134537714D01*
X167354666Y-134499619D01*
X167316571Y-134423428D01*
X167316571Y-134271047D01*
X167354666Y-134194857D01*
X168369904Y-137909142D02*
X168369904Y-138290095D01*
X168750857Y-138328190D01*
X168712761Y-138290095D01*
X168674666Y-138213904D01*
X168674666Y-138023428D01*
X168712761Y-137947238D01*
X168750857Y-137909142D01*
X168827047Y-137871047D01*
X169017523Y-137871047D01*
X169093714Y-137909142D01*
X169131809Y-137947238D01*
X169169904Y-138023428D01*
X169169904Y-138213904D01*
X169131809Y-138290095D01*
X169093714Y-138328190D01*
X168369904Y-137032952D02*
X169169904Y-136766285D01*
X168369904Y-136499619D01*
X169169904Y-136118666D02*
X169131809Y-136194857D01*
X169093714Y-136232952D01*
X169017523Y-136271047D01*
X168788952Y-136271047D01*
X168712761Y-136232952D01*
X168674666Y-136194857D01*
X168636571Y-136118666D01*
X168636571Y-136004380D01*
X168674666Y-135928190D01*
X168712761Y-135890095D01*
X168788952Y-135852000D01*
X169017523Y-135852000D01*
X169093714Y-135890095D01*
X169131809Y-135928190D01*
X169169904Y-136004380D01*
X169169904Y-136118666D01*
X169169904Y-135394857D02*
X169131809Y-135471047D01*
X169055619Y-135509142D01*
X168369904Y-135509142D01*
X168636571Y-135204380D02*
X168636571Y-134899619D01*
X168369904Y-135090095D02*
X169055619Y-135090095D01*
X169131809Y-135052000D01*
X169169904Y-134975809D01*
X169169904Y-134899619D01*
D13*
X152106571Y-140644571D02*
X152249428Y-140692190D01*
X152297047Y-140739809D01*
X152344666Y-140835047D01*
X152344666Y-140977904D01*
X152297047Y-141073142D01*
X152249428Y-141120761D01*
X152154190Y-141168380D01*
X151773238Y-141168380D01*
X151773238Y-140168380D01*
X152106571Y-140168380D01*
X152201809Y-140216000D01*
X152249428Y-140263619D01*
X152297047Y-140358857D01*
X152297047Y-140454095D01*
X152249428Y-140549333D01*
X152201809Y-140596952D01*
X152106571Y-140644571D01*
X151773238Y-140644571D01*
X153201809Y-141168380D02*
X153201809Y-140644571D01*
X153154190Y-140549333D01*
X153058952Y-140501714D01*
X152868476Y-140501714D01*
X152773238Y-140549333D01*
X153201809Y-141120761D02*
X153106571Y-141168380D01*
X152868476Y-141168380D01*
X152773238Y-141120761D01*
X152725619Y-141025523D01*
X152725619Y-140930285D01*
X152773238Y-140835047D01*
X152868476Y-140787428D01*
X153106571Y-140787428D01*
X153201809Y-140739809D01*
X153535142Y-140501714D02*
X153916095Y-140501714D01*
X153678000Y-140168380D02*
X153678000Y-141025523D01*
X153725619Y-141120761D01*
X153820857Y-141168380D01*
X153916095Y-141168380D01*
X154106571Y-140501714D02*
X154487523Y-140501714D01*
X154249428Y-140168380D02*
X154249428Y-141025523D01*
X154297047Y-141120761D01*
X154392285Y-141168380D01*
X154487523Y-141168380D01*
X155201809Y-141120761D02*
X155106571Y-141168380D01*
X154916095Y-141168380D01*
X154820857Y-141120761D01*
X154773238Y-141025523D01*
X154773238Y-140644571D01*
X154820857Y-140549333D01*
X154916095Y-140501714D01*
X155106571Y-140501714D01*
X155201809Y-140549333D01*
X155249428Y-140644571D01*
X155249428Y-140739809D01*
X154773238Y-140835047D01*
X155678000Y-141168380D02*
X155678000Y-140501714D01*
X155678000Y-140692190D02*
X155725619Y-140596952D01*
X155773238Y-140549333D01*
X155868476Y-140501714D01*
X155963714Y-140501714D01*
X156201809Y-140501714D02*
X156439904Y-141168380D01*
X156678000Y-140501714D02*
X156439904Y-141168380D01*
X156344666Y-141406476D01*
X156297047Y-141454095D01*
X156201809Y-141501714D01*
D11*
X167203428Y-140588952D02*
X167203428Y-139827047D01*
X167584380Y-140208000D02*
X166822476Y-140208000D01*
D10*
X87066380Y-127872761D02*
X86066380Y-127872761D01*
X87066380Y-126825142D02*
X86590190Y-127158476D01*
X87066380Y-127396571D02*
X86066380Y-127396571D01*
X86066380Y-127015619D01*
X86114000Y-126920380D01*
X86161619Y-126872761D01*
X86256857Y-126825142D01*
X86399714Y-126825142D01*
X86494952Y-126872761D01*
X86542571Y-126920380D01*
X86590190Y-127015619D01*
X86590190Y-127396571D01*
X87066380Y-125206095D02*
X86066380Y-125206095D01*
X87018761Y-125206095D02*
X87066380Y-125301333D01*
X87066380Y-125491809D01*
X87018761Y-125587047D01*
X86971142Y-125634666D01*
X86875904Y-125682285D01*
X86590190Y-125682285D01*
X86494952Y-125634666D01*
X86447333Y-125587047D01*
X86399714Y-125491809D01*
X86399714Y-125301333D01*
X86447333Y-125206095D01*
X87066380Y-124729904D02*
X86399714Y-124729904D01*
X86066380Y-124729904D02*
X86114000Y-124777523D01*
X86161619Y-124729904D01*
X86114000Y-124682285D01*
X86066380Y-124729904D01*
X86161619Y-124729904D01*
X87066380Y-124110857D02*
X87018761Y-124206095D01*
X86971142Y-124253714D01*
X86875904Y-124301333D01*
X86590190Y-124301333D01*
X86494952Y-124253714D01*
X86447333Y-124206095D01*
X86399714Y-124110857D01*
X86399714Y-123968000D01*
X86447333Y-123872761D01*
X86494952Y-123825142D01*
X86590190Y-123777523D01*
X86875904Y-123777523D01*
X86971142Y-123825142D01*
X87018761Y-123872761D01*
X87066380Y-123968000D01*
X87066380Y-124110857D01*
X87066380Y-122920380D02*
X86066380Y-122920380D01*
X87018761Y-122920380D02*
X87066380Y-123015619D01*
X87066380Y-123206095D01*
X87018761Y-123301333D01*
X86971142Y-123348952D01*
X86875904Y-123396571D01*
X86590190Y-123396571D01*
X86494952Y-123348952D01*
X86447333Y-123301333D01*
X86399714Y-123206095D01*
X86399714Y-123015619D01*
X86447333Y-122920380D01*
X87018761Y-122063238D02*
X87066380Y-122158476D01*
X87066380Y-122348952D01*
X87018761Y-122444190D01*
X86923523Y-122491809D01*
X86542571Y-122491809D01*
X86447333Y-122444190D01*
X86399714Y-122348952D01*
X86399714Y-122158476D01*
X86447333Y-122063238D01*
X86542571Y-122015619D01*
X86637809Y-122015619D01*
X86733047Y-122491809D01*
X116030857Y-154582761D02*
X116173714Y-154630380D01*
X116411809Y-154630380D01*
X116507047Y-154582761D01*
X116554666Y-154535142D01*
X116602285Y-154439904D01*
X116602285Y-154344666D01*
X116554666Y-154249428D01*
X116507047Y-154201809D01*
X116411809Y-154154190D01*
X116221333Y-154106571D01*
X116126095Y-154058952D01*
X116078476Y-154011333D01*
X116030857Y-153916095D01*
X116030857Y-153820857D01*
X116078476Y-153725619D01*
X116126095Y-153678000D01*
X116221333Y-153630380D01*
X116459428Y-153630380D01*
X116602285Y-153678000D01*
X117411809Y-154582761D02*
X117316571Y-154630380D01*
X117126095Y-154630380D01*
X117030857Y-154582761D01*
X116983238Y-154487523D01*
X116983238Y-154106571D01*
X117030857Y-154011333D01*
X117126095Y-153963714D01*
X117316571Y-153963714D01*
X117411809Y-154011333D01*
X117459428Y-154106571D01*
X117459428Y-154201809D01*
X116983238Y-154297047D01*
X117888000Y-154630380D02*
X117888000Y-153963714D01*
X117888000Y-154154190D02*
X117935619Y-154058952D01*
X117983238Y-154011333D01*
X118078476Y-153963714D01*
X118173714Y-153963714D01*
X118507047Y-154630380D02*
X118507047Y-153963714D01*
X118507047Y-153630380D02*
X118459428Y-153678000D01*
X118507047Y-153725619D01*
X118554666Y-153678000D01*
X118507047Y-153630380D01*
X118507047Y-153725619D01*
X119411809Y-154630380D02*
X119411809Y-154106571D01*
X119364190Y-154011333D01*
X119268952Y-153963714D01*
X119078476Y-153963714D01*
X118983238Y-154011333D01*
X119411809Y-154582761D02*
X119316571Y-154630380D01*
X119078476Y-154630380D01*
X118983238Y-154582761D01*
X118935619Y-154487523D01*
X118935619Y-154392285D01*
X118983238Y-154297047D01*
X119078476Y-154249428D01*
X119316571Y-154249428D01*
X119411809Y-154201809D01*
X120030857Y-154630380D02*
X119935619Y-154582761D01*
X119888000Y-154487523D01*
X119888000Y-153630380D01*
X121173714Y-153963714D02*
X121173714Y-154963714D01*
X121173714Y-154011333D02*
X121268952Y-153963714D01*
X121459428Y-153963714D01*
X121554666Y-154011333D01*
X121602285Y-154058952D01*
X121649904Y-154154190D01*
X121649904Y-154439904D01*
X121602285Y-154535142D01*
X121554666Y-154582761D01*
X121459428Y-154630380D01*
X121268952Y-154630380D01*
X121173714Y-154582761D01*
X122221333Y-154630380D02*
X122126095Y-154582761D01*
X122078476Y-154535142D01*
X122030857Y-154439904D01*
X122030857Y-154154190D01*
X122078476Y-154058952D01*
X122126095Y-154011333D01*
X122221333Y-153963714D01*
X122364190Y-153963714D01*
X122459428Y-154011333D01*
X122507047Y-154058952D01*
X122554666Y-154154190D01*
X122554666Y-154439904D01*
X122507047Y-154535142D01*
X122459428Y-154582761D01*
X122364190Y-154630380D01*
X122221333Y-154630380D01*
X122983238Y-154630380D02*
X122983238Y-153963714D01*
X122983238Y-154154190D02*
X123030857Y-154058952D01*
X123078476Y-154011333D01*
X123173714Y-153963714D01*
X123268952Y-153963714D01*
X123459428Y-153963714D02*
X123840380Y-153963714D01*
X123602285Y-153630380D02*
X123602285Y-154487523D01*
X123649904Y-154582761D01*
X123745142Y-154630380D01*
X123840380Y-154630380D01*
X134985285Y-154503380D02*
X134509095Y-154503380D01*
X134509095Y-153503380D01*
X135747190Y-154503380D02*
X135747190Y-153979571D01*
X135699571Y-153884333D01*
X135604333Y-153836714D01*
X135413857Y-153836714D01*
X135318619Y-153884333D01*
X135747190Y-154455761D02*
X135651952Y-154503380D01*
X135413857Y-154503380D01*
X135318619Y-154455761D01*
X135271000Y-154360523D01*
X135271000Y-154265285D01*
X135318619Y-154170047D01*
X135413857Y-154122428D01*
X135651952Y-154122428D01*
X135747190Y-154074809D01*
X136175761Y-154455761D02*
X136271000Y-154503380D01*
X136461476Y-154503380D01*
X136556714Y-154455761D01*
X136604333Y-154360523D01*
X136604333Y-154312904D01*
X136556714Y-154217666D01*
X136461476Y-154170047D01*
X136318619Y-154170047D01*
X136223380Y-154122428D01*
X136175761Y-154027190D01*
X136175761Y-153979571D01*
X136223380Y-153884333D01*
X136318619Y-153836714D01*
X136461476Y-153836714D01*
X136556714Y-153884333D01*
X137413857Y-154455761D02*
X137318619Y-154503380D01*
X137128142Y-154503380D01*
X137032904Y-154455761D01*
X136985285Y-154360523D01*
X136985285Y-153979571D01*
X137032904Y-153884333D01*
X137128142Y-153836714D01*
X137318619Y-153836714D01*
X137413857Y-153884333D01*
X137461476Y-153979571D01*
X137461476Y-154074809D01*
X136985285Y-154170047D01*
X137890047Y-154503380D02*
X137890047Y-153836714D01*
X137890047Y-154027190D02*
X137937666Y-153931952D01*
X137985285Y-153884333D01*
X138080523Y-153836714D01*
X138175761Y-153836714D01*
X142939428Y-154503380D02*
X142939428Y-153503380D01*
X143987047Y-154503380D02*
X143653714Y-154027190D01*
X143415619Y-154503380D02*
X143415619Y-153503380D01*
X143796571Y-153503380D01*
X143891809Y-153551000D01*
X143939428Y-153598619D01*
X143987047Y-153693857D01*
X143987047Y-153836714D01*
X143939428Y-153931952D01*
X143891809Y-153979571D01*
X143796571Y-154027190D01*
X143415619Y-154027190D01*
X145129904Y-154455761D02*
X145225142Y-154503380D01*
X145415619Y-154503380D01*
X145510857Y-154455761D01*
X145558476Y-154360523D01*
X145558476Y-154312904D01*
X145510857Y-154217666D01*
X145415619Y-154170047D01*
X145272761Y-154170047D01*
X145177523Y-154122428D01*
X145129904Y-154027190D01*
X145129904Y-153979571D01*
X145177523Y-153884333D01*
X145272761Y-153836714D01*
X145415619Y-153836714D01*
X145510857Y-153884333D01*
X146368000Y-154455761D02*
X146272761Y-154503380D01*
X146082285Y-154503380D01*
X145987047Y-154455761D01*
X145939428Y-154360523D01*
X145939428Y-153979571D01*
X145987047Y-153884333D01*
X146082285Y-153836714D01*
X146272761Y-153836714D01*
X146368000Y-153884333D01*
X146415619Y-153979571D01*
X146415619Y-154074809D01*
X145939428Y-154170047D01*
X146844190Y-153836714D02*
X146844190Y-154503380D01*
X146844190Y-153931952D02*
X146891809Y-153884333D01*
X146987047Y-153836714D01*
X147129904Y-153836714D01*
X147225142Y-153884333D01*
X147272761Y-153979571D01*
X147272761Y-154503380D01*
X147701333Y-154455761D02*
X147796571Y-154503380D01*
X147987047Y-154503380D01*
X148082285Y-154455761D01*
X148129904Y-154360523D01*
X148129904Y-154312904D01*
X148082285Y-154217666D01*
X147987047Y-154170047D01*
X147844190Y-154170047D01*
X147748952Y-154122428D01*
X147701333Y-154027190D01*
X147701333Y-153979571D01*
X147748952Y-153884333D01*
X147844190Y-153836714D01*
X147987047Y-153836714D01*
X148082285Y-153884333D01*
X148701333Y-154503380D02*
X148606095Y-154455761D01*
X148558476Y-154408142D01*
X148510857Y-154312904D01*
X148510857Y-154027190D01*
X148558476Y-153931952D01*
X148606095Y-153884333D01*
X148701333Y-153836714D01*
X148844190Y-153836714D01*
X148939428Y-153884333D01*
X148987047Y-153931952D01*
X149034666Y-154027190D01*
X149034666Y-154312904D01*
X148987047Y-154408142D01*
X148939428Y-154455761D01*
X148844190Y-154503380D01*
X148701333Y-154503380D01*
X149463238Y-154503380D02*
X149463238Y-153836714D01*
X149463238Y-154027190D02*
X149510857Y-153931952D01*
X149558476Y-153884333D01*
X149653714Y-153836714D01*
X149748952Y-153836714D01*
X151129904Y-154884333D02*
X151082285Y-154836714D01*
X150987047Y-154693857D01*
X150939428Y-154598619D01*
X150891809Y-154455761D01*
X150844190Y-154217666D01*
X150844190Y-154027190D01*
X150891809Y-153789095D01*
X150939428Y-153646238D01*
X150987047Y-153551000D01*
X151082285Y-153408142D01*
X151129904Y-153360523D01*
X151653714Y-154503380D02*
X151558476Y-154455761D01*
X151510857Y-154408142D01*
X151463238Y-154312904D01*
X151463238Y-154027190D01*
X151510857Y-153931952D01*
X151558476Y-153884333D01*
X151653714Y-153836714D01*
X151796571Y-153836714D01*
X151891809Y-153884333D01*
X151939428Y-153931952D01*
X151987047Y-154027190D01*
X151987047Y-154312904D01*
X151939428Y-154408142D01*
X151891809Y-154455761D01*
X151796571Y-154503380D01*
X151653714Y-154503380D01*
X152415619Y-153836714D02*
X152415619Y-154836714D01*
X152415619Y-153884333D02*
X152510857Y-153836714D01*
X152701333Y-153836714D01*
X152796571Y-153884333D01*
X152844190Y-153931952D01*
X152891809Y-154027190D01*
X152891809Y-154312904D01*
X152844190Y-154408142D01*
X152796571Y-154455761D01*
X152701333Y-154503380D01*
X152510857Y-154503380D01*
X152415619Y-154455761D01*
X153177523Y-153836714D02*
X153558476Y-153836714D01*
X153320380Y-153503380D02*
X153320380Y-154360523D01*
X153368000Y-154455761D01*
X153463238Y-154503380D01*
X153558476Y-154503380D01*
X153891809Y-154503380D02*
X153891809Y-153836714D01*
X153891809Y-153503380D02*
X153844190Y-153551000D01*
X153891809Y-153598619D01*
X153939428Y-153551000D01*
X153891809Y-153503380D01*
X153891809Y-153598619D01*
X154510857Y-154503380D02*
X154415619Y-154455761D01*
X154368000Y-154408142D01*
X154320380Y-154312904D01*
X154320380Y-154027190D01*
X154368000Y-153931952D01*
X154415619Y-153884333D01*
X154510857Y-153836714D01*
X154653714Y-153836714D01*
X154748952Y-153884333D01*
X154796571Y-153931952D01*
X154844190Y-154027190D01*
X154844190Y-154312904D01*
X154796571Y-154408142D01*
X154748952Y-154455761D01*
X154653714Y-154503380D01*
X154510857Y-154503380D01*
X155272761Y-153836714D02*
X155272761Y-154503380D01*
X155272761Y-153931952D02*
X155320380Y-153884333D01*
X155415619Y-153836714D01*
X155558476Y-153836714D01*
X155653714Y-153884333D01*
X155701333Y-153979571D01*
X155701333Y-154503380D01*
X156606095Y-154503380D02*
X156606095Y-153979571D01*
X156558476Y-153884333D01*
X156463238Y-153836714D01*
X156272761Y-153836714D01*
X156177523Y-153884333D01*
X156606095Y-154455761D02*
X156510857Y-154503380D01*
X156272761Y-154503380D01*
X156177523Y-154455761D01*
X156129904Y-154360523D01*
X156129904Y-154265285D01*
X156177523Y-154170047D01*
X156272761Y-154122428D01*
X156510857Y-154122428D01*
X156606095Y-154074809D01*
X157225142Y-154503380D02*
X157129904Y-154455761D01*
X157082285Y-154360523D01*
X157082285Y-153503380D01*
X157510857Y-154884333D02*
X157558476Y-154836714D01*
X157653714Y-154693857D01*
X157701333Y-154598619D01*
X157748952Y-154455761D01*
X157796571Y-154217666D01*
X157796571Y-154027190D01*
X157748952Y-153789095D01*
X157701333Y-153646238D01*
X157653714Y-153551000D01*
X157558476Y-153408142D01*
X157510857Y-153360523D01*
X105696095Y-154455761D02*
X105838952Y-154503380D01*
X106077047Y-154503380D01*
X106172285Y-154455761D01*
X106219904Y-154408142D01*
X106267523Y-154312904D01*
X106267523Y-154217666D01*
X106219904Y-154122428D01*
X106172285Y-154074809D01*
X106077047Y-154027190D01*
X105886571Y-153979571D01*
X105791333Y-153931952D01*
X105743714Y-153884333D01*
X105696095Y-153789095D01*
X105696095Y-153693857D01*
X105743714Y-153598619D01*
X105791333Y-153551000D01*
X105886571Y-153503380D01*
X106124666Y-153503380D01*
X106267523Y-153551000D01*
X106696095Y-153836714D02*
X106696095Y-154836714D01*
X106696095Y-153884333D02*
X106791333Y-153836714D01*
X106981809Y-153836714D01*
X107077047Y-153884333D01*
X107124666Y-153931952D01*
X107172285Y-154027190D01*
X107172285Y-154312904D01*
X107124666Y-154408142D01*
X107077047Y-154455761D01*
X106981809Y-154503380D01*
X106791333Y-154503380D01*
X106696095Y-154455761D01*
X107981809Y-154455761D02*
X107886571Y-154503380D01*
X107696095Y-154503380D01*
X107600857Y-154455761D01*
X107553238Y-154360523D01*
X107553238Y-153979571D01*
X107600857Y-153884333D01*
X107696095Y-153836714D01*
X107886571Y-153836714D01*
X107981809Y-153884333D01*
X108029428Y-153979571D01*
X108029428Y-154074809D01*
X107553238Y-154170047D01*
X108886571Y-154503380D02*
X108886571Y-153979571D01*
X108838952Y-153884333D01*
X108743714Y-153836714D01*
X108553238Y-153836714D01*
X108458000Y-153884333D01*
X108886571Y-154455761D02*
X108791333Y-154503380D01*
X108553238Y-154503380D01*
X108458000Y-154455761D01*
X108410380Y-154360523D01*
X108410380Y-154265285D01*
X108458000Y-154170047D01*
X108553238Y-154122428D01*
X108791333Y-154122428D01*
X108886571Y-154074809D01*
X109362761Y-154503380D02*
X109362761Y-153503380D01*
X109458000Y-154122428D02*
X109743714Y-154503380D01*
X109743714Y-153836714D02*
X109362761Y-154217666D01*
X110553238Y-154455761D02*
X110458000Y-154503380D01*
X110267523Y-154503380D01*
X110172285Y-154455761D01*
X110124666Y-154360523D01*
X110124666Y-153979571D01*
X110172285Y-153884333D01*
X110267523Y-153836714D01*
X110458000Y-153836714D01*
X110553238Y-153884333D01*
X110600857Y-153979571D01*
X110600857Y-154074809D01*
X110124666Y-154170047D01*
X111029428Y-154503380D02*
X111029428Y-153836714D01*
X111029428Y-154027190D02*
X111077047Y-153931952D01*
X111124666Y-153884333D01*
X111219904Y-153836714D01*
X111315142Y-153836714D01*
D11*
X115166666Y-99452380D02*
X115500000Y-100452380D01*
X115833333Y-99452380D01*
X116166666Y-100452380D02*
X116166666Y-99785714D01*
X116166666Y-99452380D02*
X116119047Y-99500000D01*
X116166666Y-99547619D01*
X116214285Y-99500000D01*
X116166666Y-99452380D01*
X116166666Y-99547619D01*
X116642857Y-100452380D02*
X116642857Y-99452380D01*
X116642857Y-99833333D02*
X116738095Y-99785714D01*
X116928571Y-99785714D01*
X117023809Y-99833333D01*
X117071428Y-99880952D01*
X117119047Y-99976190D01*
X117119047Y-100261904D01*
X117071428Y-100357142D01*
X117023809Y-100404761D01*
X116928571Y-100452380D01*
X116738095Y-100452380D01*
X116642857Y-100404761D01*
X117547619Y-100452380D02*
X117547619Y-99785714D01*
X117547619Y-99976190D02*
X117595238Y-99880952D01*
X117642857Y-99833333D01*
X117738095Y-99785714D01*
X117833333Y-99785714D01*
X118595238Y-100452380D02*
X118595238Y-99928571D01*
X118547619Y-99833333D01*
X118452380Y-99785714D01*
X118261904Y-99785714D01*
X118166666Y-99833333D01*
X118595238Y-100404761D02*
X118500000Y-100452380D01*
X118261904Y-100452380D01*
X118166666Y-100404761D01*
X118119047Y-100309523D01*
X118119047Y-100214285D01*
X118166666Y-100119047D01*
X118261904Y-100071428D01*
X118500000Y-100071428D01*
X118595238Y-100023809D01*
X118928571Y-99785714D02*
X119309523Y-99785714D01*
X119071428Y-99452380D02*
X119071428Y-100309523D01*
X119119047Y-100404761D01*
X119214285Y-100452380D01*
X119309523Y-100452380D01*
X119785714Y-100452380D02*
X119690476Y-100404761D01*
X119642857Y-100357142D01*
X119595238Y-100261904D01*
X119595238Y-99976190D01*
X119642857Y-99880952D01*
X119690476Y-99833333D01*
X119785714Y-99785714D01*
X119928571Y-99785714D01*
X120023809Y-99833333D01*
X120071428Y-99880952D01*
X120119047Y-99976190D01*
X120119047Y-100261904D01*
X120071428Y-100357142D01*
X120023809Y-100404761D01*
X119928571Y-100452380D01*
X119785714Y-100452380D01*
X120547619Y-100452380D02*
X120547619Y-99785714D01*
X120547619Y-99976190D02*
X120595238Y-99880952D01*
X120642857Y-99833333D01*
X120738095Y-99785714D01*
X120833333Y-99785714D01*
D10*
X105773809Y-99452380D02*
X106345238Y-99452380D01*
X106059523Y-100452380D02*
X106059523Y-99452380D01*
X106678571Y-100452380D02*
X106678571Y-99785714D01*
X106678571Y-99976190D02*
X106726190Y-99880952D01*
X106773809Y-99833333D01*
X106869047Y-99785714D01*
X106964285Y-99785714D01*
X107297619Y-100452380D02*
X107297619Y-99785714D01*
X107297619Y-99452380D02*
X107250000Y-99500000D01*
X107297619Y-99547619D01*
X107345238Y-99500000D01*
X107297619Y-99452380D01*
X107297619Y-99547619D01*
X108202380Y-99785714D02*
X108202380Y-100595238D01*
X108154761Y-100690476D01*
X108107142Y-100738095D01*
X108011904Y-100785714D01*
X107869047Y-100785714D01*
X107773809Y-100738095D01*
X108202380Y-100404761D02*
X108107142Y-100452380D01*
X107916666Y-100452380D01*
X107821428Y-100404761D01*
X107773809Y-100357142D01*
X107726190Y-100261904D01*
X107726190Y-99976190D01*
X107773809Y-99880952D01*
X107821428Y-99833333D01*
X107916666Y-99785714D01*
X108107142Y-99785714D01*
X108202380Y-99833333D01*
X109107142Y-99785714D02*
X109107142Y-100595238D01*
X109059523Y-100690476D01*
X109011904Y-100738095D01*
X108916666Y-100785714D01*
X108773809Y-100785714D01*
X108678571Y-100738095D01*
X109107142Y-100404761D02*
X109011904Y-100452380D01*
X108821428Y-100452380D01*
X108726190Y-100404761D01*
X108678571Y-100357142D01*
X108630952Y-100261904D01*
X108630952Y-99976190D01*
X108678571Y-99880952D01*
X108726190Y-99833333D01*
X108821428Y-99785714D01*
X109011904Y-99785714D01*
X109107142Y-99833333D01*
X109964285Y-100404761D02*
X109869047Y-100452380D01*
X109678571Y-100452380D01*
X109583333Y-100404761D01*
X109535714Y-100309523D01*
X109535714Y-99928571D01*
X109583333Y-99833333D01*
X109678571Y-99785714D01*
X109869047Y-99785714D01*
X109964285Y-99833333D01*
X110011904Y-99928571D01*
X110011904Y-100023809D01*
X109535714Y-100119047D01*
X110440476Y-100452380D02*
X110440476Y-99785714D01*
X110440476Y-99976190D02*
X110488095Y-99880952D01*
X110535714Y-99833333D01*
X110630952Y-99785714D01*
X110726190Y-99785714D01*
D11*
X122012857Y-108197619D02*
X122060476Y-108150000D01*
X122155714Y-108102380D01*
X122393809Y-108102380D01*
X122489047Y-108150000D01*
X122536666Y-108197619D01*
X122584285Y-108292857D01*
X122584285Y-108388095D01*
X122536666Y-108530952D01*
X121965238Y-109102380D01*
X122584285Y-109102380D01*
X123203333Y-108102380D02*
X123298571Y-108102380D01*
X123393809Y-108150000D01*
X123441428Y-108197619D01*
X123489047Y-108292857D01*
X123536666Y-108483333D01*
X123536666Y-108721428D01*
X123489047Y-108911904D01*
X123441428Y-109007142D01*
X123393809Y-109054761D01*
X123298571Y-109102380D01*
X123203333Y-109102380D01*
X123108095Y-109054761D01*
X123060476Y-109007142D01*
X123012857Y-108911904D01*
X122965238Y-108721428D01*
X122965238Y-108483333D01*
X123012857Y-108292857D01*
X123060476Y-108197619D01*
X123108095Y-108150000D01*
X123203333Y-108102380D01*
X123917619Y-108197619D02*
X123965238Y-108150000D01*
X124060476Y-108102380D01*
X124298571Y-108102380D01*
X124393809Y-108150000D01*
X124441428Y-108197619D01*
X124489047Y-108292857D01*
X124489047Y-108388095D01*
X124441428Y-108530952D01*
X123870000Y-109102380D01*
X124489047Y-109102380D01*
X125441428Y-109102380D02*
X124870000Y-109102380D01*
X125155714Y-109102380D02*
X125155714Y-108102380D01*
X125060476Y-108245238D01*
X124965238Y-108340476D01*
X124870000Y-108388095D01*
X125870000Y-108721428D02*
X126631904Y-108721428D01*
X127298571Y-108102380D02*
X127393809Y-108102380D01*
X127489047Y-108150000D01*
X127536666Y-108197619D01*
X127584285Y-108292857D01*
X127631904Y-108483333D01*
X127631904Y-108721428D01*
X127584285Y-108911904D01*
X127536666Y-109007142D01*
X127489047Y-109054761D01*
X127393809Y-109102380D01*
X127298571Y-109102380D01*
X127203333Y-109054761D01*
X127155714Y-109007142D01*
X127108095Y-108911904D01*
X127060476Y-108721428D01*
X127060476Y-108483333D01*
X127108095Y-108292857D01*
X127155714Y-108197619D01*
X127203333Y-108150000D01*
X127298571Y-108102380D01*
X128536666Y-108102380D02*
X128060476Y-108102380D01*
X128012857Y-108578571D01*
X128060476Y-108530952D01*
X128155714Y-108483333D01*
X128393809Y-108483333D01*
X128489047Y-108530952D01*
X128536666Y-108578571D01*
X128584285Y-108673809D01*
X128584285Y-108911904D01*
X128536666Y-109007142D01*
X128489047Y-109054761D01*
X128393809Y-109102380D01*
X128155714Y-109102380D01*
X128060476Y-109054761D01*
X128012857Y-109007142D01*
X129012857Y-108721428D02*
X129774761Y-108721428D01*
X130203333Y-108197619D02*
X130250952Y-108150000D01*
X130346190Y-108102380D01*
X130584285Y-108102380D01*
X130679523Y-108150000D01*
X130727142Y-108197619D01*
X130774761Y-108292857D01*
X130774761Y-108388095D01*
X130727142Y-108530952D01*
X130155714Y-109102380D01*
X130774761Y-109102380D01*
X131108095Y-108102380D02*
X131774761Y-108102380D01*
X131346190Y-109102380D01*
D14*
X117468571Y-110318571D02*
X117754285Y-111318571D01*
X118040000Y-110604285D01*
X118325714Y-111318571D01*
X118611428Y-110318571D01*
X119040000Y-110318571D02*
X119325714Y-111318571D01*
X119611428Y-110604285D01*
X119897142Y-111318571D01*
X120182857Y-110318571D01*
X120611428Y-110318571D02*
X120897142Y-111318571D01*
X121182857Y-110604285D01*
X121468571Y-111318571D01*
X121754285Y-110318571D01*
X122325714Y-111175714D02*
X122397142Y-111247142D01*
X122325714Y-111318571D01*
X122254285Y-111247142D01*
X122325714Y-111175714D01*
X122325714Y-111318571D01*
X123682857Y-111318571D02*
X123682857Y-109818571D01*
X123682857Y-111247142D02*
X123540000Y-111318571D01*
X123254285Y-111318571D01*
X123111428Y-111247142D01*
X123040000Y-111175714D01*
X122968571Y-111032857D01*
X122968571Y-110604285D01*
X123040000Y-110461428D01*
X123111428Y-110390000D01*
X123254285Y-110318571D01*
X123540000Y-110318571D01*
X123682857Y-110390000D01*
X124397142Y-111318571D02*
X124397142Y-110318571D01*
X124397142Y-110604285D02*
X124468571Y-110461428D01*
X124540000Y-110390000D01*
X124682857Y-110318571D01*
X124825714Y-110318571D01*
X125897142Y-111247142D02*
X125754285Y-111318571D01*
X125468571Y-111318571D01*
X125325714Y-111247142D01*
X125254285Y-111104285D01*
X125254285Y-110532857D01*
X125325714Y-110390000D01*
X125468571Y-110318571D01*
X125754285Y-110318571D01*
X125897142Y-110390000D01*
X125968571Y-110532857D01*
X125968571Y-110675714D01*
X125254285Y-110818571D01*
X126611428Y-111318571D02*
X126611428Y-109818571D01*
X126754285Y-110747142D02*
X127182857Y-111318571D01*
X127182857Y-110318571D02*
X126611428Y-110890000D01*
X127825714Y-111318571D02*
X127825714Y-109818571D01*
X127968571Y-110747142D02*
X128397142Y-111318571D01*
X128397142Y-110318571D02*
X127825714Y-110890000D01*
X129682857Y-111318571D02*
X129682857Y-110532857D01*
X129611428Y-110390000D01*
X129468571Y-110318571D01*
X129182857Y-110318571D01*
X129040000Y-110390000D01*
X129682857Y-111247142D02*
X129540000Y-111318571D01*
X129182857Y-111318571D01*
X129040000Y-111247142D01*
X128968571Y-111104285D01*
X128968571Y-110961428D01*
X129040000Y-110818571D01*
X129182857Y-110747142D01*
X129540000Y-110747142D01*
X129682857Y-110675714D01*
X130397142Y-111318571D02*
X130397142Y-110318571D01*
X130397142Y-110604285D02*
X130468571Y-110461428D01*
X130540000Y-110390000D01*
X130682857Y-110318571D01*
X130825714Y-110318571D01*
X131325714Y-111175714D02*
X131397142Y-111247142D01*
X131325714Y-111318571D01*
X131254285Y-111247142D01*
X131325714Y-111175714D01*
X131325714Y-111318571D01*
X132682857Y-111247142D02*
X132540000Y-111318571D01*
X132254285Y-111318571D01*
X132111428Y-111247142D01*
X132040000Y-111175714D01*
X131968571Y-111032857D01*
X131968571Y-110604285D01*
X132040000Y-110461428D01*
X132111428Y-110390000D01*
X132254285Y-110318571D01*
X132540000Y-110318571D01*
X132682857Y-110390000D01*
X133540000Y-111318571D02*
X133397142Y-111247142D01*
X133325714Y-111175714D01*
X133254285Y-111032857D01*
X133254285Y-110604285D01*
X133325714Y-110461428D01*
X133397142Y-110390000D01*
X133540000Y-110318571D01*
X133754285Y-110318571D01*
X133897142Y-110390000D01*
X133968571Y-110461428D01*
X134040000Y-110604285D01*
X134040000Y-111032857D01*
X133968571Y-111175714D01*
X133897142Y-111247142D01*
X133754285Y-111318571D01*
X133540000Y-111318571D01*
X134682857Y-111318571D02*
X134682857Y-110318571D01*
X134682857Y-110461428D02*
X134754285Y-110390000D01*
X134897142Y-110318571D01*
X135111428Y-110318571D01*
X135254285Y-110390000D01*
X135325714Y-110532857D01*
X135325714Y-111318571D01*
X135325714Y-110532857D02*
X135397142Y-110390000D01*
X135540000Y-110318571D01*
X135754285Y-110318571D01*
X135897142Y-110390000D01*
X135968571Y-110532857D01*
X135968571Y-111318571D01*
D10*
X143850000Y-102000000D02*
X138150000Y-102000000D01*
X143850000Y-111000000D02*
X138150000Y-111000000D01*
X143850000Y-102000000D02*
X143850000Y-111000000D01*
X138150000Y-102000000D02*
X138150000Y-111000000D01*
X162782000Y-131144000D02*
X162782000Y-125444000D01*
X153782000Y-131144000D02*
X153782000Y-125444000D01*
X162782000Y-131144000D02*
X153782000Y-131144000D01*
X162782000Y-125444000D02*
X153782000Y-125444000D01*
D12*
X129320000Y-135710000D02*
G75*
G03X129320000Y-138610000I0J-1450000D01*
G01*
X133820000Y-135710000D02*
G75*
G02X133820000Y-138610000I0J-1450000D01*
G01*
X133820000Y-135710000D02*
X129320000Y-135710000D01*
X133820000Y-138610000D02*
X129320000Y-138610000D01*
X97268000Y-124500000D02*
X97268000Y-124280000D01*
X97268000Y-124500000D02*
G75*
G03X97268000Y-129700000I1100000J-2600000D01*
G01*
X100928000Y-130080000D02*
X100928000Y-127000000D01*
X97268000Y-130160000D02*
X97268000Y-129700000D01*
X97268000Y-130160000D02*
X98468000Y-130160000D01*
X150622000Y-123444000D02*
X150622000Y-109982000D01*
X154432000Y-123444000D02*
X150622000Y-123444000D01*
X154432000Y-117348000D02*
X154432000Y-123444000D01*
X160020000Y-117348000D02*
X154432000Y-117348000D01*
X160020000Y-123444000D02*
X160020000Y-117348000D01*
X163830000Y-123444000D02*
X160020000Y-123444000D01*
X163830000Y-109982000D02*
X163830000Y-123444000D01*
X150622000Y-109982000D02*
X163830000Y-109982000D01*
X155376000Y-111538000D02*
X155376000Y-113048000D01*
X152106000Y-111538000D02*
X152106000Y-116179000D01*
X152106000Y-116179000D02*
X162346000Y-116179000D01*
X162346000Y-111538000D02*
X162346000Y-116179000D01*
X152106000Y-113048000D02*
X162346000Y-113048000D01*
X159077000Y-111538000D02*
X159077000Y-113048000D01*
X152106000Y-111538000D02*
X162346000Y-111538000D01*
X158386000Y-138976000D02*
X158986000Y-138976000D01*
X158386000Y-137376000D02*
X158386000Y-138976000D01*
X158986000Y-137376000D02*
X158386000Y-137376000D01*
X158386000Y-136436000D02*
X158986000Y-136436000D01*
X158386000Y-134836000D02*
X158386000Y-136436000D01*
X158986000Y-134836000D02*
X158386000Y-134836000D01*
X152966000Y-137926000D02*
X153966000Y-137926000D01*
X152966000Y-135886000D02*
X153966000Y-135886000D01*
X154496000Y-137926000D02*
X153966000Y-138176000D01*
X154496000Y-135886000D02*
X154496000Y-137926000D01*
X153966000Y-135636000D02*
X154496000Y-135886000D01*
X153966000Y-138176000D02*
X152966000Y-138176000D01*
X153966000Y-135636000D02*
X153966000Y-138176000D01*
X152966000Y-135636000D02*
X153966000Y-135636000D01*
X157956000Y-133966000D02*
X153956000Y-133966000D01*
X158986000Y-139556000D02*
X158986000Y-134256000D01*
X152966000Y-139556000D02*
X158986000Y-139556000D01*
X152966000Y-134256000D02*
X152966000Y-139556000D01*
X158986000Y-134256000D02*
X152966000Y-134256000D01*
X166454112Y-105051421D02*
X166609676Y-105206985D01*
X166454112Y-105051422D02*
G75*
G03X162777157Y-101374466I-2616295J1060661D01*
G01*
X159920446Y-103693776D02*
X162098335Y-105871665D01*
X162451888Y-101049197D02*
X162777157Y-101374466D01*
X162451888Y-101049197D02*
X161603360Y-101897725D01*
X162918579Y-152484112D02*
X162763015Y-152639676D01*
X162918578Y-152484112D02*
G75*
G03X166595534Y-148807157I1060661J2616295D01*
G01*
X164276224Y-145950446D02*
X162098335Y-148128335D01*
X166920803Y-148481888D02*
X166595534Y-148807157D01*
X166920803Y-148481888D02*
X166072275Y-147633360D01*
X142314775Y-144481380D02*
G75*
G02X142423272Y-142710000I-1344775J971380D01*
G01*
X153410000Y-105280000D02*
X153410000Y-105436000D01*
X153410000Y-102964000D02*
X153410000Y-103120000D01*
X156011130Y-105279837D02*
G75*
G02X153929039Y-105280000I-1041130J1079837D01*
G01*
X156011130Y-103120163D02*
G75*
G03X153929039Y-103120000I-1041130J-1079837D01*
G01*
X156642335Y-105278608D02*
G75*
G02X153410000Y-105435516I-1672335J1078608D01*
G01*
X156642335Y-103121392D02*
G75*
G03X153410000Y-102964484I-1672335J-1078608D01*
G01*
X153380000Y-150940000D02*
X153380000Y-151096000D01*
X153380000Y-148624000D02*
X153380000Y-148780000D01*
X155981130Y-150939837D02*
G75*
G02X153899039Y-150940000I-1041130J1079837D01*
G01*
X155981130Y-148780163D02*
G75*
G03X153899039Y-148780000I-1041130J-1079837D01*
G01*
X156612335Y-150938608D02*
G75*
G02X153380000Y-151095516I-1672335J1078608D01*
G01*
X156612335Y-148781392D02*
G75*
G03X153380000Y-148624484I-1672335J-1078608D01*
G01*
X149390000Y-147430000D02*
X149390000Y-146830000D01*
X147790000Y-147430000D02*
X149390000Y-147430000D01*
X147790000Y-146830000D02*
X147790000Y-147430000D01*
X146850000Y-147430000D02*
X146850000Y-146830000D01*
X145250000Y-147430000D02*
X146850000Y-147430000D01*
X145250000Y-146830000D02*
X145250000Y-147430000D01*
X144310000Y-147430000D02*
X144310000Y-146830000D01*
X142710000Y-147430000D02*
X144310000Y-147430000D01*
X142710000Y-146830000D02*
X142710000Y-147430000D01*
X141770000Y-147430000D02*
X141770000Y-146830000D01*
X140170000Y-147430000D02*
X141770000Y-147430000D01*
X140170000Y-146830000D02*
X140170000Y-147430000D01*
X148340000Y-152850000D02*
X148340000Y-151850000D01*
X141220000Y-152850000D02*
X141220000Y-151850000D01*
X148340000Y-151320000D02*
X148590000Y-151850000D01*
X141220000Y-151320000D02*
X148340000Y-151320000D01*
X140970000Y-151850000D02*
X141220000Y-151320000D01*
X148590000Y-151850000D02*
X148590000Y-152850000D01*
X140970000Y-151850000D02*
X148590000Y-151850000D01*
X140970000Y-152850000D02*
X140970000Y-151850000D01*
X139300000Y-147860000D02*
X139300000Y-151860000D01*
X149970000Y-146830000D02*
X139590000Y-146830000D01*
X149970000Y-152850000D02*
X149970000Y-146830000D01*
X139590000Y-152850000D02*
X149970000Y-152850000D01*
X139590000Y-146830000D02*
X139590000Y-152850000D01*
X166006000Y-138976000D02*
X166606000Y-138976000D01*
X166006000Y-137376000D02*
X166006000Y-138976000D01*
X166606000Y-137376000D02*
X166006000Y-137376000D01*
X166006000Y-136436000D02*
X166606000Y-136436000D01*
X166006000Y-134836000D02*
X166006000Y-136436000D01*
X166606000Y-134836000D02*
X166006000Y-134836000D01*
X160586000Y-137926000D02*
X161586000Y-137926000D01*
X160586000Y-135886000D02*
X161586000Y-135886000D01*
X162116000Y-137926000D02*
X161586000Y-138176000D01*
X162116000Y-135886000D02*
X162116000Y-137926000D01*
X161586000Y-135636000D02*
X162116000Y-135886000D01*
X161586000Y-138176000D02*
X160586000Y-138176000D01*
X161586000Y-135636000D02*
X161586000Y-138176000D01*
X160586000Y-135636000D02*
X161586000Y-135636000D01*
X165576000Y-133966000D02*
X161576000Y-133966000D01*
X166606000Y-139556000D02*
X166606000Y-134256000D01*
X160586000Y-139556000D02*
X166606000Y-139556000D01*
X160586000Y-134256000D02*
X160586000Y-139556000D01*
X166606000Y-134256000D02*
X160586000Y-134256000D01*
X113500000Y-152290000D02*
X113500000Y-152890000D01*
X115100000Y-152290000D02*
X113500000Y-152290000D01*
X115100000Y-152890000D02*
X115100000Y-152290000D01*
X116040000Y-152290000D02*
X116040000Y-152890000D01*
X117640000Y-152290000D02*
X116040000Y-152290000D01*
X117640000Y-152890000D02*
X117640000Y-152290000D01*
X118580000Y-152290000D02*
X118580000Y-152890000D01*
X120180000Y-152290000D02*
X118580000Y-152290000D01*
X120180000Y-152890000D02*
X120180000Y-152290000D01*
X121120000Y-152290000D02*
X121120000Y-152890000D01*
X122720000Y-152290000D02*
X121120000Y-152290000D01*
X122720000Y-152890000D02*
X122720000Y-152290000D01*
X114550000Y-146870000D02*
X114550000Y-147870000D01*
X121670000Y-146870000D02*
X121670000Y-147870000D01*
X114550000Y-148400000D02*
X114300000Y-147870000D01*
X121670000Y-148400000D02*
X114550000Y-148400000D01*
X121920000Y-147870000D02*
X121670000Y-148400000D01*
X114300000Y-147870000D02*
X114300000Y-146870000D01*
X121920000Y-147870000D02*
X114300000Y-147870000D01*
X121920000Y-146870000D02*
X121920000Y-147870000D01*
X123590000Y-151860000D02*
X123590000Y-147860000D01*
X112920000Y-152890000D02*
X123300000Y-152890000D01*
X112920000Y-146870000D02*
X112920000Y-152890000D01*
X123300000Y-146870000D02*
X112920000Y-146870000D01*
X123300000Y-152890000D02*
X123300000Y-146870000D01*
X116840000Y-140165000D02*
X116840000Y-141575000D01*
X119210000Y-137795000D02*
G75*
G03X119210000Y-137795000I-2370000J0D01*
G01*
X112455000Y-142985000D02*
X112455000Y-141335000D01*
X102175000Y-142985000D02*
X112455000Y-142985000D01*
X102175000Y-137685000D02*
X102175000Y-142985000D01*
X112455000Y-137685000D02*
X102175000Y-137685000D01*
X112455000Y-139335000D02*
X112455000Y-137685000D01*
X112455000Y-141335000D02*
G75*
G02X112455000Y-139335000I0J1000000D01*
G01*
X87765888Y-148948579D02*
X87610324Y-148793015D01*
X87765888Y-148948578D02*
G75*
G03X91442843Y-152625534I2616295J-1060661D01*
G01*
X94299554Y-150306224D02*
X92121665Y-148128335D01*
X91768112Y-152950803D02*
X91442843Y-152625534D01*
X91768112Y-152950803D02*
X92616640Y-152102275D01*
X90746421Y-101515888D02*
X90901985Y-101360324D01*
X90746422Y-101515888D02*
G75*
G03X87069466Y-105192843I-1060661J-2616295D01*
G01*
X89388776Y-108049554D02*
X91566665Y-105871665D01*
X86744197Y-105518112D02*
X87069466Y-105192843D01*
X86744197Y-105518112D02*
X87592725Y-106366640D01*
X104810000Y-125620000D02*
X104810000Y-127270000D01*
X140490000Y-125620000D02*
X104810000Y-125620000D01*
X140490000Y-130920000D02*
X140490000Y-125620000D01*
X104810000Y-130920000D02*
X140490000Y-130920000D01*
X104810000Y-129270000D02*
X104810000Y-130920000D01*
X104810000Y-127270000D02*
G75*
G02X104810000Y-129270000I0J-1000000D01*
G01*
X112820620Y-119581775D02*
G75*
G02X114592000Y-119690272I971380J1344775D01*
G01*
X144864000Y-120142000D02*
X146074000Y-120142000D01*
X144864000Y-120142000D02*
G75*
G03X144864000Y-120142000I-2370000J0D01*
G01*
D15*
X144030400Y-132595800D02*
G75*
G03X144030400Y-132595800I-254000J0D01*
G01*
X143069655Y-125145800D02*
X142449400Y-125145800D01*
X146270055Y-125145800D02*
X144483146Y-125145800D01*
X148470055Y-125145800D02*
X147683546Y-125145800D01*
X150670053Y-125145800D02*
X149883546Y-125145800D01*
X152083545Y-131394200D02*
X152711000Y-131394200D01*
X149883546Y-131394200D02*
X150670053Y-131394200D01*
X147683546Y-131394200D02*
X148470055Y-131394200D01*
X144483146Y-131394200D02*
X146270055Y-131394200D01*
X142449400Y-131394200D02*
X143069655Y-131394200D01*
X142449400Y-125145800D02*
X142449400Y-131394200D01*
X152711000Y-125145800D02*
X152083545Y-125145800D01*
X152711000Y-131394200D02*
X152711000Y-125145800D01*
D12*
X104340000Y-152290000D02*
X104340000Y-152890000D01*
X105940000Y-152290000D02*
X104340000Y-152290000D01*
X105940000Y-152890000D02*
X105940000Y-152290000D01*
X106880000Y-152290000D02*
X106880000Y-152890000D01*
X108480000Y-152290000D02*
X106880000Y-152290000D01*
X108480000Y-152890000D02*
X108480000Y-152290000D01*
X105390000Y-146870000D02*
X105390000Y-147870000D01*
X107430000Y-146870000D02*
X107430000Y-147870000D01*
X105390000Y-148400000D02*
X105140000Y-147870000D01*
X107430000Y-148400000D02*
X105390000Y-148400000D01*
X107680000Y-147870000D02*
X107430000Y-148400000D01*
X105140000Y-147870000D02*
X105140000Y-146870000D01*
X107680000Y-147870000D02*
X105140000Y-147870000D01*
X107680000Y-146870000D02*
X107680000Y-147870000D01*
X109350000Y-151860000D02*
X109350000Y-147860000D01*
X103760000Y-152890000D02*
X109060000Y-152890000D01*
X103760000Y-146870000D02*
X103760000Y-152890000D01*
X109060000Y-146870000D02*
X103760000Y-146870000D01*
X109060000Y-152890000D02*
X109060000Y-146870000D01*
X118830000Y-101710000D02*
X118830000Y-101110000D01*
X117230000Y-101710000D02*
X118830000Y-101710000D01*
X117230000Y-101110000D02*
X117230000Y-101710000D01*
X116290000Y-101710000D02*
X116290000Y-101110000D01*
X114690000Y-101710000D02*
X116290000Y-101710000D01*
X114690000Y-101110000D02*
X114690000Y-101710000D01*
X117780000Y-107130000D02*
X117780000Y-106130000D01*
X115740000Y-107130000D02*
X115740000Y-106130000D01*
X117780000Y-105600000D02*
X118030000Y-106130000D01*
X115740000Y-105600000D02*
X117780000Y-105600000D01*
X115490000Y-106130000D02*
X115740000Y-105600000D01*
X118030000Y-106130000D02*
X118030000Y-107130000D01*
X115490000Y-106130000D02*
X118030000Y-106130000D01*
X115490000Y-107130000D02*
X115490000Y-106130000D01*
X113820000Y-102140000D02*
X113820000Y-106140000D01*
X119410000Y-101110000D02*
X114110000Y-101110000D01*
X119410000Y-107130000D02*
X119410000Y-101110000D01*
X114110000Y-107130000D02*
X119410000Y-107130000D01*
X114110000Y-101110000D02*
X114110000Y-107130000D01*
X132280000Y-152290000D02*
X132280000Y-152890000D01*
X133880000Y-152290000D02*
X132280000Y-152290000D01*
X133880000Y-152890000D02*
X133880000Y-152290000D01*
X134820000Y-152290000D02*
X134820000Y-152890000D01*
X136420000Y-152290000D02*
X134820000Y-152290000D01*
X136420000Y-152890000D02*
X136420000Y-152290000D01*
X133330000Y-146870000D02*
X133330000Y-147870000D01*
X135370000Y-146870000D02*
X135370000Y-147870000D01*
X133330000Y-148400000D02*
X133080000Y-147870000D01*
X135370000Y-148400000D02*
X133330000Y-148400000D01*
X135620000Y-147870000D02*
X135370000Y-148400000D01*
X133080000Y-147870000D02*
X133080000Y-146870000D01*
X135620000Y-147870000D02*
X133080000Y-147870000D01*
X135620000Y-146870000D02*
X135620000Y-147870000D01*
X137290000Y-151860000D02*
X137290000Y-147860000D01*
X131700000Y-152890000D02*
X137000000Y-152890000D01*
X131700000Y-146870000D02*
X131700000Y-152890000D01*
X137000000Y-146870000D02*
X131700000Y-146870000D01*
X137000000Y-152890000D02*
X137000000Y-146870000D01*
X88930000Y-124930000D02*
X88330000Y-124930000D01*
X88930000Y-126530000D02*
X88930000Y-124930000D01*
X88330000Y-126530000D02*
X88930000Y-126530000D01*
X88930000Y-127470000D02*
X88330000Y-127470000D01*
X88930000Y-129070000D02*
X88930000Y-127470000D01*
X88330000Y-129070000D02*
X88930000Y-129070000D01*
X94350000Y-125980000D02*
X93350000Y-125980000D01*
X94350000Y-128020000D02*
X93350000Y-128020000D01*
X92820000Y-125980000D02*
X93350000Y-125730000D01*
X92820000Y-128020000D02*
X92820000Y-125980000D01*
X93350000Y-128270000D02*
X92820000Y-128020000D01*
X93350000Y-125730000D02*
X94350000Y-125730000D01*
X93350000Y-128270000D02*
X93350000Y-125730000D01*
X94350000Y-128270000D02*
X93350000Y-128270000D01*
X89360000Y-129940000D02*
X93360000Y-129940000D01*
X88330000Y-124350000D02*
X88330000Y-129650000D01*
X94350000Y-124350000D02*
X88330000Y-124350000D01*
X94350000Y-129650000D02*
X94350000Y-124350000D01*
X88330000Y-129650000D02*
X94350000Y-129650000D01*
X123620000Y-116680000D02*
X123620000Y-115570000D01*
X124380000Y-116680000D02*
X123620000Y-116680000D01*
X125140000Y-115006529D02*
X125140000Y-114460000D01*
X125140000Y-116680000D02*
X125140000Y-116133471D01*
X125140000Y-114460000D02*
X136505000Y-114460000D01*
X125140000Y-116680000D02*
X136505000Y-116680000D01*
X136505000Y-115262470D02*
X136505000Y-114460000D01*
X136505000Y-116680000D02*
X136505000Y-115877530D01*
X146226000Y-140536000D02*
X147476000Y-140536000D01*
X146226000Y-139286000D02*
X146226000Y-140536000D01*
X150636000Y-137176000D02*
X150136000Y-137176000D01*
X150136000Y-137076000D02*
X150636000Y-137076000D01*
X150136000Y-137276000D02*
X150136000Y-137076000D01*
X150636000Y-137276000D02*
X150136000Y-137276000D01*
X149136000Y-134116000D02*
X149136000Y-134726000D01*
X147836000Y-134116000D02*
X147836000Y-134726000D01*
X149136000Y-140236000D02*
X149136000Y-139626000D01*
X147836000Y-140236000D02*
X147836000Y-139626000D01*
X147136000Y-136676000D02*
X146526000Y-136676000D01*
X147136000Y-134726000D02*
X147136000Y-136676000D01*
X150636000Y-134726000D02*
X147136000Y-134726000D01*
X150636000Y-139626000D02*
X150636000Y-134726000D01*
X147136000Y-139626000D02*
X150636000Y-139626000D01*
X147136000Y-137676000D02*
X147136000Y-139626000D01*
X146526000Y-137676000D02*
X147136000Y-137676000D01*
X146426000Y-138476000D02*
X146426000Y-138776000D01*
X146326000Y-138776000D02*
X146526000Y-138776000D01*
X146326000Y-138476000D02*
X146326000Y-138776000D01*
X146526000Y-138476000D02*
X146326000Y-138476000D01*
X146526000Y-134116000D02*
X146526000Y-140236000D01*
X151246000Y-134116000D02*
X146526000Y-134116000D01*
X151246000Y-140236000D02*
X151246000Y-134116000D01*
X146526000Y-140236000D02*
X151246000Y-140236000D01*
X109940000Y-101710000D02*
X109940000Y-101110000D01*
X108340000Y-101710000D02*
X109940000Y-101710000D01*
X108340000Y-101110000D02*
X108340000Y-101710000D01*
X107400000Y-101710000D02*
X107400000Y-101110000D01*
X105800000Y-101710000D02*
X107400000Y-101710000D01*
X105800000Y-101110000D02*
X105800000Y-101710000D01*
X108890000Y-107130000D02*
X108890000Y-106130000D01*
X106850000Y-107130000D02*
X106850000Y-106130000D01*
X108890000Y-105600000D02*
X109140000Y-106130000D01*
X106850000Y-105600000D02*
X108890000Y-105600000D01*
X106600000Y-106130000D02*
X106850000Y-105600000D01*
X109140000Y-106130000D02*
X109140000Y-107130000D01*
X106600000Y-106130000D02*
X109140000Y-106130000D01*
X106600000Y-107130000D02*
X106600000Y-106130000D01*
X104930000Y-102140000D02*
X104930000Y-106140000D01*
X110520000Y-101110000D02*
X105220000Y-101110000D01*
X110520000Y-107130000D02*
X110520000Y-101110000D01*
X105220000Y-107130000D02*
X110520000Y-107130000D01*
X105220000Y-101110000D02*
X105220000Y-107130000D01*
X97420000Y-105220000D02*
X97420000Y-105376000D01*
X97420000Y-102904000D02*
X97420000Y-103060000D01*
X100021130Y-105219837D02*
G75*
G02X97939039Y-105220000I-1041130J1079837D01*
G01*
X100021130Y-103060163D02*
G75*
G03X97939039Y-103060000I-1041130J-1079837D01*
G01*
X100652335Y-105218608D02*
G75*
G02X97420000Y-105375516I-1672335J1078608D01*
G01*
X100652335Y-103061392D02*
G75*
G03X97420000Y-102904484I-1672335J-1078608D01*
G01*
X97500000Y-150940000D02*
X97500000Y-151096000D01*
X97500000Y-148624000D02*
X97500000Y-148780000D01*
X100101130Y-150939837D02*
G75*
G02X98019039Y-150940000I-1041130J1079837D01*
G01*
X100101130Y-148780163D02*
G75*
G03X98019039Y-148780000I-1041130J-1079837D01*
G01*
X100732335Y-150938608D02*
G75*
G02X97500000Y-151095516I-1672335J1078608D01*
G01*
X100732335Y-148781392D02*
G75*
G03X97500000Y-148624484I-1672335J-1078608D01*
G01*
X157952000Y-143828000D02*
X157952000Y-143984000D01*
X157952000Y-141512000D02*
X157952000Y-141668000D01*
X160553130Y-143827837D02*
G75*
G02X158471039Y-143828000I-1041130J1079837D01*
G01*
X160553130Y-141668163D02*
G75*
G03X158471039Y-141668000I-1041130J-1079837D01*
G01*
X161184335Y-143826608D02*
G75*
G02X157952000Y-143983516I-1672335J1078608D01*
G01*
X161184335Y-141669392D02*
G75*
G03X157952000Y-141512484I-1672335J-1078608D01*
G01*
X128560000Y-103060000D02*
X128560000Y-102904000D01*
X128560000Y-105376000D02*
X128560000Y-105220000D01*
X125958870Y-103060163D02*
G75*
G02X128040961Y-103060000I1041130J-1079837D01*
G01*
X125958870Y-105219837D02*
G75*
G03X128040961Y-105220000I1041130J1079837D01*
G01*
X125327665Y-103061392D02*
G75*
G02X128560000Y-102904484I1672335J-1078608D01*
G01*
X125327665Y-105218608D02*
G75*
G03X128560000Y-105375516I1672335J1078608D01*
G01*
X125440000Y-150940000D02*
X125440000Y-151096000D01*
X125440000Y-148624000D02*
X125440000Y-148780000D01*
X128041130Y-150939837D02*
G75*
G02X125959039Y-150940000I-1041130J1079837D01*
G01*
X128041130Y-148780163D02*
G75*
G03X125959039Y-148780000I-1041130J-1079837D01*
G01*
X128672335Y-150938608D02*
G75*
G02X125440000Y-151095516I-1672335J1078608D01*
G01*
X128672335Y-148781392D02*
G75*
G03X125440000Y-148624484I-1672335J-1078608D01*
G01*
D10*
X136914571Y-104427523D02*
X136914571Y-104760857D01*
X137438380Y-104760857D02*
X136438380Y-104760857D01*
X136438380Y-104284666D01*
X137438380Y-103379904D02*
X137438380Y-103951333D01*
X137438380Y-103665619D02*
X136438380Y-103665619D01*
X136581238Y-103760857D01*
X136676476Y-103856095D01*
X136724095Y-103951333D01*
X136533619Y-102998952D02*
X136486000Y-102951333D01*
X136438380Y-102856095D01*
X136438380Y-102618000D01*
X136486000Y-102522761D01*
X136533619Y-102475142D01*
X136628857Y-102427523D01*
X136724095Y-102427523D01*
X136866952Y-102475142D01*
X137438380Y-103046571D01*
X137438380Y-102427523D01*
X157700476Y-124288571D02*
X157367142Y-124288571D01*
X157367142Y-124812380D02*
X157367142Y-123812380D01*
X157843333Y-123812380D01*
X158748095Y-124812380D02*
X158176666Y-124812380D01*
X158462380Y-124812380D02*
X158462380Y-123812380D01*
X158367142Y-123955238D01*
X158271904Y-124050476D01*
X158176666Y-124098095D01*
X159700476Y-124812380D02*
X159129047Y-124812380D01*
X159414761Y-124812380D02*
X159414761Y-123812380D01*
X159319523Y-123955238D01*
X159224285Y-124050476D01*
X159129047Y-124098095D01*
X130617619Y-139586190D02*
X130617619Y-140062380D01*
X130284285Y-139062380D02*
X130617619Y-139586190D01*
X130950952Y-139062380D01*
X131236666Y-139157619D02*
X131284285Y-139110000D01*
X131379523Y-139062380D01*
X131617619Y-139062380D01*
X131712857Y-139110000D01*
X131760476Y-139157619D01*
X131808095Y-139252857D01*
X131808095Y-139348095D01*
X131760476Y-139490952D01*
X131189047Y-140062380D01*
X131808095Y-140062380D01*
X132427142Y-139062380D02*
X132522380Y-139062380D01*
X132617619Y-139110000D01*
X132665238Y-139157619D01*
X132712857Y-139252857D01*
X132760476Y-139443333D01*
X132760476Y-139681428D01*
X132712857Y-139871904D01*
X132665238Y-139967142D01*
X132617619Y-140014761D01*
X132522380Y-140062380D01*
X132427142Y-140062380D01*
X132331904Y-140014761D01*
X132284285Y-139967142D01*
X132236666Y-139871904D01*
X132189047Y-139681428D01*
X132189047Y-139443333D01*
X132236666Y-139252857D01*
X132284285Y-139157619D01*
X132331904Y-139110000D01*
X132427142Y-139062380D01*
X101320380Y-124521904D02*
X102129904Y-124521904D01*
X102225142Y-124474285D01*
X102272761Y-124426666D01*
X102320380Y-124331428D01*
X102320380Y-124140952D01*
X102272761Y-124045714D01*
X102225142Y-123998095D01*
X102129904Y-123950476D01*
X101320380Y-123950476D01*
X102320380Y-122950476D02*
X102320380Y-123521904D01*
X102320380Y-123236190D02*
X101320380Y-123236190D01*
X101463238Y-123331428D01*
X101558476Y-123426666D01*
X101606095Y-123521904D01*
X155901904Y-117232380D02*
X155901904Y-118041904D01*
X155949523Y-118137142D01*
X155997142Y-118184761D01*
X156092380Y-118232380D01*
X156282857Y-118232380D01*
X156378095Y-118184761D01*
X156425714Y-118137142D01*
X156473333Y-118041904D01*
X156473333Y-117232380D01*
X157473333Y-118232380D02*
X156901904Y-118232380D01*
X157187619Y-118232380D02*
X157187619Y-117232380D01*
X157092380Y-117375238D01*
X156997142Y-117470476D01*
X156901904Y-117518095D01*
X158092380Y-117232380D02*
X158187619Y-117232380D01*
X158282857Y-117280000D01*
X158330476Y-117327619D01*
X158378095Y-117422857D01*
X158425714Y-117613333D01*
X158425714Y-117851428D01*
X158378095Y-118041904D01*
X158330476Y-118137142D01*
X158282857Y-118184761D01*
X158187619Y-118232380D01*
X158092380Y-118232380D01*
X157997142Y-118184761D01*
X157949523Y-118137142D01*
X157901904Y-118041904D01*
X157854285Y-117851428D01*
X157854285Y-117613333D01*
X157901904Y-117422857D01*
X157949523Y-117327619D01*
X157997142Y-117280000D01*
X158092380Y-117232380D01*
X152098476Y-132548380D02*
X152098476Y-133262666D01*
X152050857Y-133405523D01*
X151955619Y-133500761D01*
X151812761Y-133548380D01*
X151717523Y-133548380D01*
X153098476Y-133548380D02*
X152527047Y-133548380D01*
X152812761Y-133548380D02*
X152812761Y-132548380D01*
X152717523Y-132691238D01*
X152622285Y-132786476D01*
X152527047Y-132834095D01*
X153431809Y-132548380D02*
X154050857Y-132548380D01*
X153717523Y-132929333D01*
X153860380Y-132929333D01*
X153955619Y-132976952D01*
X154003238Y-133024571D01*
X154050857Y-133119809D01*
X154050857Y-133357904D01*
X154003238Y-133453142D01*
X153955619Y-133500761D01*
X153860380Y-133548380D01*
X153574666Y-133548380D01*
X153479428Y-133500761D01*
X153431809Y-133453142D01*
X166254759Y-100345309D02*
X165682339Y-100917729D01*
X165648668Y-101018744D01*
X165648668Y-101086087D01*
X165682339Y-101187103D01*
X165817026Y-101321790D01*
X165918042Y-101355461D01*
X165985385Y-101355461D01*
X166086400Y-101321790D01*
X166658820Y-100749370D01*
X166928194Y-101018744D02*
X167365927Y-101456477D01*
X166860851Y-101490148D01*
X166961866Y-101591164D01*
X166995538Y-101692179D01*
X166995538Y-101759522D01*
X166961866Y-101860538D01*
X166793507Y-102028896D01*
X166692492Y-102062568D01*
X166625148Y-102062568D01*
X166524133Y-102028896D01*
X166322103Y-101826866D01*
X166288431Y-101725851D01*
X166288431Y-101658507D01*
X167601629Y-101692179D02*
X168039362Y-102129912D01*
X167534286Y-102163583D01*
X167635301Y-102264599D01*
X167668973Y-102365614D01*
X167668973Y-102432957D01*
X167635301Y-102533973D01*
X167466942Y-102702331D01*
X167365927Y-102736003D01*
X167298583Y-102736003D01*
X167197568Y-102702331D01*
X166995538Y-102500301D01*
X166961866Y-102399286D01*
X166961866Y-102331942D01*
X165480309Y-153388240D02*
X166052729Y-153960660D01*
X166153744Y-153994331D01*
X166221087Y-153994331D01*
X166322103Y-153960660D01*
X166456790Y-153825973D01*
X166490461Y-153724957D01*
X166490461Y-153657614D01*
X166456790Y-153556599D01*
X165884370Y-152984179D01*
X166153744Y-152714805D02*
X166591477Y-152277072D01*
X166625148Y-152782148D01*
X166726164Y-152681133D01*
X166827179Y-152647461D01*
X166894522Y-152647461D01*
X166995538Y-152681133D01*
X167163896Y-152849492D01*
X167197568Y-152950507D01*
X167197568Y-153017851D01*
X167163896Y-153118866D01*
X166961866Y-153320896D01*
X166860851Y-153354568D01*
X166793507Y-153354568D01*
X166928194Y-152075042D02*
X166928194Y-152007698D01*
X166961866Y-151906683D01*
X167130225Y-151738324D01*
X167231240Y-151704652D01*
X167298583Y-151704652D01*
X167399599Y-151738324D01*
X167466942Y-151805668D01*
X167534286Y-151940355D01*
X167534286Y-152748477D01*
X167972018Y-152310744D01*
X141597142Y-141242380D02*
X141263809Y-140766190D01*
X141025714Y-141242380D02*
X141025714Y-140242380D01*
X141406666Y-140242380D01*
X141501904Y-140290000D01*
X141549523Y-140337619D01*
X141597142Y-140432857D01*
X141597142Y-140575714D01*
X141549523Y-140670952D01*
X141501904Y-140718571D01*
X141406666Y-140766190D01*
X141025714Y-140766190D01*
X142454285Y-140575714D02*
X142454285Y-141242380D01*
X142216190Y-140194761D02*
X141978095Y-140909047D01*
X142597142Y-140909047D01*
X142930476Y-140337619D02*
X142978095Y-140290000D01*
X143073333Y-140242380D01*
X143311428Y-140242380D01*
X143406666Y-140290000D01*
X143454285Y-140337619D01*
X143501904Y-140432857D01*
X143501904Y-140528095D01*
X143454285Y-140670952D01*
X142882857Y-141242380D01*
X143501904Y-141242380D01*
X153755714Y-101692380D02*
X153755714Y-100692380D01*
X153993809Y-100692380D01*
X154136666Y-100740000D01*
X154231904Y-100835238D01*
X154279523Y-100930476D01*
X154327142Y-101120952D01*
X154327142Y-101263809D01*
X154279523Y-101454285D01*
X154231904Y-101549523D01*
X154136666Y-101644761D01*
X153993809Y-101692380D01*
X153755714Y-101692380D01*
X154660476Y-100692380D02*
X155327142Y-100692380D01*
X154898571Y-101692380D01*
X156136666Y-101025714D02*
X156136666Y-101692380D01*
X155898571Y-100644761D02*
X155660476Y-101359047D01*
X156279523Y-101359047D01*
X156773714Y-153106380D02*
X156773714Y-152106380D01*
X157011809Y-152106380D01*
X157154666Y-152154000D01*
X157249904Y-152249238D01*
X157297523Y-152344476D01*
X157345142Y-152534952D01*
X157345142Y-152677809D01*
X157297523Y-152868285D01*
X157249904Y-152963523D01*
X157154666Y-153058761D01*
X157011809Y-153106380D01*
X156773714Y-153106380D01*
X157678476Y-152106380D02*
X158345142Y-152106380D01*
X157916571Y-153106380D01*
X158630857Y-152106380D02*
X159249904Y-152106380D01*
X158916571Y-152487333D01*
X159059428Y-152487333D01*
X159154666Y-152534952D01*
X159202285Y-152582571D01*
X159249904Y-152677809D01*
X159249904Y-152915904D01*
X159202285Y-153011142D01*
X159154666Y-153058761D01*
X159059428Y-153106380D01*
X158773714Y-153106380D01*
X158678476Y-153058761D01*
X158630857Y-153011142D01*
X139906476Y-153513380D02*
X139906476Y-154227666D01*
X139858857Y-154370523D01*
X139763619Y-154465761D01*
X139620761Y-154513380D01*
X139525523Y-154513380D01*
X140811238Y-153846714D02*
X140811238Y-154513380D01*
X140573142Y-153465761D02*
X140335047Y-154180047D01*
X140954095Y-154180047D01*
X141525523Y-153513380D02*
X141620761Y-153513380D01*
X141716000Y-153561000D01*
X141763619Y-153608619D01*
X141811238Y-153703857D01*
X141858857Y-153894333D01*
X141858857Y-154132428D01*
X141811238Y-154322904D01*
X141763619Y-154418142D01*
X141716000Y-154465761D01*
X141620761Y-154513380D01*
X141525523Y-154513380D01*
X141430285Y-154465761D01*
X141382666Y-154418142D01*
X141335047Y-154322904D01*
X141287428Y-154132428D01*
X141287428Y-153894333D01*
X141335047Y-153703857D01*
X141382666Y-153608619D01*
X141430285Y-153561000D01*
X141525523Y-153513380D01*
X164036476Y-140168380D02*
X164036476Y-140882666D01*
X163988857Y-141025523D01*
X163893619Y-141120761D01*
X163750761Y-141168380D01*
X163655523Y-141168380D01*
X165036476Y-141168380D02*
X164465047Y-141168380D01*
X164750761Y-141168380D02*
X164750761Y-140168380D01*
X164655523Y-140311238D01*
X164560285Y-140406476D01*
X164465047Y-140454095D01*
X165655523Y-140168380D02*
X165750761Y-140168380D01*
X165846000Y-140216000D01*
X165893619Y-140263619D01*
X165941238Y-140358857D01*
X165988857Y-140549333D01*
X165988857Y-140787428D01*
X165941238Y-140977904D01*
X165893619Y-141073142D01*
X165846000Y-141120761D01*
X165750761Y-141168380D01*
X165655523Y-141168380D01*
X165560285Y-141120761D01*
X165512666Y-141073142D01*
X165465047Y-140977904D01*
X165417428Y-140787428D01*
X165417428Y-140549333D01*
X165465047Y-140358857D01*
X165512666Y-140263619D01*
X165560285Y-140216000D01*
X165655523Y-140168380D01*
X113712666Y-153570380D02*
X113712666Y-154284666D01*
X113665047Y-154427523D01*
X113569809Y-154522761D01*
X113426952Y-154570380D01*
X113331714Y-154570380D01*
X114141238Y-153665619D02*
X114188857Y-153618000D01*
X114284095Y-153570380D01*
X114522190Y-153570380D01*
X114617428Y-153618000D01*
X114665047Y-153665619D01*
X114712666Y-153760857D01*
X114712666Y-153856095D01*
X114665047Y-153998952D01*
X114093619Y-154570380D01*
X114712666Y-154570380D01*
X114657142Y-145452380D02*
X114180952Y-145452380D01*
X114180952Y-144452380D01*
X115038095Y-145452380D02*
X115228571Y-145452380D01*
X115323809Y-145404761D01*
X115371428Y-145357142D01*
X115466666Y-145214285D01*
X115514285Y-145023809D01*
X115514285Y-144642857D01*
X115466666Y-144547619D01*
X115419047Y-144500000D01*
X115323809Y-144452380D01*
X115133333Y-144452380D01*
X115038095Y-144500000D01*
X114990476Y-144547619D01*
X114942857Y-144642857D01*
X114942857Y-144880952D01*
X114990476Y-144976190D01*
X115038095Y-145023809D01*
X115133333Y-145071428D01*
X115323809Y-145071428D01*
X115419047Y-145023809D01*
X115466666Y-144976190D01*
X115514285Y-144880952D01*
X116466666Y-145452380D02*
X115895238Y-145452380D01*
X116180952Y-145452380D02*
X116180952Y-144452380D01*
X116085714Y-144595238D01*
X115990476Y-144690476D01*
X115895238Y-144738095D01*
X110775904Y-134008880D02*
X110775904Y-134818404D01*
X110823523Y-134913642D01*
X110871142Y-134961261D01*
X110966380Y-135008880D01*
X111156857Y-135008880D01*
X111252095Y-134961261D01*
X111299714Y-134913642D01*
X111347333Y-134818404D01*
X111347333Y-134008880D01*
X111871142Y-135008880D02*
X112061619Y-135008880D01*
X112156857Y-134961261D01*
X112204476Y-134913642D01*
X112299714Y-134770785D01*
X112347333Y-134580309D01*
X112347333Y-134199357D01*
X112299714Y-134104119D01*
X112252095Y-134056500D01*
X112156857Y-134008880D01*
X111966380Y-134008880D01*
X111871142Y-134056500D01*
X111823523Y-134104119D01*
X111775904Y-134199357D01*
X111775904Y-134437452D01*
X111823523Y-134532690D01*
X111871142Y-134580309D01*
X111966380Y-134627928D01*
X112156857Y-134627928D01*
X112252095Y-134580309D01*
X112299714Y-134532690D01*
X112347333Y-134437452D01*
X113299714Y-135008880D02*
X112728285Y-135008880D01*
X113014000Y-135008880D02*
X113014000Y-134008880D01*
X112918761Y-134151738D01*
X112823523Y-134246976D01*
X112728285Y-134294595D01*
X88211759Y-152780309D02*
X87639339Y-153352729D01*
X87605668Y-153453744D01*
X87605668Y-153521087D01*
X87639339Y-153622103D01*
X87774026Y-153756790D01*
X87875042Y-153790461D01*
X87942385Y-153790461D01*
X88043400Y-153756790D01*
X88615820Y-153184370D01*
X88885194Y-153453744D02*
X89322927Y-153891477D01*
X88817851Y-153925148D01*
X88918866Y-154026164D01*
X88952538Y-154127179D01*
X88952538Y-154194522D01*
X88918866Y-154295538D01*
X88750507Y-154463896D01*
X88649492Y-154497568D01*
X88582148Y-154497568D01*
X88481133Y-154463896D01*
X88279103Y-154261866D01*
X88245431Y-154160851D01*
X88245431Y-154093507D01*
X89289255Y-155272018D02*
X88885194Y-154867957D01*
X89087225Y-155069988D02*
X89794331Y-154362881D01*
X89625973Y-154396553D01*
X89491286Y-154396553D01*
X89390270Y-154362881D01*
X86882309Y-100699241D02*
X87454729Y-101271661D01*
X87555744Y-101305332D01*
X87623087Y-101305332D01*
X87724103Y-101271661D01*
X87858790Y-101136974D01*
X87892461Y-101035958D01*
X87892461Y-100968615D01*
X87858790Y-100867600D01*
X87286370Y-100295180D01*
X87555744Y-100025806D02*
X87993477Y-99588073D01*
X88027148Y-100093149D01*
X88128164Y-99992134D01*
X88229179Y-99958462D01*
X88296522Y-99958462D01*
X88397538Y-99992134D01*
X88565896Y-100160493D01*
X88599568Y-100261508D01*
X88599568Y-100328852D01*
X88565896Y-100429867D01*
X88363866Y-100631897D01*
X88262851Y-100665569D01*
X88195507Y-100665569D01*
X88431209Y-99150340D02*
X88498553Y-99082997D01*
X88599568Y-99049325D01*
X88666912Y-99049325D01*
X88767927Y-99082997D01*
X88936286Y-99184012D01*
X89104644Y-99352371D01*
X89205660Y-99520730D01*
X89239331Y-99621745D01*
X89239331Y-99689088D01*
X89205660Y-99790104D01*
X89138316Y-99857447D01*
X89037301Y-99891119D01*
X88969957Y-99891119D01*
X88868942Y-99857447D01*
X88700583Y-99756432D01*
X88532225Y-99588073D01*
X88431209Y-99419714D01*
X88397538Y-99318699D01*
X88397538Y-99251356D01*
X88431209Y-99150340D01*
X103262380Y-129508095D02*
X104071904Y-129508095D01*
X104167142Y-129460476D01*
X104214761Y-129412857D01*
X104262380Y-129317619D01*
X104262380Y-129127142D01*
X104214761Y-129031904D01*
X104167142Y-128984285D01*
X104071904Y-128936666D01*
X103262380Y-128936666D01*
X103357619Y-128508095D02*
X103310000Y-128460476D01*
X103262380Y-128365238D01*
X103262380Y-128127142D01*
X103310000Y-128031904D01*
X103357619Y-127984285D01*
X103452857Y-127936666D01*
X103548095Y-127936666D01*
X103690952Y-127984285D01*
X104262380Y-128555714D01*
X104262380Y-127936666D01*
X103262380Y-127317619D02*
X103262380Y-127222380D01*
X103310000Y-127127142D01*
X103357619Y-127079523D01*
X103452857Y-127031904D01*
X103643333Y-126984285D01*
X103881428Y-126984285D01*
X104071904Y-127031904D01*
X104167142Y-127079523D01*
X104214761Y-127127142D01*
X104262380Y-127222380D01*
X104262380Y-127317619D01*
X104214761Y-127412857D01*
X104167142Y-127460476D01*
X104071904Y-127508095D01*
X103881428Y-127555714D01*
X103643333Y-127555714D01*
X103452857Y-127508095D01*
X103357619Y-127460476D01*
X103310000Y-127412857D01*
X103262380Y-127317619D01*
X113149142Y-116022380D02*
X112815809Y-115546190D01*
X112577714Y-116022380D02*
X112577714Y-115022380D01*
X112958666Y-115022380D01*
X113053904Y-115070000D01*
X113101523Y-115117619D01*
X113149142Y-115212857D01*
X113149142Y-115355714D01*
X113101523Y-115450952D01*
X113053904Y-115498571D01*
X112958666Y-115546190D01*
X112577714Y-115546190D01*
X113530095Y-115117619D02*
X113577714Y-115070000D01*
X113672952Y-115022380D01*
X113911047Y-115022380D01*
X114006285Y-115070000D01*
X114053904Y-115117619D01*
X114101523Y-115212857D01*
X114101523Y-115308095D01*
X114053904Y-115450952D01*
X113482476Y-116022380D01*
X114101523Y-116022380D01*
X114434857Y-115022380D02*
X115053904Y-115022380D01*
X114720571Y-115403333D01*
X114863428Y-115403333D01*
X114958666Y-115450952D01*
X115006285Y-115498571D01*
X115053904Y-115593809D01*
X115053904Y-115831904D01*
X115006285Y-115927142D01*
X114958666Y-115974761D01*
X114863428Y-116022380D01*
X114577714Y-116022380D01*
X114482476Y-115974761D01*
X114434857Y-115927142D01*
X139644380Y-120276857D02*
X139168190Y-120610190D01*
X139644380Y-120848285D02*
X138644380Y-120848285D01*
X138644380Y-120467333D01*
X138692000Y-120372095D01*
X138739619Y-120324476D01*
X138834857Y-120276857D01*
X138977714Y-120276857D01*
X139072952Y-120324476D01*
X139120571Y-120372095D01*
X139168190Y-120467333D01*
X139168190Y-120848285D01*
X139644380Y-119324476D02*
X139644380Y-119895904D01*
X139644380Y-119610190D02*
X138644380Y-119610190D01*
X138787238Y-119705428D01*
X138882476Y-119800666D01*
X138930095Y-119895904D01*
X138644380Y-118705428D02*
X138644380Y-118610190D01*
X138692000Y-118514952D01*
X138739619Y-118467333D01*
X138834857Y-118419714D01*
X139025333Y-118372095D01*
X139263428Y-118372095D01*
X139453904Y-118419714D01*
X139549142Y-118467333D01*
X139596761Y-118514952D01*
X139644380Y-118610190D01*
X139644380Y-118705428D01*
X139596761Y-118800666D01*
X139549142Y-118848285D01*
X139453904Y-118895904D01*
X139263428Y-118943523D01*
X139025333Y-118943523D01*
X138834857Y-118895904D01*
X138739619Y-118848285D01*
X138692000Y-118800666D01*
X138644380Y-118705428D01*
X147895714Y-124392380D02*
X147895714Y-123392380D01*
X148467142Y-124392380D02*
X148038571Y-123820952D01*
X148467142Y-123392380D02*
X147895714Y-123963809D01*
X149419523Y-124392380D02*
X148848095Y-124392380D01*
X149133809Y-124392380D02*
X149133809Y-123392380D01*
X149038571Y-123535238D01*
X148943333Y-123630476D01*
X148848095Y-123678095D01*
X150038571Y-123392380D02*
X150133809Y-123392380D01*
X150229047Y-123440000D01*
X150276666Y-123487619D01*
X150324285Y-123582857D01*
X150371904Y-123773333D01*
X150371904Y-124011428D01*
X150324285Y-124201904D01*
X150276666Y-124297142D01*
X150229047Y-124344761D01*
X150133809Y-124392380D01*
X150038571Y-124392380D01*
X149943333Y-124344761D01*
X149895714Y-124297142D01*
X149848095Y-124201904D01*
X149800476Y-124011428D01*
X149800476Y-123773333D01*
X149848095Y-123582857D01*
X149895714Y-123487619D01*
X149943333Y-123440000D01*
X150038571Y-123392380D01*
X150836380Y-125730000D02*
X151074476Y-125730000D01*
X150979238Y-125968095D02*
X151074476Y-125730000D01*
X150979238Y-125491904D01*
X151264952Y-125872857D02*
X151074476Y-125730000D01*
X151264952Y-125587142D01*
X102314476Y-153503380D02*
X102314476Y-154217666D01*
X102266857Y-154360523D01*
X102171619Y-154455761D01*
X102028761Y-154503380D01*
X101933523Y-154503380D01*
X102838285Y-154503380D02*
X103028761Y-154503380D01*
X103124000Y-154455761D01*
X103171619Y-154408142D01*
X103266857Y-154265285D01*
X103314476Y-154074809D01*
X103314476Y-153693857D01*
X103266857Y-153598619D01*
X103219238Y-153551000D01*
X103124000Y-153503380D01*
X102933523Y-153503380D01*
X102838285Y-153551000D01*
X102790666Y-153598619D01*
X102743047Y-153693857D01*
X102743047Y-153931952D01*
X102790666Y-154027190D01*
X102838285Y-154074809D01*
X102933523Y-154122428D01*
X103124000Y-154122428D01*
X103219238Y-154074809D01*
X103266857Y-154027190D01*
X103314476Y-153931952D01*
X104266857Y-154503380D02*
X103695428Y-154503380D01*
X103981142Y-154503380D02*
X103981142Y-153503380D01*
X103885904Y-153646238D01*
X103790666Y-153741476D01*
X103695428Y-153789095D01*
X112690476Y-99452380D02*
X112690476Y-100166666D01*
X112642857Y-100309523D01*
X112547619Y-100404761D01*
X112404761Y-100452380D01*
X112309523Y-100452380D01*
X113309523Y-99880952D02*
X113214285Y-99833333D01*
X113166666Y-99785714D01*
X113119047Y-99690476D01*
X113119047Y-99642857D01*
X113166666Y-99547619D01*
X113214285Y-99500000D01*
X113309523Y-99452380D01*
X113500000Y-99452380D01*
X113595238Y-99500000D01*
X113642857Y-99547619D01*
X113690476Y-99642857D01*
X113690476Y-99690476D01*
X113642857Y-99785714D01*
X113595238Y-99833333D01*
X113500000Y-99880952D01*
X113309523Y-99880952D01*
X113214285Y-99928571D01*
X113166666Y-99976190D01*
X113119047Y-100071428D01*
X113119047Y-100261904D01*
X113166666Y-100357142D01*
X113214285Y-100404761D01*
X113309523Y-100452380D01*
X113500000Y-100452380D01*
X113595238Y-100404761D01*
X113642857Y-100357142D01*
X113690476Y-100261904D01*
X113690476Y-100071428D01*
X113642857Y-99976190D01*
X113595238Y-99928571D01*
X113500000Y-99880952D01*
X114642857Y-100452380D02*
X114071428Y-100452380D01*
X114357142Y-100452380D02*
X114357142Y-99452380D01*
X114261904Y-99595238D01*
X114166666Y-99690476D01*
X114071428Y-99738095D01*
X131651476Y-153513380D02*
X131651476Y-154227666D01*
X131603857Y-154370523D01*
X131508619Y-154465761D01*
X131365761Y-154513380D01*
X131270523Y-154513380D01*
X132556238Y-153513380D02*
X132365761Y-153513380D01*
X132270523Y-153561000D01*
X132222904Y-153608619D01*
X132127666Y-153751476D01*
X132080047Y-153941952D01*
X132080047Y-154322904D01*
X132127666Y-154418142D01*
X132175285Y-154465761D01*
X132270523Y-154513380D01*
X132461000Y-154513380D01*
X132556238Y-154465761D01*
X132603857Y-154418142D01*
X132651476Y-154322904D01*
X132651476Y-154084809D01*
X132603857Y-153989571D01*
X132556238Y-153941952D01*
X132461000Y-153894333D01*
X132270523Y-153894333D01*
X132175285Y-153941952D01*
X132127666Y-153989571D01*
X132080047Y-154084809D01*
X133603857Y-154513380D02*
X133032428Y-154513380D01*
X133318142Y-154513380D02*
X133318142Y-153513380D01*
X133222904Y-153656238D01*
X133127666Y-153751476D01*
X133032428Y-153799095D01*
X86152380Y-130609523D02*
X86866666Y-130609523D01*
X87009523Y-130657142D01*
X87104761Y-130752380D01*
X87152380Y-130895238D01*
X87152380Y-130990476D01*
X86152380Y-129657142D02*
X86152380Y-130133333D01*
X86628571Y-130180952D01*
X86580952Y-130133333D01*
X86533333Y-130038095D01*
X86533333Y-129800000D01*
X86580952Y-129704761D01*
X86628571Y-129657142D01*
X86723809Y-129609523D01*
X86961904Y-129609523D01*
X87057142Y-129657142D01*
X87104761Y-129704761D01*
X87152380Y-129800000D01*
X87152380Y-130038095D01*
X87104761Y-130133333D01*
X87057142Y-130180952D01*
X87152380Y-128657142D02*
X87152380Y-129228571D01*
X87152380Y-128942857D02*
X86152380Y-128942857D01*
X86295238Y-129038095D01*
X86390476Y-129133333D01*
X86438095Y-129228571D01*
X122137380Y-116379523D02*
X122851666Y-116379523D01*
X122994523Y-116427142D01*
X123089761Y-116522380D01*
X123137380Y-116665238D01*
X123137380Y-116760476D01*
X122232619Y-115950952D02*
X122185000Y-115903333D01*
X122137380Y-115808095D01*
X122137380Y-115570000D01*
X122185000Y-115474761D01*
X122232619Y-115427142D01*
X122327857Y-115379523D01*
X122423095Y-115379523D01*
X122565952Y-115427142D01*
X123137380Y-115998571D01*
X123137380Y-115379523D01*
X122137380Y-114760476D02*
X122137380Y-114665238D01*
X122185000Y-114570000D01*
X122232619Y-114522380D01*
X122327857Y-114474761D01*
X122518333Y-114427142D01*
X122756428Y-114427142D01*
X122946904Y-114474761D01*
X123042142Y-114522380D01*
X123089761Y-114570000D01*
X123137380Y-114665238D01*
X123137380Y-114760476D01*
X123089761Y-114855714D01*
X123042142Y-114903333D01*
X122946904Y-114950952D01*
X122756428Y-114998571D01*
X122518333Y-114998571D01*
X122327857Y-114950952D01*
X122232619Y-114903333D01*
X122185000Y-114855714D01*
X122137380Y-114760476D01*
X147780476Y-132294380D02*
X147780476Y-133008666D01*
X147732857Y-133151523D01*
X147637619Y-133246761D01*
X147494761Y-133294380D01*
X147399523Y-133294380D01*
X148780476Y-133294380D02*
X148209047Y-133294380D01*
X148494761Y-133294380D02*
X148494761Y-132294380D01*
X148399523Y-132437238D01*
X148304285Y-132532476D01*
X148209047Y-132580095D01*
X149732857Y-133294380D02*
X149161428Y-133294380D01*
X149447142Y-133294380D02*
X149447142Y-132294380D01*
X149351904Y-132437238D01*
X149256666Y-132532476D01*
X149161428Y-132580095D01*
X104060666Y-99452380D02*
X104060666Y-100166666D01*
X104013047Y-100309523D01*
X103917809Y-100404761D01*
X103774952Y-100452380D01*
X103679714Y-100452380D01*
X105060666Y-100452380D02*
X104489238Y-100452380D01*
X104774952Y-100452380D02*
X104774952Y-99452380D01*
X104679714Y-99595238D01*
X104584476Y-99690476D01*
X104489238Y-99738095D01*
X97845714Y-101036380D02*
X97845714Y-100036380D01*
X98083809Y-100036380D01*
X98226666Y-100084000D01*
X98321904Y-100179238D01*
X98369523Y-100274476D01*
X98417142Y-100464952D01*
X98417142Y-100607809D01*
X98369523Y-100798285D01*
X98321904Y-100893523D01*
X98226666Y-100988761D01*
X98083809Y-101036380D01*
X97845714Y-101036380D01*
X98750476Y-100036380D02*
X99417142Y-100036380D01*
X98988571Y-101036380D01*
X99750476Y-100131619D02*
X99798095Y-100084000D01*
X99893333Y-100036380D01*
X100131428Y-100036380D01*
X100226666Y-100084000D01*
X100274285Y-100131619D01*
X100321904Y-100226857D01*
X100321904Y-100322095D01*
X100274285Y-100464952D01*
X99702857Y-101036380D01*
X100321904Y-101036380D01*
X97845714Y-154122380D02*
X97845714Y-153122380D01*
X98083809Y-153122380D01*
X98226666Y-153170000D01*
X98321904Y-153265238D01*
X98369523Y-153360476D01*
X98417142Y-153550952D01*
X98417142Y-153693809D01*
X98369523Y-153884285D01*
X98321904Y-153979523D01*
X98226666Y-154074761D01*
X98083809Y-154122380D01*
X97845714Y-154122380D01*
X98750476Y-153122380D02*
X99417142Y-153122380D01*
X98988571Y-154122380D01*
X100321904Y-154122380D02*
X99750476Y-154122380D01*
X100036190Y-154122380D02*
X100036190Y-153122380D01*
X99940952Y-153265238D01*
X99845714Y-153360476D01*
X99750476Y-153408095D01*
X162251714Y-143348380D02*
X162251714Y-142348380D01*
X162489809Y-142348380D01*
X162632666Y-142396000D01*
X162727904Y-142491238D01*
X162775523Y-142586476D01*
X162823142Y-142776952D01*
X162823142Y-142919809D01*
X162775523Y-143110285D01*
X162727904Y-143205523D01*
X162632666Y-143300761D01*
X162489809Y-143348380D01*
X162251714Y-143348380D01*
X163775523Y-143348380D02*
X163204095Y-143348380D01*
X163489809Y-143348380D02*
X163489809Y-142348380D01*
X163394571Y-142491238D01*
X163299333Y-142586476D01*
X163204095Y-142634095D01*
X164156476Y-142443619D02*
X164204095Y-142396000D01*
X164299333Y-142348380D01*
X164537428Y-142348380D01*
X164632666Y-142396000D01*
X164680285Y-142443619D01*
X164727904Y-142538857D01*
X164727904Y-142634095D01*
X164680285Y-142776952D01*
X164108857Y-143348380D01*
X164727904Y-143348380D01*
X126150904Y-101163380D02*
X126150904Y-100163380D01*
X126389000Y-100163380D01*
X126531857Y-100211000D01*
X126627095Y-100306238D01*
X126674714Y-100401476D01*
X126722333Y-100591952D01*
X126722333Y-100734809D01*
X126674714Y-100925285D01*
X126627095Y-101020523D01*
X126531857Y-101115761D01*
X126389000Y-101163380D01*
X126150904Y-101163380D01*
X127055666Y-100163380D02*
X127722333Y-100163380D01*
X127293761Y-101163380D01*
X125896904Y-153868380D02*
X125896904Y-152868380D01*
X126135000Y-152868380D01*
X126277857Y-152916000D01*
X126373095Y-153011238D01*
X126420714Y-153106476D01*
X126468333Y-153296952D01*
X126468333Y-153439809D01*
X126420714Y-153630285D01*
X126373095Y-153725523D01*
X126277857Y-153820761D01*
X126135000Y-153868380D01*
X125896904Y-153868380D01*
X127373095Y-152868380D02*
X126896904Y-152868380D01*
X126849285Y-153344571D01*
X126896904Y-153296952D01*
X126992142Y-153249333D01*
X127230238Y-153249333D01*
X127325476Y-153296952D01*
X127373095Y-153344571D01*
X127420714Y-153439809D01*
X127420714Y-153677904D01*
X127373095Y-153773142D01*
X127325476Y-153820761D01*
X127230238Y-153868380D01*
X126992142Y-153868380D01*
X126896904Y-153820761D01*
X126849285Y-153773142D01*
M02*
