M48
; DRILL file {KiCad 5.1.5+dfsg1-2build2} date tor 27 maj 2021 17:25:38
; FORMAT={-:-/ absolute / inch / decimal}
; #@! TF.CreationDate,2021-05-27T17:25:38+02:00
; #@! TF.GenerationSoftware,Kicad,Pcbnew,5.1.5+dfsg1-2build2
; #@! TF.FileFunction,Plated,1,4,PTH
FMAT,2
INCH
T1C0.0157
T2C0.0236
T3C0.0256
T4C0.0260
T5C0.0295
T6C0.0315
T7C0.0335
T8C0.0354
T9C0.0394
T10C0.0433
T11C0.0472
T12C0.0900
%
G90
G05
T1
X3.778Y-4.3291
X3.8347Y-5.42
X3.9118Y-4.6343
X4.0528Y-4.8665
X4.1087Y-4.5724
X4.1839Y-4.3106
X4.4012Y-4.48
X4.6063Y-4.5705
X4.6083Y-4.4685
X4.6291Y-4.708
T3
X4.8969Y-4.55
X4.9469Y-4.55
X4.9969Y-4.55
X5.0469Y-4.55
X5.0969Y-4.55
X5.1469Y-4.55
X5.1969Y-4.55
X5.2469Y-4.55
X5.2969Y-4.55
X5.3469Y-4.55
T4
X5.6605Y-4.95
X5.6605Y-5.15
X5.7865Y-4.95
X5.7865Y-5.15
X5.8731Y-4.95
X5.8731Y-5.15
X5.9597Y-4.95
X5.9597Y-5.15
T5
X5.84Y-5.3613
X5.84Y-5.44
T6
X5.55Y-5.65
X5.65Y-5.65
X4.48Y-4.655
X4.48Y-4.755
X4.075Y-5.375
X4.075Y-5.675
X4.175Y-5.375
X4.175Y-5.675
X4.275Y-5.375
X4.275Y-5.675
X4.375Y-5.375
X4.375Y-5.675
X4.1787Y-4.9
X4.1787Y-5.2
X4.2787Y-4.9
X4.2787Y-5.2
X4.3787Y-4.9
X4.3787Y-5.2
X4.4787Y-4.9
X4.4787Y-5.2
X4.5787Y-4.9
X4.5787Y-5.2
X4.6787Y-4.9
X4.6787Y-5.2
X4.7787Y-4.9
X4.7787Y-5.2
X4.8787Y-4.9
X4.8787Y-5.2
X4.9787Y-4.9
X4.9787Y-5.2
X5.0787Y-4.9
X5.0787Y-5.2
X5.1787Y-4.9
X5.1787Y-5.2
X5.2787Y-4.9
X5.2787Y-5.2
X5.3787Y-4.9
X5.3787Y-5.2
X5.4787Y-4.9
X5.4787Y-5.2
T7
X6.5098Y-4.9022
X6.5098Y-5.0991
T8
X6.23Y-5.62
X6.33Y-5.62
X3.4964Y-4.201
X3.5671Y-4.1303
X3.6378Y-4.0596
X6.349Y-4.0596
X6.4197Y-4.1303
X6.4904Y-4.201
X4.95Y-4.1
X5.05Y-4.1
X3.8469Y-4.1
X3.9469Y-4.1
X3.92Y-4.9
X3.92Y-5.0
X3.92Y-5.1
X6.05Y-5.9
X6.15Y-5.9
X4.95Y-5.9
X5.05Y-5.9
X3.85Y-5.9
X3.95Y-5.9
X6.0512Y-4.1024
X6.1512Y-4.1024
X3.5183Y-5.799
X3.589Y-5.8697
X3.6597Y-5.9404
X6.349Y-5.9404
X6.4197Y-5.8697
X6.4904Y-5.799
T9
X5.4921Y-4.2913
X5.6102Y-4.0945
X4.6Y-5.425
X4.6Y-5.625
X6.1331Y-4.9919
X6.33Y-5.11
X5.0815Y-5.4
X5.1799Y-5.4
X5.2783Y-5.4
T10
X6.09Y-4.52
X6.19Y-4.52
X6.29Y-4.52
T11
X5.55Y-5.9
X5.65Y-5.9
X5.75Y-5.9
X5.85Y-5.9
X4.5Y-5.9
X4.6Y-5.9
X4.7Y-5.9
X4.8Y-5.9
X4.1969Y-4.1
X4.2969Y-4.1
X6.14Y-5.34
X6.14Y-5.44
X4.5469Y-4.1
X4.6469Y-4.1
X6.44Y-5.34
X6.44Y-5.44
X3.5969Y-4.95
X3.5969Y-5.05
X5.61Y-4.73
X5.81Y-4.73
X4.1394Y-5.9
X4.2394Y-5.9
X5.2394Y-5.9
X5.3394Y-5.9
T2
G00X6.6023Y-4.8628
M15
G01X6.6298Y-4.8628
M16
G05
G00X6.6298Y-5.1384
M15
G01X6.6023Y-5.1384
M16
G05
T12
G00X6.19Y-4.37
M15
G01X6.19Y-4.37
M16
G05
T0
M30
